<svg xmlns="http://www.w3.org/2000/svg" width="606" height="442" viewBox="0 0 606 442"><path fill="#BDC9DE" d="M334.92 194.85h-.34a.96.96 0 0 1 0-1.92h.34c3.17 0 6.36-.16 9.48-.47a.95.95 0 0 1 1.05.86c.05.53-.33 1-.86 1.05-3.19.32-6.44.48-9.67.48zm-10.84-.6c-.04 0-.07 0-.11-.01-3.2-.36-6.42-.89-9.56-1.56a.96.96 0 1 1 .4-1.88c3.08.66 6.23 1.18 9.37 1.53.53.06.91.53.85 1.06-.05.49-.46.86-.95.86zm30.8-1.48a.96.96 0 0 1-.2-1.9 93.95 93.95 0 0 0 9.18-2.43.97.97 0 0 1 1.21.62.965.965 0 0 1-.62 1.21c-3.07.98-6.22 1.81-9.37 2.48-.06.02-.13.02-.2.02zm-50.4-2.84c-.1 0-.2-.02-.3-.05a98.144 98.144 0 0 1-9.03-3.53c-.48-.22-.7-.79-.48-1.27.22-.48.79-.7 1.27-.48 2.88 1.3 5.85 2.46 8.85 3.46.5.17.77.71.61 1.21-.15.4-.52.66-.92.66zm69.51-3.36c-.37 0-.72-.21-.88-.57-.22-.48 0-1.05.49-1.27 2.88-1.28 5.73-2.73 8.47-4.3a.963.963 0 0 1 1.31.36c.26.46.1 1.05-.36 1.31-2.79 1.6-5.7 3.07-8.64 4.38-.13.07-.26.09-.39.09zm-87.78-4.97c-.17 0-.33-.04-.49-.13a98.136 98.136 0 0 1-8.09-5.33.959.959 0 1 1 1.13-1.55c2.55 1.87 5.21 3.62 7.93 5.23.46.27.61.86.34 1.31a.94.94 0 0 1-.82.47zm105.16-5.08c-.3 0-.59-.14-.78-.4a.959.959 0 0 1 .21-1.34c2.55-1.85 5.04-3.86 7.39-5.96a.965.965 0 0 1 1.28 1.44 97.283 97.283 0 0 1-7.54 6.08c-.17.12-.36.18-.56.18zm-121.3-6.86c-.23 0-.46-.08-.65-.25a96.238 96.238 0 0 1-6.81-6.89c-.35-.39-.32-1 .08-1.36.39-.35 1-.32 1.36.08 2.1 2.35 4.35 4.62 6.68 6.75.39.36.42.97.06 1.36-.2.2-.46.31-.72.31zm136.22-6.58c-.23 0-.46-.08-.64-.25a.963.963 0 0 1-.07-1.36c2.11-2.34 4.13-4.82 6-7.36a.95.95 0 0 1 1.34-.2c.43.31.52.92.21 1.34-1.91 2.59-3.97 5.12-6.12 7.51-.2.21-.46.32-.72.32zm-149.54-8.45c-.3 0-.59-.14-.78-.4a98.144 98.144 0 0 1-5.24-8.15.96.96 0 0 1 .35-1.31.96.96 0 0 1 1.31.35c1.57 2.74 3.3 5.42 5.14 7.99a.96.96 0 0 1-.22 1.34c-.17.13-.37.18-.56.18zm161.36-7.78c-.16 0-.33-.04-.48-.13a.954.954 0 0 1-.35-1.31c1.58-2.73 3.04-5.57 4.34-8.45.22-.48.79-.7 1.27-.48.48.22.7.79.48 1.27a100.08 100.08 0 0 1-4.43 8.62c-.18.31-.5.48-.83.48zm-171.28-9.68c-.37 0-.72-.22-.88-.58-1.29-2.95-2.44-6-3.43-9.06a.97.97 0 0 1 .62-1.21.97.97 0 0 1 1.21.62c.97 3.01 2.1 5.99 3.36 8.88a.954.954 0 0 1-.5 1.26c-.12.07-.25.09-.38.09zm179.46-8.65a.97.97 0 0 1-.92-1.26c.98-3 1.81-6.08 2.48-9.17.11-.52.62-.85 1.14-.73.52.11.85.62.73 1.14-.68 3.15-1.54 6.29-2.53 9.35a.93.93 0 0 1-.9.67zm-185.51-10.5c-.45 0-.85-.31-.94-.77-.64-3.15-1.13-6.37-1.45-9.58-.05-.53.33-1 .86-1.05.53-.05 1 .33 1.05.86.32 3.15.8 6.3 1.43 9.39a.952.952 0 0 1-.75 1.13c-.07.02-.14.02-.2.02zm189.68-9.14c-.03 0-.07 0-.1-.01a.968.968 0 0 1-.86-1.05c.33-3.13.5-6.32.52-9.48 0-.53.43-.95.96-.95s.96.44.96.97c-.02 3.23-.2 6.48-.53 9.67-.04.48-.46.85-.95.85zM238.85 98.04s-.01 0 0 0c-.54 0-.96-.44-.96-.97.02-3.23.21-6.48.55-9.67.06-.53.52-.92 1.06-.85.53.06.91.53.85 1.06a99.83 99.83 0 0 0-.54 9.48c0 .53-.43.95-.96.95zm191.63-9.24c-.49 0-.9-.37-.95-.86-.32-3.14-.81-6.3-1.44-9.39a.952.952 0 0 1 .75-1.13.952.952 0 0 1 1.13.75c.65 3.15 1.14 6.37 1.47 9.58.05.53-.33 1-.86 1.05h-.1zm-189.4-10.71a.95.95 0 0 1-.94-1.16c.69-3.15 1.55-6.29 2.55-9.35.17-.5.7-.78 1.21-.61.5.17.78.71.61 1.21-.98 3-1.82 6.08-2.5 9.16a.96.96 0 0 1-.93.75zm185.26-8.94a.95.95 0 0 1-.91-.67c-.97-3-2.11-5.99-3.37-8.88a.958.958 0 0 1 .49-1.26.958.958 0 0 1 1.26.49c1.29 2.95 2.45 6 3.44 9.06.16.5-.11 1.05-.62 1.21a.71.71 0 0 1-.29.05zM247.41 59.04c-.13 0-.27-.03-.4-.09-.48-.22-.7-.79-.48-1.27a97.33 97.33 0 0 1 4.45-8.61c.27-.46.85-.61 1.31-.35.46.27.61.85.35 1.31a96.157 96.157 0 0 0-4.36 8.44c-.16.36-.5.57-.87.57zm170.78-8.24c-.33 0-.65-.17-.83-.48a96.851 96.851 0 0 0-5.15-7.98.96.96 0 0 1 1.56-1.12c1.88 2.61 3.65 5.35 5.26 8.14.27.46.11 1.05-.35 1.31a1 1 0 0 1-.49.13zm-160.61-9.07c-.2 0-.4-.06-.57-.19a.95.95 0 0 1-.2-1.34c1.91-2.59 3.97-5.11 6.14-7.5.35-.39.96-.42 1.36-.07.39.36.42.96.07 1.36a93.918 93.918 0 0 0-6.01 7.35c-.2.26-.49.39-.79.39zm148.82-7.18c-.26 0-.52-.11-.71-.32a94.541 94.541 0 0 0-6.69-6.74.963.963 0 0 1 1.3-1.42c2.38 2.17 4.67 4.48 6.83 6.88.35.39.32 1-.07 1.36-.21.16-.44.24-.66.24zM271.13 26.9a.98.98 0 0 1-.72-.32c-.35-.4-.32-1 .08-1.35a97.77 97.77 0 0 1 7.55-6.07.959.959 0 1 1 1.13 1.55 92.133 92.133 0 0 0-7.4 5.95 1 1 0 0 1-.64.24zm120.37-5.81c-.2 0-.39-.06-.57-.18a96.833 96.833 0 0 0-7.94-5.21.953.953 0 0 1-.34-1.31c.27-.46.86-.61 1.31-.34 2.78 1.63 5.5 3.42 8.1 5.32.43.31.52.91.21 1.34a.98.98 0 0 1-.77.38zM287.44 15.2c-.33 0-.66-.17-.83-.48a.963.963 0 0 1 .36-1.31c2.8-1.6 5.71-3.06 8.65-4.37.48-.21 1.05 0 1.27.49.21.48 0 1.05-.49 1.27a97.537 97.537 0 0 0-8.48 4.28c-.15.08-.32.12-.48.12zm86.7-4.19c-.13 0-.26-.03-.39-.08a94.128 94.128 0 0 0-8.85-3.44.96.96 0 0 1-.61-1.21.96.96 0 0 1 1.21-.61c3.05 1.01 6.09 2.19 9.03 3.51.48.22.7.78.48 1.27-.16.35-.51.56-.87.56zm-68.3-3.87a.963.963 0 0 1-.3-1.88c3.07-.97 6.22-1.8 9.37-2.46a.96.96 0 1 1 .4 1.88c-3.09.65-6.18 1.46-9.19 2.41-.09.04-.19.05-.28.05zm49.21-2.36c-.07 0-.13-.01-.2-.02-3.08-.66-6.23-1.17-9.38-1.51a.957.957 0 0 1-.85-1.06c.06-.53.53-.91 1.06-.85 3.2.35 6.42.87 9.56 1.54.52.11.85.62.74 1.14-.08.45-.48.76-.93.76zm-29.54-1.66c-.49 0-.91-.37-.95-.87-.05-.53.33-1 .86-1.05 3.14-.31 6.33-.46 9.5-.46h.17a.96.96 0 0 1 0 1.92h-.18c-3.1 0-6.24.15-9.31.45-.03.01-.06.01-.09.01z"/><path fill="#32425E" d="M97.92 310.85c-2.25 0-4.53-.08-6.76-.23a.96.96 0 0 1-.89-1.02.96.96 0 0 1 1.02-.89c5.32.37 10.79.29 16.12-.24a.95.95 0 0 1 1.05.86c.05.53-.33 1-.86 1.05-3.2.31-6.46.47-9.68.47zm-19.09-1.9c-.06 0-.13-.01-.19-.02-3.15-.64-6.31-1.44-9.39-2.39a.952.952 0 0 1-.63-1.2c.16-.51.69-.79 1.2-.63 3.01.93 6.11 1.72 9.2 2.34.52.11.86.61.75 1.13-.09.46-.49.77-.94.77zm41.01-.61c-.44 0-.83-.3-.93-.74-.12-.52.2-1.03.72-1.15 3.07-.72 6.14-1.6 9.13-2.62.5-.17 1.05.1 1.22.6.17.5-.1 1.05-.6 1.22a97.76 97.76 0 0 1-9.31 2.67c-.09.01-.16.02-.23.02zm-61.99-6.22c-.13 0-.27-.03-.4-.09a97.261 97.261 0 0 1-8.59-4.48c-.46-.27-.61-.86-.34-1.31s.85-.61 1.31-.34a93.44 93.44 0 0 0 8.42 4.39.959.959 0 0 1-.4 1.83zm82.76-1.25c-.35 0-.69-.2-.86-.53a.966.966 0 0 1 .43-1.29c2.83-1.4 5.61-2.97 8.28-4.65a.955.955 0 0 1 1.32.3c.28.45.15 1.04-.3 1.32a98.584 98.584 0 0 1-8.45 4.74c-.13.07-.28.11-.42.11zM38.99 290.66a1 1 0 0 1-.59-.2 95.85 95.85 0 0 1-7.34-6.32.963.963 0 0 1 1.33-1.39c2.29 2.18 4.71 4.26 7.2 6.2.42.33.49.93.17 1.35-.2.23-.48.36-.77.36zm120.12-1.82c-.28 0-.55-.12-.74-.35a.955.955 0 0 1 .13-1.35c2.43-2.01 4.79-4.17 7.01-6.41a.963.963 0 0 1 1.37 1.35 96.192 96.192 0 0 1-7.15 6.54.98.98 0 0 1-.62.22zM23.24 275.21c-.28 0-.56-.12-.75-.36-2.03-2.5-3.95-5.13-5.72-7.82a.964.964 0 0 1 .27-1.33.957.957 0 0 1 1.33.28c1.73 2.64 3.62 5.22 5.6 7.67.33.41.27 1.02-.14 1.35-.17.14-.38.21-.59.21zm151.16-2.28c-.2 0-.41-.06-.58-.2a.967.967 0 0 1-.18-1.35c1.91-2.51 3.72-5.15 5.37-7.83a.97.97 0 0 1 1.32-.32c.45.28.59.87.32 1.32a99.008 99.008 0 0 1-5.48 7.99c-.2.26-.49.39-.77.39zm-163-16.35c-.36 0-.7-.2-.86-.54-1.4-2.89-2.67-5.9-3.78-8.92-.18-.5.07-1.05.57-1.23.5-.18 1.05.07 1.23.57 1.08 2.96 2.33 5.91 3.7 8.75.23.48.03 1.05-.45 1.28-.13.06-.27.09-.41.09zm174.26-2.62c-.13 0-.26-.03-.39-.08-.48-.22-.7-.78-.48-1.27 1.29-2.88 2.44-5.86 3.44-8.85a.96.96 0 0 1 1.21-.61c.5.17.78.71.61 1.21-1.01 3.06-2.19 6.1-3.51 9.03a.98.98 0 0 1-.88.57zM4.14 235.74a.96.96 0 0 1-.94-.75 96.17 96.17 0 0 1-1.63-9.55c-.06-.53.31-1 .84-1.07.53-.07 1 .31 1.07.84.38 3.14.91 6.29 1.6 9.36a.961.961 0 0 1-.73 1.15c-.07.01-.14.02-.21.02zm188.14-2.83c-.06 0-.12-.01-.18-.02-.52-.1-.86-.6-.76-1.12.59-3.09 1.03-6.26 1.31-9.4.05-.53.51-.93 1.04-.87.53.05.92.51.87 1.04a99.82 99.82 0 0 1-1.34 9.6c-.09.45-.49.77-.94.77zM1.85 213.79s-.01 0 0 0a.962.962 0 0 1-.96-.97c.03-3.23.22-6.48.57-9.67a.97.97 0 0 1 1.06-.85c.53.06.91.53.85 1.06-.34 3.13-.53 6.32-.56 9.48 0 .53-.43.95-.96.95zm192.06-2.88c-.51 0-.94-.41-.96-.92-.12-3.16-.41-6.34-.84-9.46a.952.952 0 0 1 .82-1.08.95.95 0 0 1 1.08.82c.44 3.18.73 6.43.86 9.65.02.53-.39.98-.92 1-.01-.01-.02-.01-.04-.01zM4.58 191.9a.968.968 0 0 1-.94-1.19 94.31 94.31 0 0 1 2.77-9.29c.18-.5.73-.76 1.23-.59.5.18.76.73.59 1.23a96.887 96.887 0 0 0-2.71 9.1.98.98 0 0 1-.94.74zm185.95-2.79c-.42 0-.81-.28-.92-.7a96.2 96.2 0 0 0-2.99-9.02.956.956 0 0 1 .55-1.24.956.956 0 0 1 1.24.55c1.16 3 2.19 6.1 3.05 9.2a.96.96 0 0 1-.67 1.18c-.09.01-.18.03-.26.03zm-178.28-17.9c-.15 0-.29-.03-.43-.1a.962.962 0 0 1-.42-1.29c1.46-2.86 3.08-5.69 4.82-8.4.29-.44.88-.57 1.33-.29.45.29.58.88.29 1.33-1.71 2.66-3.3 5.43-4.73 8.24-.17.32-.51.51-.86.51zm169.98-2.56c-.34 0-.67-.18-.84-.5a96.83 96.83 0 0 0-4.97-8.09.952.952 0 0 1 .25-1.33.95.95 0 0 1 1.33.25c1.82 2.66 3.53 5.43 5.07 8.26.25.46.08 1.05-.38 1.3a.92.92 0 0 1-.46.11zM24.46 152.83a.92.92 0 0 1-.62-.23.945.945 0 0 1-.11-1.35c2.08-2.46 4.3-4.85 6.61-7.09a.963.963 0 0 1 1.34 1.38c-2.26 2.2-4.44 4.54-6.48 6.95-.2.22-.47.34-.74.34zm145.02-2.19a.98.98 0 0 1-.72-.32 96.681 96.681 0 0 0-6.68-6.75.964.964 0 0 1 1.3-1.42c2.38 2.17 4.67 4.49 6.82 6.89.35.4.32 1-.07 1.36-.19.16-.42.24-.65.24zM40.52 137.69c-.29 0-.58-.13-.77-.39a.956.956 0 0 1 .19-1.34c2.58-1.93 5.29-3.75 8.05-5.4a.964.964 0 0 1 1.32.33c.27.45.13 1.04-.33 1.32-2.7 1.62-5.36 3.41-7.89 5.3-.17.12-.37.18-.57.18zM152.97 136c-.19 0-.38-.06-.55-.17a98.598 98.598 0 0 0-8.04-5.06.964.964 0 0 1-.37-1.31c.26-.46.84-.63 1.31-.37a97.17 97.17 0 0 1 8.2 5.16c.43.3.54.9.24 1.34-.19.26-.48.41-.79.41zm-93.37-9.39c-.37 0-.72-.22-.88-.58a.954.954 0 0 1 .5-1.26c2.96-1.29 6.01-2.44 9.07-3.42a.965.965 0 0 1 1.21.62.97.97 0 0 1-.62 1.21c-3 .96-5.99 2.09-8.89 3.35-.13.05-.26.08-.39.08zm73.98-1.11c-.12 0-.24-.02-.36-.07a95.065 95.065 0 0 0-8.98-3.08.97.97 0 0 1-.66-1.19c.15-.51.68-.81 1.19-.66 3.1.89 6.18 1.95 9.17 3.14.49.2.73.76.53 1.25-.15.38-.51.61-.89.61zm-52.86-5.3c-.46 0-.86-.33-.94-.79a.97.97 0 0 1 .77-1.12c3.16-.57 6.39-.99 9.61-1.25.53-.04.99.35 1.03.88.04.53-.35.99-.88 1.03-3.15.25-6.32.66-9.42 1.22-.06.02-.12.03-.17.03zm31.56-.47c-.05 0-.1 0-.14-.01-3.11-.47-6.29-.78-9.45-.94a.961.961 0 0 1-.91-1.01c.03-.53.48-.93 1.01-.91 3.22.16 6.47.48 9.64.96.52.08.89.57.81 1.09-.08.48-.49.82-.96.82z"/><path fill="#5F6677" d="M483.92 439.85c-2.25 0-4.53-.08-6.76-.23a.96.96 0 0 1-.89-1.02c.04-.53.5-.91 1.02-.89 5.32.37 10.79.29 16.11-.24.54-.06 1 .33 1.05.86.05.53-.33 1-.86 1.05-3.19.31-6.45.47-9.67.47zm-19.09-1.9c-.06 0-.13-.01-.19-.02-3.16-.64-6.32-1.44-9.39-2.39a.952.952 0 0 1-.63-1.2c.16-.51.7-.79 1.2-.63 3.01.93 6.11 1.72 9.2 2.34.52.11.86.61.75 1.13-.09.46-.49.77-.94.77zm41.01-.61c-.44 0-.83-.3-.93-.74-.12-.52.2-1.03.72-1.15 3.07-.72 6.14-1.6 9.13-2.62.5-.17 1.05.09 1.22.6.17.5-.1 1.05-.6 1.22a97.76 97.76 0 0 1-9.31 2.67c-.09.01-.16.02-.23.02zm-61.99-6.22c-.13 0-.27-.03-.4-.09a97.261 97.261 0 0 1-8.59-4.48c-.46-.27-.61-.86-.34-1.31s.86-.61 1.31-.34a93.44 93.44 0 0 0 8.42 4.39.959.959 0 0 1-.4 1.83zm82.76-1.25c-.35 0-.69-.2-.86-.53a.966.966 0 0 1 .43-1.29c2.83-1.4 5.61-2.97 8.28-4.65a.955.955 0 0 1 1.32.3c.28.45.15 1.04-.3 1.32a97.09 97.09 0 0 1-8.45 4.74c-.13.07-.28.11-.42.11zM425 419.66a1 1 0 0 1-.59-.2 95.85 95.85 0 0 1-7.34-6.32.963.963 0 0 1 1.33-1.39c2.29 2.18 4.71 4.26 7.2 6.2.42.33.49.93.17 1.35-.21.23-.49.36-.77.36zm120.11-1.82c-.28 0-.55-.12-.74-.35a.955.955 0 0 1 .13-1.35c2.43-2.01 4.79-4.17 7.01-6.41a.963.963 0 0 1 1.37 1.35c-2.26 2.28-4.67 4.48-7.15 6.54a.98.98 0 0 1-.62.22zm-135.87-13.63c-.28 0-.56-.12-.75-.36-2.03-2.5-3.95-5.14-5.72-7.82a.957.957 0 0 1 .28-1.33.955.955 0 0 1 1.33.28c1.73 2.63 3.62 5.21 5.61 7.67.33.41.27 1.02-.14 1.35-.18.14-.4.21-.61.21zm151.15-2.29c-.2 0-.41-.06-.58-.2a.956.956 0 0 1-.18-1.34c1.91-2.51 3.72-5.15 5.37-7.83a.97.97 0 0 1 1.32-.32c.45.28.59.87.32 1.32a96.495 96.495 0 0 1-5.48 7.99c-.19.25-.48.38-.77.38zM397.4 385.58c-.36 0-.7-.2-.87-.54-1.4-2.89-2.67-5.9-3.78-8.92-.18-.5.07-1.05.57-1.23.5-.18 1.05.07 1.23.57 1.08 2.97 2.33 5.91 3.71 8.75.23.48.03 1.05-.45 1.28-.13.06-.27.09-.41.09zm174.26-2.62c-.13 0-.26-.03-.39-.08-.48-.22-.7-.78-.48-1.27 1.29-2.88 2.44-5.86 3.44-8.85a.96.96 0 0 1 1.21-.61c.5.17.78.71.61 1.21a94.183 94.183 0 0 1-3.51 9.03c-.16.36-.52.57-.88.57zm-181.52-18.22a.96.96 0 0 1-.94-.75c-.7-3.13-1.25-6.35-1.63-9.55-.06-.53.31-1 .84-1.07.53-.07 1 .31 1.07.84.38 3.14.91 6.29 1.6 9.36a.961.961 0 0 1-.73 1.15c-.07.01-.14.02-.21.02zm188.14-2.83c-.06 0-.12-.01-.18-.02-.52-.1-.86-.6-.76-1.12.59-3.09 1.03-6.26 1.32-9.4a.96.96 0 0 1 1.04-.87c.53.05.92.51.87 1.04a99.82 99.82 0 0 1-1.34 9.6c-.1.45-.5.77-.95.77zm-190.43-19.12c-.54 0-.96-.44-.96-.97.03-3.22.22-6.48.57-9.67.06-.53.51-.9 1.06-.85.53.06.91.53.85 1.06-.34 3.13-.53 6.32-.56 9.48 0 .53-.43.95-.96.95zm192.06-2.88c-.51 0-.94-.41-.96-.92-.12-3.16-.41-6.35-.84-9.46a.952.952 0 0 1 .82-1.08.958.958 0 0 1 1.08.82c.44 3.18.73 6.42.86 9.65.02.53-.39.98-.92 1-.01-.01-.03-.01-.04-.01zM390.58 320.9a.971.971 0 0 1-.94-1.19 94.31 94.31 0 0 1 2.77-9.29.961.961 0 1 1 1.81.65 96.006 96.006 0 0 0-2.71 9.1c-.1.43-.5.73-.93.73zm185.95-2.79c-.42 0-.81-.28-.92-.7-.84-3.04-1.84-6.07-2.99-9.02a.956.956 0 0 1 .55-1.24c.5-.19 1.05.05 1.24.55 1.17 3 2.19 6.1 3.05 9.2a.96.96 0 0 1-.67 1.18c-.09.01-.18.03-.26.03zm-178.28-17.9c-.15 0-.29-.03-.43-.1a.962.962 0 0 1-.42-1.29c1.46-2.86 3.08-5.69 4.82-8.4.29-.45.88-.58 1.33-.29.45.29.58.88.29 1.33-1.71 2.66-3.3 5.43-4.73 8.24-.17.32-.51.51-.86.51zm169.98-2.56c-.34 0-.67-.18-.84-.5a95.817 95.817 0 0 0-4.97-8.09.95.95 0 0 1 .25-1.33.952.952 0 0 1 1.33.25c1.82 2.66 3.53 5.44 5.07 8.26.25.46.08 1.05-.38 1.3-.15.07-.3.11-.46.11zm-157.77-15.82a.92.92 0 0 1-.62-.23.955.955 0 0 1-.12-1.35c2.08-2.46 4.3-4.85 6.61-7.09a.963.963 0 0 1 1.34 1.38c-2.26 2.2-4.44 4.54-6.48 6.95a.97.97 0 0 1-.73.34zm145.02-2.19c-.26 0-.53-.11-.71-.32a98.94 98.94 0 0 0-6.68-6.75.963.963 0 0 1 1.3-1.42c2.37 2.17 4.67 4.49 6.82 6.89.35.39.32 1-.07 1.36-.2.16-.43.24-.66.24zm-128.96-12.95c-.29 0-.58-.13-.77-.39a.95.95 0 0 1 .2-1.34 98.1 98.1 0 0 1 8.04-5.4.953.953 0 0 1 1.32.33c.27.46.13 1.04-.33 1.32-2.7 1.62-5.35 3.41-7.89 5.3-.17.12-.37.18-.57.18zM538.97 265c-.19 0-.38-.06-.55-.17a96.91 96.91 0 0 0-8.04-5.06.964.964 0 0 1-.37-1.31c.26-.46.84-.63 1.31-.37 2.81 1.57 5.57 3.31 8.2 5.16.43.3.54.9.24 1.34a.95.95 0 0 1-.79.41zm-93.37-9.39c-.37 0-.72-.22-.88-.58a.954.954 0 0 1 .5-1.26c2.96-1.29 6.01-2.44 9.07-3.42a.97.97 0 0 1 1.21.62c.16.5-.12 1.04-.62 1.21-3 .96-5.99 2.09-8.89 3.35-.13.05-.26.08-.39.08zm73.98-1.11c-.12 0-.24-.02-.36-.07a95.065 95.065 0 0 0-8.98-3.08.97.97 0 0 1-.66-1.19c.15-.51.68-.81 1.19-.66 3.09.89 6.18 1.95 9.17 3.14.49.2.73.76.54 1.25-.16.38-.52.61-.9.61zm-52.87-5.3c-.46 0-.86-.33-.94-.79a.97.97 0 0 1 .77-1.12c3.16-.57 6.39-.99 9.61-1.25a.95.95 0 0 1 1.03.88c.04.53-.35.99-.88 1.03-3.15.25-6.32.66-9.42 1.22-.05.02-.11.03-.17.03zm31.57-.47c-.05 0-.09 0-.14-.01-3.11-.47-6.29-.78-9.45-.94a.961.961 0 0 1 .1-1.92c3.22.16 6.47.48 9.64.96.52.08.89.57.81 1.09-.08.48-.49.82-.96.82z"/><path fill="#C7D2E8" d="M289.14 441.26c-2.9 0-5.68-.66-8.25-1.97a.962.962 0 0 1-.42-1.29c.24-.47.82-.66 1.29-.42 2.3 1.17 4.78 1.76 7.38 1.76 3.05 0 6.03-.85 8.6-2.45a.958.958 0 1 1 1.01 1.63c-2.87 1.79-6.2 2.74-9.61 2.74zm-15.23-9.09c-.34 0-.67-.18-.85-.5a18.245 18.245 0 0 1-2.18-8.66c0-.37.01-.74.03-1.1.03-.53.48-.93 1.02-.9.53.03.93.49.9 1.01a16.353 16.353 0 0 0 1.92 8.74c.25.47.08 1.05-.39 1.3-.14.07-.29.11-.45.11zm31.11-1.35a.957.957 0 0 1-.88-1.34c.89-2.05 1.34-4.23 1.34-6.48 0-.8-.06-1.61-.17-2.39a.958.958 0 0 1 .81-1.09c.52-.09 1.01.28 1.09.81.13.88.2 1.77.2 2.67 0 2.52-.5 4.95-1.49 7.24a1 1 0 0 1-.9.58zm-29.45-17.58c-.21 0-.42-.07-.6-.21a.957.957 0 0 1-.16-1.35c2.12-2.67 4.92-4.7 8.11-5.85a.961.961 0 1 1 .65 1.81 16.42 16.42 0 0 0-7.26 5.24c-.18.23-.46.36-.74.36zm26.16-1.13c-.26 0-.51-.1-.7-.3a16.32 16.32 0 0 0-7.68-4.59.956.956 0 1 1 .49-1.85c3.28.87 6.25 2.65 8.58 5.13.36.39.34.99-.04 1.36a.96.96 0 0 1-.65.25z"/><path fill="#BDC9DE" d="M67.9 435.52c-.33 0-.65-.17-.83-.48a.952.952 0 0 1 .35-1.31l5.86-3.38a.952.952 0 0 1 1.31.35c.27.46.11 1.05-.35 1.31l-5.86 3.38c-.15.09-.32.13-.48.13zm14.96-8.63c-.33 0-.65-.17-.83-.48a.952.952 0 0 1 .35-1.31l8.31-4.8a.952.952 0 0 1 1.31.35c.27.46.11 1.05-.35 1.31l-8.31 4.8c-.15.09-.31.13-.48.13zm17.43-10.06c-.33 0-.65-.17-.83-.48a.952.952 0 0 1 .35-1.31l8.31-4.8a.952.952 0 0 1 1.31.35c.27.46.11 1.05-.35 1.31l-8.31 4.8c-.15.09-.32.13-.48.13zm17.43-10.06c-.33 0-.65-.17-.83-.48a.952.952 0 0 1 .35-1.31l8.31-4.8a.952.952 0 0 1 1.31.35c.27.46.11 1.05-.35 1.31l-8.31 4.8c-.15.09-.32.13-.48.13zm17.43-10.05c-.33 0-.65-.17-.83-.48a.952.952 0 0 1 .35-1.31l8.31-4.8a.952.952 0 0 1 1.31.35c.27.46.11 1.05-.35 1.31l-8.31 4.8c-.16.09-.32.13-.48.13zm17.42-10.06c-.33 0-.65-.17-.83-.48a.952.952 0 0 1 .35-1.31l8.31-4.8a.952.952 0 0 1 1.31.35c.27.46.11 1.05-.35 1.31l-8.31 4.8c-.15.09-.32.13-.48.13zM170 376.61c-.33 0-.65-.17-.83-.48a.952.952 0 0 1 .35-1.31l8.31-4.8a.952.952 0 0 1 1.31.35c.27.46.11 1.05-.35 1.31l-8.31 4.8c-.15.08-.32.13-.48.13zm17.42-10.06c-.33 0-.65-.17-.83-.48a.952.952 0 0 1 .35-1.31l8.31-4.8a.952.952 0 0 1 1.31.35c.27.46.11 1.05-.35 1.31l-8.31 4.8c-.15.09-.31.13-.48.13zm17.43-10.06c-.33 0-.65-.17-.83-.48a.952.952 0 0 1 .35-1.31l8.31-4.8a.952.952 0 0 1 1.31.35c.27.46.11 1.05-.35 1.31l-8.31 4.8c-.15.09-.32.13-.48.13zm17.43-10.05c-.33 0-.65-.17-.83-.48a.952.952 0 0 1 .35-1.31l8.31-4.8a.952.952 0 0 1 1.31.35c.27.46.11 1.05-.35 1.31l-8.31 4.8c-.15.09-.32.13-.48.13zm17.42-10.06c-.33 0-.65-.17-.83-.48a.952.952 0 0 1 .35-1.31l8.31-4.8a.952.952 0 0 1 1.31.35c.27.46.11 1.05-.35 1.31l-8.31 4.8c-.15.09-.31.13-.48.13zm17.43-10.05c-.33 0-.65-.17-.83-.48a.952.952 0 0 1 .35-1.31l8.31-4.8a.952.952 0 0 1 1.31.35c.27.46.11 1.05-.35 1.31l-8.31 4.8c-.15.08-.32.13-.48.13zm17.43-10.06c-.33 0-.65-.17-.83-.48a.952.952 0 0 1 .35-1.31l8.31-4.8a.952.952 0 0 1 1.31.35c.27.46.11 1.05-.35 1.31l-8.31 4.8c-.15.09-.32.13-.48.13zm17.42-10.06c-.33 0-.65-.17-.83-.48a.952.952 0 0 1 .35-1.31l8.31-4.8a.952.952 0 0 1 1.31.35c.27.46.11 1.05-.35 1.31l-8.31 4.8c-.15.09-.31.13-.48.13zm17.43-10.05c-.33 0-.65-.17-.83-.48a.952.952 0 0 1 .35-1.31l8.31-4.8a.954.954 0 0 1 1.31.35c.27.46.11 1.05-.35 1.31l-8.31 4.8c-.15.09-.32.13-.48.13zm17.43-10.06c-.33 0-.65-.17-.83-.48a.952.952 0 0 1 .35-1.31l8.31-4.8a.954.954 0 0 1 1.31.35c.27.46.11 1.05-.35 1.31l-8.31 4.8c-.15.09-.32.13-.48.13zm17.42-10.06c-.33 0-.65-.17-.83-.48a.952.952 0 0 1 .35-1.31l8.31-4.8a.954.954 0 0 1 1.31.35c.27.46.11 1.05-.35 1.31l-8.31 4.8c-.15.09-.31.13-.48.13zm17.43-10.05c-.33 0-.65-.17-.83-.48a.952.952 0 0 1 .35-1.31l8.31-4.8a.952.952 0 0 1 1.31.35c.27.46.11 1.05-.35 1.31l-8.31 4.8c-.15.09-.32.13-.48.13zm17.43-10.06c-.33 0-.65-.17-.83-.48a.952.952 0 0 1 .35-1.31l8.31-4.8a.952.952 0 0 1 1.31.35c.27.46.11 1.05-.35 1.31l-8.31 4.8c-.15.09-.32.13-.48.13zm17.42-10.05c-.33 0-.65-.17-.83-.48a.952.952 0 0 1 .35-1.31l8.32-4.8a.952.952 0 0 1 1.31.35c.27.46.11 1.05-.35 1.31l-8.32 4.8c-.15.08-.31.13-.48.13zm17.43-10.06c-.33 0-.65-.17-.83-.48a.952.952 0 0 1 .35-1.31l8.32-4.8a.954.954 0 0 1 1.31.35c.27.46.11 1.05-.35 1.31l-8.32 4.8c-.15.09-.32.13-.48.13zm17.43-10.06c-.33 0-.65-.17-.83-.48a.952.952 0 0 1 .35-1.31l8.32-4.8a.952.952 0 0 1 1.31.35c.27.46.11 1.05-.35 1.31l-8.32 4.8c-.15.09-.32.13-.48.13zm17.42-10.05c-.33 0-.65-.17-.83-.48a.952.952 0 0 1 .35-1.31l8.32-4.8a.952.952 0 0 1 1.31.35c.27.46.11 1.05-.35 1.31l-8.32 4.8c-.15.09-.31.13-.48.13zm17.43-10.06c-.33 0-.65-.17-.83-.48a.952.952 0 0 1 .35-1.31l8.31-4.8a.963.963 0 0 1 1.31.35c.27.46.11 1.05-.35 1.31l-8.31 4.8c-.15.09-.32.13-.48.13zm17.43-10.06c-.33 0-.65-.17-.83-.48a.952.952 0 0 1 .35-1.31l8.31-4.8a.963.963 0 0 1 1.31.35c.27.46.11 1.05-.35 1.31l-8.31 4.8c-.15.09-.32.13-.48.13zm17.42-10.05c-.33 0-.65-.17-.83-.48a.952.952 0 0 1 .35-1.31l8.31-4.8c.46-.26 1.04-.11 1.31.35s.11 1.05-.35 1.31l-8.31 4.8c-.15.09-.31.13-.48.13zm17.43-10.06c-.33 0-.65-.17-.83-.48a.952.952 0 0 1 .35-1.31l8.31-4.8c.46-.26 1.04-.11 1.31.35s.11 1.05-.35 1.31l-8.31 4.8c-.15.09-.32.13-.48.13zm17.43-10.05c-.33 0-.65-.17-.83-.48a.952.952 0 0 1 .35-1.31l8.31-4.8a.954.954 0 0 1 1.31.35c.27.46.11 1.05-.35 1.31l-8.31 4.8c-.15.08-.32.13-.48.13z"/><path fill="#FFF" d="M135.85 120.7c-5.52 0-10 4.48-10 10v222c0 5.52 4.48 10 10 10h290c5.52 0 10-4.48 10-10v-222c0-5.52-4.48-10-10-10h-290z"/><path fill="#7989A6" d="M425.85 364.7h-290c-6.62 0-12-5.38-12-12v-222c0-6.62 5.38-12 12-12h290c6.62 0 12 5.38 12 12v222c0 6.62-5.39 12-12 12zm-290-242c-4.41 0-8 3.59-8 8v222c0 4.41 3.59 8 8 8h290c4.41 0 8-3.59 8-8v-222c0-4.41-3.59-8-8-8h-290z"/><path fill="#BDC9DE" d="M135.85 122.7h290c4.42 0 8 3.58 8 8v25h-306v-25c0-4.42 3.58-8 8-8z"/><path fill="#FFF" d="M173.85 141.7c2.21 0 4-1.79 4-4s-1.79-4-4-4-4 1.79-4 4 1.79 4 4 4zm-16 0c2.21 0 4-1.79 4-4s-1.79-4-4-4-4 1.79-4 4 1.79 4 4 4zm-16 0c2.21 0 4-1.79 4-4s-1.79-4-4-4-4 1.79-4 4 1.79 4 4 4z"/><path fill="#9DADFC" d="M335.85 189.7h64c1.1 0 2 .9 2 2v24c0 1.1-.9 2-2 2h-64c-1.1 0-2-.9-2-2v-24a2 2 0 0 1 2-2z"/><path fill="#130C5C" d="M406.85 223.7h-68v-27h68v27zm-64-4h60v-19h-60v19z"/><path fill="#CED9EB" d="M337.85 241.7h32c1.1 0 2 .9 2 2s-.9 2-2 2h-32a2 2 0 1 1 0-4zm0 10h64c1.1 0 2 .9 2 2s-.9 2-2 2h-64a2 2 0 1 1 0-4zm0 10h42c1.1 0 2 .9 2 2s-.9 2-2 2h-42a2 2 0 1 1 0-4zm0 10h61c1.1 0 2 .9 2 2s-.9 2-2 2h-61a2 2 0 1 1 0-4zm0 35h77c1.1 0 2 .9 2 2v35c0 1.1-.9 2-2 2h-77c-1.1 0-2-.9-2-2v-35a2 2 0 0 1 2-2zm-105-2h42c1.1 0 2 .9 2 2s-.9 2-2 2h-42a2 2 0 1 1 0-4zm0 10h82c1.1 0 2 .9 2 2s-.9 2-2 2h-82a2 2 0 1 1 0-4zm0 10h54c1.1 0 2 .9 2 2s-.9 2-2 2h-54a2 2 0 1 1 0-4zm0 10h78c1.1 0 2 .9 2 2s-.9 2-2 2h-78a2 2 0 1 1 0-4zm0-143h42c1.1 0 2 .9 2 2s-.9 2-2 2h-42a2 2 0 1 1 0-4zm0 10h82c1.1 0 2 .9 2 2s-.9 2-2 2h-82a2 2 0 1 1 0-4zm0 10h54c1.1 0 2 .9 2 2s-.9 2-2 2h-54a2 2 0 1 1 0-4zm0 10h78c1.1 0 2 .9 2 2s-.9 2-2 2h-78a2 2 0 1 1 0-4zm-1 20h90c1.1 0 2 .9 2 2v43c0 1.1-.9 2-2 2h-90c-1.1 0-2-.9-2-2v-43a2 2 0 0 1 2-2z"/><path fill="#9DADFC" d="M149.85 318.7h64c1.1 0 2 .9 2 2v23c0 1.1-.9 2-2 2h-64c-1.1 0-2-.9-2-2v-23a2 2 0 0 1 2-2z"/><path fill="#130C5C" d="M210.85 338.7h-68v-27h68v27zm-64-4h60v-19h-60v19z"/><path fill="#CED9EB" d="M144.85 241.7h32c1.1 0 2 .9 2 2s-.9 2-2 2h-32a2 2 0 1 1 0-4zm0 10h64c1.1 0 2 .9 2 2s-.9 2-2 2h-64a2 2 0 1 1 0-4zm0 10h42c1.1 0 2 .9 2 2s-.9 2-2 2h-42a2 2 0 1 1 0-4zm0 10h61c1.1 0 2 .9 2 2s-.9 2-2 2h-61a2 2 0 1 1 0-4zm0-82h64c1.1 0 2 .9 2 2v35c0 1.1-.9 2-2 2h-64c-1.1 0-2-.9-2-2v-35a2 2 0 0 1 2-2z"/><path fill="#BDC9DE" d="M133.85 177.7h306v2h-306z"/><path fill="#C7D2E8" d="M431.85 172.7h-12c-1.1 0-2-.9-2-2v-4c0-1.1.9-2 2-2h12c1.1 0 2 .9 2 2v4a2 2 0 0 1-2 2zm-12-6v4h12v-4h-12zm-12 6h-34c-1.1 0-2-.9-2-2v-4c0-1.1.9-2 2-2h34c1.1 0 2 .9 2 2v4a2 2 0 0 1-2 2zm-34-6v4h34v-4h-34zm-12 6h-22c-1.1 0-2-.9-2-2v-4c0-1.1.9-2 2-2h22c1.1 0 2 .9 2 2v4a2 2 0 0 1-2 2zm-22-6v4h22v-4h-22zm-12 6h-14c-1.1 0-2-.9-2-2v-4c0-1.1.9-2 2-2h14c1.1 0 2 .9 2 2v4a2 2 0 0 1-2 2zm-14-6v4h14v-4h-14z"/><path fill="#7989A6" d="M244.85 251.7h64c.55 0 1 .45 1 1v25c0 .55-.45 1-1 1h-64c-.55 0-1-.45-1-1v-25c0-.55.44-1 1-1z"/><g fill="#FFF"><path d="M572.76 172.75v88.69c0 6.12-4.96 11.08-11.08 11.08h-173.6c-6.12 0-11.08-4.96-11.08-11.08v-46.26l-10.16-10.52L377 194.14v-44.42c0-6.12 4.96-11.08 11.08-11.08h149.6c.49-17.93 15.18-32.32 33.23-32.32 18.36 0 33.24 14.88 33.24 33.24 0 17.74-13.89 32.23-31.39 33.19z"/><path d="M561.68 274.53h-173.6c-7.21 0-13.08-5.87-13.08-13.08v-45.46l-9.6-9.94c-.75-.77-.75-2 0-2.78l9.6-9.94v-43.61c0-7.21 5.87-13.08 13.08-13.08h147.7c1.48-18.27 16.55-32.32 35.12-32.32 19.43 0 35.24 15.81 35.24 35.24 0 18.07-13.64 33.11-31.39 35.03v86.85c.01 7.22-5.86 13.09-13.07 13.09zm-192.05-69.87l8.82 9.13c.36.37.56.87.56 1.39v46.27c0 5.01 4.07 9.08 9.08 9.08h173.59c5.01 0 9.08-4.07 9.08-9.08v-88.7c0-1.06.83-1.94 1.89-2 16.54-.91 29.5-14.61 29.5-31.19 0-17.23-14.01-31.24-31.24-31.24-17.05 0-30.77 13.34-31.23 30.37a2.01 2.01 0 0 1-2 1.95h-149.6c-5.01 0-9.08 4.07-9.08 9.08v44.42c0 .52-.2 1.02-.56 1.39l-8.81 9.13z"/></g><path fill="#C7D2E8" d="M378.854 252.216h192.06v2h-192.06z"/><path fill="#F4F6FA" d="M378.854 155.256h192.06v2h-192.06zm0 19.39h192.06v2h-192.06zm0 19.39h192.06v2h-192.06zm0 19.4h192.06v2h-192.06zm0 19.39h192.06v2h-192.06z"/><path fill="#7249BA" d="M403.938 192.195h4.31c1.1 0 2 .9 2 2v56.02c0 1.1-.9 2-2 2h-4.31c-1.1 0-2-.9-2-2v-56.02c0-1.11.89-2 2-2z"/><path fill="#9DADFC" d="M417.788 149.715h4.31c1.1 0 2 .9 2 2v98.5c0 1.1-.9 2-2 2h-4.31c-1.1 0-2-.9-2-2v-98.5a2 2 0 0 1 2-2z"/><path fill="#851D83" d="M431.638 210.665h4.31c1.1 0 2 .9 2 2v37.55c0 1.1-.9 2-2 2h-4.31c-1.1 0-2-.9-2-2v-37.55c0-1.11.89-2 2-2z"/><path fill="#C7D2E8" d="M414.858 260.525h11.08c1.02 0 1.85.83 1.85 1.85s-.83 1.85-1.85 1.85h-11.08c-1.02 0-1.85-.83-1.85-1.85.01-1.03.83-1.85 1.85-1.85z"/><path fill="#7249BA" d="M459.34 159.872h4.31c1.1 0 2 .9 2 2v88.34c0 1.1-.9 2-2 2h-4.31c-1.1 0-2-.9-2-2v-88.34a2 2 0 0 1 2-2z"/><path fill="#9DADFC" d="M473.19 203.272h4.31c1.1 0 2 .9 2 2v44.94c0 1.1-.9 2-2 2h-4.31c-1.1 0-2-.9-2-2v-44.94a2 2 0 0 1 2-2z"/><path fill="#851D83" d="M487.04 182.962h4.31c1.1 0 2 .9 2 2v65.25c0 1.1-.9 2-2 2h-4.31c-1.1 0-2-.9-2-2v-65.25c0-1.11.89-2 2-2z"/><path fill="#C7D2E8" d="M470.26 260.522h11.08c1.02 0 1.85.83 1.85 1.85s-.83 1.85-1.85 1.85h-11.08c-1.02 0-1.85-.83-1.85-1.85.01-1.02.83-1.85 1.85-1.85z"/><path fill="#7249BA" d="M514.743 167.26h4.31c1.1 0 2 .9 2 2v80.95c0 1.1-.9 2-2 2h-4.31c-1.1 0-2-.9-2-2v-80.95a2 2 0 0 1 2-2z"/><path fill="#9DADFC" d="M528.593 187.58h4.31c1.1 0 2 .9 2 2v60.64c0 1.1-.9 2-2 2h-4.31c-1.1 0-2-.9-2-2v-60.64c0-1.11.89-2 2-2z"/><path fill="#851D83" d="M542.443 173.73h4.31c1.1 0 2 .9 2 2v74.49c0 1.1-.9 2-2 2h-4.31c-1.1 0-2-.9-2-2v-74.49c0-1.11.89-2 2-2z"/><path fill="#C7D2E8" d="M525.663 260.52h11.08c1.02 0 1.85.83 1.85 1.85s-.83 1.85-1.85 1.85h-11.08c-1.02 0-1.85-.83-1.85-1.85.01-1.02.83-1.85 1.85-1.85z"/><path fill="#32425E" d="M561.68 274.027h-173.6c-6.94 0-12.58-5.64-12.58-12.58v-45.66l-9.74-10.08c-.56-.58-.56-1.5 0-2.08l9.74-10.08v-43.83c0-6.94 5.64-12.58 12.58-12.58h149.43c.83 0 1.5.67 1.5 1.5s-.67 1.5-1.5 1.5H388.08c-5.28 0-9.58 4.3-9.58 9.58v44.42c0 .39-.15.76-.42 1.04l-9.15 9.48 9.15 9.48c.27.28.42.65.42 1.04v46.27c0 5.28 4.3 9.58 9.58 9.58h173.59c5.28 0 9.58-4.3 9.58-9.58v-88.49c0-.83.67-1.5 1.5-1.5s1.5.67 1.5 1.5v88.49c.01 6.94-5.63 12.58-12.57 12.58z"/><g fill="#FFF"><path d="M25.53 304.46v67.77c0 4.68 3.74 8.47 8.36 8.47h130.94c4.62 0 8.36-3.79 8.36-8.47v-35.35l7.66-8.04-7.66-8.04v-33.94c0-4.68-3.74-8.47-8.36-8.47H51.99c-.37-13.7-11.45-24.69-25.06-24.69-13.85 0-25.07 11.37-25.07 25.4-.01 13.56 10.47 24.63 23.67 25.36z"/><path d="M164.83 382.7H33.89c-5.71 0-10.36-4.7-10.36-10.47v-65.94C10.1 304.59-.15 293-.15 279.1c0-15.11 12.15-27.4 27.07-27.4 14.13 0 25.61 10.7 26.95 24.69h110.96c5.71 0 10.36 4.7 10.36 10.47V320l7.11 7.46c.74.77.74 1.99 0 2.76l-7.11 7.46v34.55c0 5.78-4.65 10.47-10.36 10.47zm-137.91-127c-12.72 0-23.07 10.5-23.07 23.4 0 12.42 9.57 22.69 21.79 23.36 1.06.06 1.89.94 1.89 2v67.77c0 3.57 2.85 6.47 6.36 6.47h130.94c3.51 0 6.36-2.9 6.36-6.47v-35.35c0-.51.2-1.01.55-1.38l6.35-6.66-6.35-6.66c-.35-.37-.55-.87-.55-1.38v-33.94c0-3.57-2.85-6.47-6.36-6.47H51.99c-1.08 0-1.97-.86-2-1.95-.35-12.74-10.48-22.74-23.07-22.74z"/></g><path fill="#FFF" d="M171.69 292.7H25.84v75h145.85v-29.96c0-.52.2-1.01.56-1.39l6.59-6.85-6.59-6.85c-.36-.37-.56-.87-.56-1.39V292.7z"/><path fill="#FFF" d="M26.91 306.89v67.51c0 4.67 3.73 8.45 8.34 8.45h130.62c4.6 0 8.34-3.78 8.34-8.45v-35.3l7.64-8.03-7.64-8.03v-33.89c0-4.67-3.73-8.45-8.34-8.45H53.43"/><path fill="#32425E" d="M165.87 384.36H35.25c-5.42 0-9.84-4.47-9.84-9.95V306.9c0-.83.67-1.5 1.5-1.5s1.5.67 1.5 1.5v67.5c0 3.83 3.07 6.95 6.84 6.95h130.62c3.77 0 6.84-3.12 6.84-6.95v-35.3c0-.38.15-.76.41-1.03l6.66-6.99-6.66-6.99c-.27-.28-.41-.65-.41-1.03v-33.89c0-3.83-3.07-6.95-6.84-6.95H53.43c-.83 0-1.5-.67-1.5-1.5s.67-1.5 1.5-1.5h112.44c5.42 0 9.84 4.47 9.84 9.95v33.28l7.23 7.59c.55.58.55 1.49 0 2.07l-7.23 7.59v34.7c-.01 5.49-4.42 9.96-9.84 9.96z"/><path fill="#AD419F" d="M99.53 321.22l-.24-.04-42.69-7 .49-2.96 42.45 6.96 41.08-6.26.45 2.97z"/><path fill="#7249BA" d="M140.49 359.16l-41.05-9.94-42.43 4.59-.32-2.98 42.95-4.65 41.56 10.07z"/><path fill="#9DADFC" d="M140.35 347.12l-41.09-14.53-42.46-1.39.1-3 42.92 1.4 41.53 14.69z"/><path fill="#FFF" d="M140.35 315.72c-1.44 0-2.62-1.22-2.62-2.76s1.19-2.76 2.62-2.76 2.62 1.22 2.62 2.76-1.18 2.76-2.62 2.76z"/><path fill="#AD419F" d="M140.35 317.22c-2.27 0-4.12-1.91-4.12-4.26 0-2.35 1.85-4.26 4.12-4.26s4.12 1.91 4.12 4.26c0 2.35-1.85 4.26-4.12 4.26zm0-5.52c-.62 0-1.12.56-1.12 1.26 0 .69.5 1.26 1.12 1.26s1.12-.56 1.12-1.26c0-.69-.5-1.26-1.12-1.26z"/><path fill="#FFF" d="M140.35 359.72c-1.44 0-2.62-1.22-2.62-2.76s1.18-2.76 2.62-2.76 2.62 1.22 2.62 2.76-1.18 2.76-2.62 2.76z"/><path fill="#7249BA" d="M140.35 361.22c-2.27 0-4.12-1.91-4.12-4.26 0-2.35 1.85-4.26 4.12-4.26s4.12 1.91 4.12 4.26c0 2.35-1.85 4.26-4.12 4.26zm0-5.52c-.62 0-1.12.56-1.12 1.26 0 .69.5 1.26 1.12 1.26s1.12-.56 1.12-1.26c0-.69-.5-1.26-1.12-1.26z"/><path fill="#FFF" d="M140.35 349.07c-1.44 0-2.62-1.22-2.62-2.76s1.19-2.76 2.62-2.76 2.62 1.22 2.62 2.76-1.18 2.76-2.62 2.76z"/><path fill="#9DADFC" d="M140.35 350.57c-2.27 0-4.12-1.91-4.12-4.26 0-2.35 1.85-4.26 4.12-4.26s4.12 1.91 4.12 4.26c0 2.35-1.85 4.26-4.12 4.26zm0-5.51c-.62 0-1.12.56-1.12 1.26 0 .69.5 1.26 1.12 1.26s1.12-.56 1.12-1.26-.5-1.26-1.12-1.26z"/><path fill="#FFF" d="M99.35 321.77c-1.44 0-2.62-1.23-2.62-2.79 0-1.55 1.19-2.79 2.62-2.79s2.62 1.23 2.62 2.79-1.19 2.79-2.62 2.79z"/><path fill="#AD419F" d="M99.35 323.27c-2.27 0-4.12-1.92-4.12-4.29s1.85-4.29 4.12-4.29 4.12 1.92 4.12 4.29-1.85 4.29-4.12 4.29zm0-5.57c-.62 0-1.12.58-1.12 1.29s.5 1.29 1.12 1.29 1.12-.58 1.12-1.29-.5-1.29-1.12-1.29z"/><path fill="#FFF" d="M99.35 350.35c-1.44 0-2.62-1.23-2.62-2.79s1.19-2.79 2.62-2.79 2.62 1.23 2.62 2.79-1.19 2.79-2.62 2.79z"/><path fill="#7249BA" d="M99.35 351.85c-2.27 0-4.12-1.92-4.12-4.29s1.85-4.29 4.12-4.29 4.12 1.92 4.12 4.29-1.85 4.29-4.12 4.29zm0-5.58c-.62 0-1.12.58-1.12 1.29s.5 1.29 1.12 1.29 1.12-.58 1.12-1.29-.5-1.29-1.12-1.29z"/><path fill="#FFF" d="M99.35 333.92c-1.44 0-2.62-1.23-2.62-2.79s1.19-2.79 2.62-2.79 2.62 1.23 2.62 2.79-1.19 2.79-2.62 2.79z"/><path fill="#9DADFC" d="M99.35 335.42c-2.27 0-4.12-1.92-4.12-4.29s1.85-4.29 4.12-4.29 4.12 1.92 4.12 4.29-1.85 4.29-4.12 4.29zm0-5.57c-.62 0-1.12.58-1.12 1.29s.5 1.29 1.12 1.29 1.12-.58 1.12-1.29-.5-1.29-1.12-1.29z"/><path fill="#FFF" d="M58.35 314.63c-1.44 0-2.62-1.21-2.62-2.71 0-1.51 1.18-2.71 2.62-2.71s2.62 1.21 2.62 2.71-1.18 2.71-2.62 2.71z"/><path fill="#AD419F" d="M58.35 316.13c-2.27 0-4.12-1.89-4.12-4.21s1.85-4.21 4.12-4.21 4.12 1.89 4.12 4.21-1.85 4.21-4.12 4.21zm0-5.43c-.62 0-1.12.54-1.12 1.21s.5 1.21 1.12 1.21 1.12-.54 1.12-1.21-.5-1.21-1.12-1.21z"/><path fill="#FFF" d="M58.35 353.95c-1.44 0-2.62-1.21-2.62-2.71 0-1.51 1.18-2.71 2.62-2.71s2.62 1.21 2.62 2.71-1.18 2.71-2.62 2.71z"/><path fill="#7249BA" d="M58.35 355.45c-2.27 0-4.12-1.89-4.12-4.21s1.85-4.21 4.12-4.21 4.12 1.89 4.12 4.21-1.85 4.21-4.12 4.21zm0-5.43c-.62 0-1.12.54-1.12 1.21s.5 1.21 1.12 1.21 1.12-.54 1.12-1.21-.5-1.21-1.12-1.21z"/><path fill="#FFF" d="M58.35 332.18c-1.44 0-2.62-1.21-2.62-2.71s1.18-2.71 2.62-2.71 2.62 1.21 2.62 2.71-1.18 2.71-2.62 2.71z"/><path fill="#9DADFC" d="M58.35 333.68c-2.27 0-4.12-1.89-4.12-4.21s1.85-4.21 4.12-4.21 4.12 1.89 4.12 4.21-1.85 4.21-4.12 4.21zm0-5.42c-.62 0-1.12.54-1.12 1.21s.5 1.21 1.12 1.21 1.12-.54 1.12-1.21-.5-1.21-1.12-1.21z"/><path fill="#AD419F" d="M34.85 303.7c13.25 0 24-10.75 24-24s-10.75-24-24-24-24 10.75-24 24 10.74 24 24 24z"/><path fill="#FFF" d="M35.07 278.4c-4 0-6.67-3.92-6.67-8.01s2.67-6.68 6.67-6.68 6.67 2.58 6.67 6.68-2.67 8.01-6.67 8.01zm11.78 9.29c0 6.68-24 6.68-24 0 0-5.34 2.67-9.35 5.33-9.35 1.33 0 2.67 2.67 6.67 2.67s5.33-2.67 6.67-2.67c2.66 0 5.33 4.01 5.33 9.35z"/><path fill="#AD419F" d="M566.85 171.7c14.91 0 27-12.09 27-27s-12.09-27-27-27-27 12.09-27 27 12.08 27 27 27z"/><path fill="#FFF" d="M567.6 143.42c-4.5 0-7.5-4.46-7.5-9.12s3-7.6 7.5-7.6 7.5 2.94 7.5 7.6-3 9.12-7.5 9.12zM580.85 154c0 7.6-27 7.6-27 0 0-6.08 3-10.64 6-10.64 1.5 0 3 3.04 7.5 3.04s6-3.04 7.5-3.04c3 0 6 4.56 6 10.64z"/></svg>