<?xml version="1.0" encoding="utf-8"?>
<!-- Generator: Adobe Illustrator 23.0.1, SVG Export Plug-In . SVG Version: 6.00 Build 0)  -->
<svg version="1.1" id="Layer_1" xmlns="http://www.w3.org/2000/svg" xmlns:xlink="http://www.w3.org/1999/xlink" x="0px" y="0px"
	 viewBox="0 0 471.8 582.8" style="enable-background:new 0 0 471.8 582.8;" xml:space="preserve">
<style type="text/css">
	.st0{opacity:0.18;fill:#FC005E;enable-background:new    ;}
	.st1{fill:url(#SVGID_1_);}
	.st2{fill:#E80016;}
	.st3{fill:url(#SVGID_2_);}
	.st4{fill:url(#SVGID_3_);}
	.st5{fill:url(#SVGID_4_);}
	.st6{fill:#3F3D56;}
	.st7{fill:url(#SVGID_5_);}
	.st8{fill:url(#SVGID_6_);}
	.st9{fill:url(#SVGID_7_);}
	.st10{fill:url(#SVGID_8_);}
	.st11{fill:url(#SVGID_9_);}
	.st12{fill:url(#SVGID_10_);}
	.st13{fill:url(#SVGID_11_);}
	.st14{fill:url(#SVGID_12_);}
	.st15{fill:#FC005E;}
	.st16{fill:url(#SVGID_13_);}
	.st17{fill:url(#SVGID_14_);}
	.st18{fill:none;stroke:#FFFFFF;stroke-width:1.1;stroke-miterlimit:10;}
	.st19{fill:none;stroke:#FFFFFF;stroke-width:0.96;stroke-miterlimit:10;}
	.st20{fill:url(#SVGID_15_);}
	.st21{fill:url(#SVGID_16_);}
	.st22{fill:url(#SVGID_17_);}
	.st23{fill:url(#SVGID_18_);}
	.st24{fill:url(#SVGID_19_);}
	.st25{fill:url(#SVGID_20_);}
	.st26{fill:url(#SVGID_21_);}
	.st27{fill:url(#SVGID_22_);}
	.st28{fill:url(#SVGID_23_);}
	.st29{fill:url(#SVGID_24_);}
</style>
<title>dance the music</title>
<path class="st0" d="M152.9,64.3c-16.2,29.5-22.2,65.5-46.6,88.8c-12.4,11.9-28.4,19.2-42.8,28.5C33.7,200.8,9.6,230.4,2.2,265
	s4.1,74,32.3,95.2c24.2,18.2,57.6,22.1,79.8,42.8c41.2,38.3,28,118.3,77.1,145.8c24.6,13.8,56.5,7.3,79.9-8.7s39.8-39.8,55.6-63.1
	c28.2-41.2,56.3-82.3,84.5-123.5c13.2-19.2,26.5-38.9,31.5-61.6c6.3-29.4-3-61.6-24.1-82.9c-28.2-28.4-75.4-39-90.6-76
	c-7.5-18.5-4.9-39.4-3.8-59.4C330.4-38.9,190.9-4.9,152.9,64.3z"/>
<linearGradient id="SVGID_1_" gradientUnits="userSpaceOnUse" x1="409.11" y1="296.7491" x2="425.87" y2="296.7491" gradientTransform="matrix(1 0 0 1 -175.93 -246.95)">
	<stop  offset="1.000000e-02" style="stop-color:#000000"/>
	<stop  offset="1" style="stop-color:#000000;stop-opacity:0"/>
</linearGradient>
<path class="st1" d="M237.8,40.4c1.6,0.5,12.2,18.9,12.2,18.9l-4.6-0.9c0,0-3-8.4-12.2-8.4C233.1,50.2,234.1,39.2,237.8,40.4z"/>
<path class="st2" d="M376.3,481.5c0,0-25,6.2-29.4-4.1c-0.3-0.6-0.4-1.1-0.5-1.7c-2.3-12.7,4.6-67.9,4.6-67.9s-58.7-40.3-84-33.4
	c-21.4,5.8-126.8,114.6-159.5,148.7c-5.9,6.1-14.9,7.9-22.7,4.5c-8.3-3.7-12.1-13.5-8.4-21.8c0.4-0.9,0.9-1.8,1.4-2.6l109.2-157.6
	l6.1-8.8l99.1-21c0,0,102.4,42.6,112.8,59.9S376.3,481.5,376.3,481.5z"/>
<path class="st2" d="M300.1,297.3c-0.1,9.6-1.4,19.6-6.6,27.7c-8.9,14-26.7,19-43,22.8c-10.2,2.4-20.6,4.8-31.1,3.8
	s-21.1-5.9-26.2-15c0,0,0-0.1-0.1-0.1c-3.2-5.7-3.9-12.4-4.6-18.9c-3.5-32-7-64.6-4.5-96.6c0.6-8.5,1.7-16.9,3.3-25.2
	c0.5-2.6,1-5.1,1.6-7.6c2.5-10.9,8.1-28.6,17.5-39.4c5.1-5.9,11.3-9.7,18.6-9.4c9.2,0.6,18.5,1.4,27.7,2.6c6.7,1,13.8,2.2,19,6.7
	c8.7,7.4,8.5,20.7,9.1,32.2C282.8,220.3,300.4,257.9,300.1,297.3z"/>
<linearGradient id="SVGID_2_" gradientUnits="userSpaceOnUse" x1="391.4451" y1="382.9494" x2="431.2151" y2="382.9494" gradientTransform="matrix(1 0 0 1 -175.93 -246.95)">
	<stop  offset="0" style="stop-color:#ECC4D7"/>
	<stop  offset="0.42" style="stop-color:#EFD4D1"/>
	<stop  offset="1" style="stop-color:#F2EAC9"/>
</linearGradient>
<path class="st3" d="M221.2,141.9c0.2,5.1,19.1,16.8,23,14.8c6.5,0.8,8.6-0.9,9.8-5.6c1.5-6.6,2.1-13.8-0.9-20
	c-2.3-4.9-6.7-8.8-11.6-11.2c-5.1-2.5-21-8.3-25.2-1.9C213.1,122.9,221.1,135.7,221.2,141.9z"/>
<linearGradient id="SVGID_3_" gradientUnits="userSpaceOnUse" x1="418.96" y1="316.62" x2="442.17" y2="316.62" gradientTransform="matrix(1 0 0 1 -175.93 -246.95)">
	<stop  offset="1.000000e-02" style="stop-color:#000000"/>
	<stop  offset="1" style="stop-color:#000000;stop-opacity:0"/>
</linearGradient>
<ellipse class="st4" cx="245.8" cy="69.7" rx="14.7" ry="16.1"/>
<linearGradient id="SVGID_4_" gradientUnits="userSpaceOnUse" x1="372.15" y1="335.3645" x2="444.51" y2="335.3645" gradientTransform="matrix(1 0 0 1 -175.93 -246.95)">
	<stop  offset="0" style="stop-color:#ECC4D7"/>
	<stop  offset="0.42" style="stop-color:#EFD4D1"/>
	<stop  offset="1" style="stop-color:#F2EAC9"/>
</linearGradient>
<path class="st5" d="M244.8,55.8c1.7,2.2,3.1,4.5,4.2,7c5.1,10.3,10.3,20.5,15.4,30.8c2.4,4.9,5,10.3,4,15.8
	c-0.6,3.1-2.1,5.9-4.3,8.1c-3.2,3.7-7.4,6.6-12.1,8.2c-7.1,2.5-15.2,2.1-22.5-0.3s-13.7-6.6-19.6-11.4c-4.7-3.8-9.2-8.2-11.8-13.8
	c-2.2-4.8-2.5-23.3-1.3-27.1c3.3-11.1,11.6-16.1,21.6-20.3C227.6,49.1,237.4,46.7,244.8,55.8z"/>
<path class="st6" d="M220.4,19.3c3.9-3.5,8.7-5.9,13.8-6.8c4.8-0.9,10.1-0.4,14.2,2.3s6.9,7.8,5.8,12.6c-1.8,8.6-13,11.4-18,18.7
	c-2.1,3-3,6.6-4.5,9.9c-3.2,6.3-10.2,11.4-17.2,9.9c-3.7-0.9-8-3.3-11-0.9c-2.3,1.9-0.8,5.5-1.6,8.3c-7.5,25.4,12.7,38.4,12,40
	c-1.2,3-27.1,3.7-30.2,3.2s-5.8-2.6-8-4.9c-6.2-6.2-10.4-15.8-7.3-24.1c1.2-3.3,3.4-6.2,3.5-9.8c0.1-3.2-1.6-6-2.7-9
	c-4.4-11.3,0.8-25.4,11.3-31.3c3.2-1.7,6.7-3,10.2-4c5.7-1.8,11.4-3.2,17.1-4.8C213.2,26.8,216.3,23,220.4,19.3z"/>
<linearGradient id="SVGID_5_" gradientUnits="userSpaceOnUse" x1="381.15" y1="356.2245" x2="398.84" y2="356.2245" gradientTransform="matrix(1 0 0 1 -175.93 -246.95)">
	<stop  offset="1.000000e-02" style="stop-color:#000000"/>
	<stop  offset="1" style="stop-color:#000000;stop-opacity:0"/>
</linearGradient>
<path class="st7" d="M218.6,105.4c2.6,9.4-1.5,18.7-9.3,20.9s-16.1-3.7-18.7-13.1s1.5-18.7,9.3-20.9S216,95.9,218.6,105.4z"/>
<linearGradient id="SVGID_6_" gradientUnits="userSpaceOnUse" x1="351.7951" y1="306.82" x2="382.68" y2="306.82" gradientTransform="matrix(1 0 0 1 -175.93 -246.95)">
	<stop  offset="1.000000e-02" style="stop-color:#000000"/>
	<stop  offset="1" style="stop-color:#000000;stop-opacity:0"/>
</linearGradient>
<path class="st8" d="M206.8,99.2l-13.7,3.4c-38.6-65.4-0.6-83.9,2.6-85.4c0.1,0,0.1-0.1,0.2-0.1c-2.7,1.9-5,4.3-6.7,7.2
	C175,48.9,206.8,99.2,206.8,99.2z"/>
<linearGradient id="SVGID_7_" gradientUnits="userSpaceOnUse" x1="365.11" y1="269.2561" x2="393.17" y2="269.2561" gradientTransform="matrix(1 0 0 1 -175.93 -246.95)">
	<stop  offset="1.000000e-02" style="stop-color:#000000"/>
	<stop  offset="1" style="stop-color:#000000;stop-opacity:0"/>
</linearGradient>
<path class="st9" d="M217.3,23.3l-1.4,0.8l-8.1,4.4c-9.1-5.5-15.1-5.3-18.7-4.1c1-1.7,2.2-3.2,3.5-4.5c1-1,2.1-1.9,3.3-2.7l0,0
	C205.1,12.8,217.3,23.3,217.3,23.3z"/>
<linearGradient id="SVGID_8_" gradientUnits="userSpaceOnUse" x1="365.11" y1="269.7513" x2="391.77" y2="269.7513" gradientTransform="matrix(1 0 0 1 -175.93 -246.95)">
	<stop  offset="1.000000e-02" style="stop-color:#000000"/>
	<stop  offset="1" style="stop-color:#000000;stop-opacity:0"/>
</linearGradient>
<path class="st10" d="M215.8,24.1l-8.1,4.4c-9.1-5.5-15.1-5.3-18.7-4.1c1-1.7,2.2-3.2,3.5-4.5c0.6-0.5,1.4-1.2,2.2-1.8l0,0
	C203.1,14.2,213.9,22.5,215.8,24.1z"/>
<path class="st2" d="M206.2,161c1.6,3,0.5,6.7-0.5,9.9c-2,5.7-5.9,18.6-10.4,30.1c-3.5,8.9-7.4,16.9-11.2,20.1
	c-0.2,0.2-0.4,0.3-0.6,0.5c-7.1-21.9-20-18.8-33.6-21.8c-12.2-2.6-40.2-5.1-52.5-7.2c-19.7-3.3-30.2-1.5-29.7-18.7
	c0.3-12.8,10.7-23.7,22.3-29.2c11.6-5.6,24.6-7.3,37.1-10.6c12.9-3.4,24.8-12.5,37.5-15.7c10.5-2.5,17.2,4.6,22,15.1
	c0.7,1.2,1,2.6,0.8,3.9c-0.5,1.3-1.4,2.5-2.5,3.3c-16.5,14.3-24.9,11.7-45.6,18.4c17.7-1.9,41.6-8.8,67.1-10.2c3-0.2,6-0.3,9-0.3
	C217.9,148.5,205.1,158.8,206.2,161z"/>
<path class="st2" d="M425.3,63.9c-0.3,2-1.8,3.5-3.3,4.9c-14.7,14.2-29.5,28.5-44.2,42.6c-24.1,23.3-48.2,46.6-72.3,69.9
	c-9.3,9-20.2,18.6-33.2,18.4c-2.7-11.9-9.9-33.2-6.9-45.2c0.5-2-3.3-8.1-2-9.8c0.3-0.4,10.3-1.3,13.3-3.2
	c6.1-3.9,13.3-7.1,18.4-10.4c25.6-16.8,49.5-36.1,71.2-57.7c10.8-10.8,21.9-22.7,35.3-29.5c1.9-0.9,3.8-1.8,5.7-2.5
	c2.3-0.9,4.7-1.6,7.1-2.1c3.2,6.5,6.4,12.9,9.5,19.4C424.8,60.2,425.6,62,425.3,63.9z"/>
<linearGradient id="SVGID_9_" gradientUnits="userSpaceOnUse" x1="586.38" y1="278.8807" x2="647.5933" y2="278.8807" gradientTransform="matrix(1 0 0 1 -175.93 -246.95)">
	<stop  offset="0" style="stop-color:#ECC4D7"/>
	<stop  offset="0.42" style="stop-color:#EFD4D1"/>
	<stop  offset="1" style="stop-color:#F2EAC9"/>
</linearGradient>
<path class="st11" d="M420.1,31.5c0.7-6.5,0.2-13.4,3-19.2c0.7-1.4,2.1-3.1,3.6-2.6c1.3,0.3,1.9,2,2.2,3.3c1,5.5,0.1,11.5,2.8,16.4
	c6.4-8.9,12.6-17.9,19-26.7c1.1-1.5,2.6-3.2,4.4-2.6c-0.3,8.3-4.7,15.9-8.9,23c1.8-1.8,4.9-0.5,6,1.6s0.4,4.8-0.7,7
	c2.1-1.4,4.9-0.9,6.4,1.1c1.3,1.9,1,4.4-0.7,6l14.6-4.3c0.1,2.6-2.4,4.4-4.7,5.7c-16.4,9.5-33.1,19.2-51.5,23.6
	c-3.4-5.4-7.6-11.6-3-16.7C416.9,42.3,419.4,38.4,420.1,31.5z"/>
<linearGradient id="SVGID_10_" gradientUnits="userSpaceOnUse" x1="608.53" y1="281.5531" x2="634.25" y2="281.5531" gradientTransform="matrix(1 0 0 1 -175.93 -246.95)">
	<stop  offset="0" style="stop-color:#ECC4D7"/>
	<stop  offset="0.42" style="stop-color:#EFD4D1"/>
	<stop  offset="1" style="stop-color:#F2EAC9"/>
</linearGradient>
<path class="st12" d="M432.8,34.9c-0.5,1-0.2,2.3,0.8,3c0.6,0.3,1.2,0.4,1.9,0.3c2.9-0.1,5.8-1,8.2-2.6c-3.1,2.3-6.2,4.8-7.5,8.4
	c-0.3,0.5-0.3,1.1,0,1.5c0.3,0.3,0.7,0.6,1.1,0.7c3.6,0.7,6.9-2.1,10.2-3.8c2.1-1.1,4.3-1.9,6.3-3.1c2.1-1.1,3.7-2.9,4.5-5.2
	c0.3-0.9,0.1-1.9-0.5-2.5c-0.8-0.4-1.8-0.4-2.5,0.1c-2.4,0.9-4.8,1.8-7.2,2.7c3-2.1,4.9-5.4,5.1-9.1c0.1-0.6-0.1-1.1-0.3-1.6
	c-2-2.9-8.8,1.3-10.7,2.7c-1.3,1-2.5,2.2-3.8,3.3C436.5,31.2,433.7,32.7,432.8,34.9z"/>
<linearGradient id="SVGID_11_" gradientUnits="userSpaceOnUse" x1="356.79" y1="353.8194" x2="368.61" y2="353.8194" gradientTransform="matrix(1 0 0 1 -175.93 -246.95)">
	<stop  offset="0" style="stop-color:#ECC4D7"/>
	<stop  offset="0.42" style="stop-color:#EFD4D1"/>
	<stop  offset="1" style="stop-color:#F2EAC9"/>
</linearGradient>
<path class="st13" d="M184.7,98.2c-1.5,0-2.4,1.6-3,3.1c-0.8,2.5-1.1,5.1-0.9,7.8c0.1,1.8,0.8,3.6,2,5c3.8,4.3,9.8-1,9.8-5.6
	C192.6,105.4,188.1,98,184.7,98.2z"/>
<linearGradient id="SVGID_12_" gradientUnits="userSpaceOnUse" x1="519.01" y1="747.2123" x2="548.27" y2="747.2123" gradientTransform="matrix(1 0 0 1 -175.93 -246.95)">
	<stop  offset="0" style="stop-color:#ECC4D7"/>
	<stop  offset="0.42" style="stop-color:#EFD4D1"/>
	<stop  offset="1" style="stop-color:#F2EAC9"/>
</linearGradient>
<path class="st14" d="M344.4,504c-0.8,3.4-1.3,6.8-1.3,10.3c0,0.6,0.1,1.3,0.4,1.9c0.4,0.6,1,1.1,1.8,1.3c7.6,3.6,16.3,4.1,24.2,1.3
	c1-0.2,1.8-0.8,2.4-1.5c0.7-1.2,0.7-2.6,0-3.7c-0.6-1.1-1.3-2.2-2.1-3.2c-2.3-3.7-2.1-8.3-1.6-12.7c0.6-5.3,1.4-10.5,2.5-15.7
	c0.3-1.4-18.8-3.6-21.4-0.6c-1.6,1.9-1.6,6.7-2.1,9C346.3,494.9,345.3,499.4,344.4,504z"/>
<path class="st15" d="M351.9,502.2c-2.2-0.9-4.5-1.5-6.9-1.8c-2.4-0.1-4.9,0.8-6.1,2.9c-0.5,0.9-0.8,1.9-0.9,3
	c-1.5,8.2-3.1,16.4-4.7,24.8c-0.3,1.1-0.3,2.3,0,3.4c0.5,1.5,2.2,2.5,3.8,3.1c5.2,1.9,10.7,2,16.1,2.1l56,1c0.8,0.1,1.7-0.1,2.4-0.4
	c2-1.1,1.2-4.2-0.1-5.9c-4.4-6.3-12-9.4-19-12.8c-3.7-1.7-7.1-3.8-10.2-6.4c-2.6-2.4-4.3-6.8-7.3-8.7c-2.4-1.4-5.3-1-7.9-1.1
	C362,504.8,356.8,503.8,351.9,502.2z"/>
<path class="st15" d="M348,550.9c4.7,0.2,9.3,2,14,2.7c4.9,0.6,9.9,0.7,14.9,0.3c7.5-0.4,15.2-0.8,22.8-1.2c3.1-0.1,6.4-0.3,9-2
	s4.5-5,3.2-7.8c-1.4-3.1-5.5-3.8-8.9-4c-19.5-1.4-39.2-3.8-58.8-4.4c-5.8-0.1-14.8,1.2-14.1,9.1C331,552.6,341.9,550.6,348,550.9z"
	/>
<path class="st15" d="M376.7,506.9c-0.7-1.7-0.1-3.7,1.4-4.7c1.6-1,3.6-0.7,4.9,0.7c1.3,1.5,1.3,3.7,1.4,5.7c0.3,4,1.9,7.8,4.4,11"
	/>
<linearGradient id="SVGID_13_" gradientUnits="userSpaceOnUse" x1="233.95" y1="777.1609" x2="271.64" y2="777.1609" gradientTransform="matrix(1 0 0 1 -175.93 -246.95)">
	<stop  offset="0" style="stop-color:#ECC4D7"/>
	<stop  offset="0.42" style="stop-color:#EFD4D1"/>
	<stop  offset="1" style="stop-color:#F2EAC9"/>
</linearGradient>
<path class="st16" d="M76.7,514.6c-4.6,7.9-12.3,17.3-18.6,23.7c4,7,13.6,9.1,21,6.2S92,535.2,95.7,528
	C87.6,525.8,83,520,76.7,514.6"/>
<path class="st15" d="M90.8,542.9c-1.1,1.9-2.4,3.6-3.9,5.2c-6.1,6.8-12.3,13.7-18.4,20.5c-2.3,2.5-4.6,5.2-7.8,6.2
	c-2.7,1-5.7,0.8-8.6,0.5c-11.2-0.8-22.5-1.7-33.8-2.5l-3.4-0.3c-1.3,0-2.6-0.3-3.7-0.9c-3.2-1.9-2.6-6.6-1.1-9.9
	c3.4-7.2,9.6-12.6,17.2-14.9c5.3-1.6,11-1.8,15.8-4.2c3.9-2,6.8-5.2,9.9-8c4.4-4.2,5-5.7,10.7-3.5c2.1,0.7,28.4,7.5,28.4,5.9
	C92.2,539.2,91.8,541.2,90.8,542.9z"/>
<path class="st15" d="M22.1,579.9c12.1,1.5,24.2,3.1,36.3,3c3.2,0.1,6.4-0.3,9.4-1.4c3.1-1.2,5.3-3.8,5.9-7c0.2-1.7-0.3-3.5-1.9-4.1
	c-0.4-0.1-0.9-0.2-1.3-0.2c-17.4-1.6-34.7-3.4-52.1-5c-5.9-0.5-13.7,0.8-14,8.3C4.1,580.4,17.1,579.2,22.1,579.9z"/>
<linearGradient id="SVGID_14_" gradientUnits="userSpaceOnUse" x1="349.26" y1="360.0624" x2="395.43" y2="360.0624" gradientTransform="matrix(1 0 0 1 -175.93 -246.95)">
	<stop  offset="0" style="stop-color:#ECC4D7"/>
	<stop  offset="0.42" style="stop-color:#EFD4D1"/>
	<stop  offset="1" style="stop-color:#F2EAC9"/>
</linearGradient>
<path class="st17" d="M173.3,118.9c3.5,0.4,6.6-2.3,8.1-5.5s1.9-6.7,3-10c3.6-9.6,13.5-15.4,23.7-14c0.6,0,1.1,0.3,1.4,0.8
	c0.3,0.7-0.2,1.3-0.8,1.9c-2.4,2.3-5.3,4-8.4,4.9c6-2.1,13-2.8,19.3-1.3c-0.3,1.3-1.6,2.2-2.7,2.8c-5,3.1-10,6-15,9.1
	c5.1-2.8,10.7-5.9,16.6-5.6c0.7,1.2-0.5,2.5-1.6,3.3c-3.8,2.8-7.6,5.7-11.4,8.5c2.8-1.7,5.9-2.7,9.1-2.9c-2,4.2-7.3,5.2-10.1,9
	c-0.9,1.5-1.6,3-2.3,4.6c-2.4,5.3-6.7,9.5-11.9,11.9c-1,0.4-2.2,0.8-3.1,0.1c-0.4-0.4-0.7-0.9-0.9-1.4
	C183.6,128.6,179.2,122.6,173.3,118.9z"/>
<path class="st18" d="M240.8,157.4c0,0,2,21.4,1.1,29.7s11.1,91.6,12,118.4s-5.6,25-5.6,25c-16.5,8.3-55.2,6.1-55.2,6.1l-4.3,7.3
	c0,0,27.4,3.3,61-4.3c18.8-4.3,37-10.8,54.3-19.2l-7.3-3.1c0,0-34.3,12-48.5,13"/>
<path class="st19" d="M408.1,40c0,0-7.1,11.1-2.5,21.3s13.6,10.2,13.6,10.2"/>
<linearGradient id="SVGID_15_" gradientUnits="userSpaceOnUse" x1="422.4526" y1="404.857" x2="-188.2974" y2="-112.1129" gradientTransform="matrix(1 0 0 -1 -175.93 580.83)">
	<stop  offset="0" style="stop-color:#000000;stop-opacity:0"/>
	<stop  offset="0.99" style="stop-color:#000000"/>
</linearGradient>
<path class="st20" d="M248.9,326.4c-5.4,12.7-53.5,10.3-55.6,10.2c0,0,0-0.1-0.1-0.1c-3.2-5.7-3.9-12.4-4.6-18.9
	c-3.5-32-7-64.6-4.5-96.6c-0.2,0.2-0.4,0.3-0.6,0.5c-7.1-21.9-20-18.8-33.6-21.8c-12.2-2.6-40.2-5.1-52.5-7.2
	c-19.7-3.3-30.2-1.5-29.7-18.7c0,0,91.7,15.6,108.9,18.7c3.7,0.6,7.3,1.7,10.7,3.3c2.9,1.3,5.5,3.1,7.9,5.2c4.2,3.9,7,8.5,9.8,13.1
	c5.5,9.3,6.8,75.9,11.1,97.5S248.9,326.4,248.9,326.4z"/>
<linearGradient id="SVGID_16_" gradientUnits="userSpaceOnUse" x1="320.904" y1="444.3304" x2="328.514" y2="368.4504" gradientTransform="matrix(1 0 0 -1 -175.93 580.83)">
	<stop  offset="0" style="stop-color:#000000;stop-opacity:0"/>
	<stop  offset="0.99" style="stop-color:#000000"/>
</linearGradient>
<path class="st21" d="M106.9,161.6c4.7-4,10.9-5.9,16.8-7.9c17.9-6,35.2-13.4,51.9-22.2c0.9-0.5,1.9-0.9,2.9-1.1
	c4.1-0.5,6.4,4.5,7.3,8.5c-4.2,1-7.2,4.7-10.5,7.6c-9.7,8.2-22,7.8-33.6,11.1c-4.9,1.4-8.8,2.6-14,2.9L117,161
	C115.1,161.1,108.3,160.4,106.9,161.6z"/>
<linearGradient id="SVGID_17_" gradientUnits="userSpaceOnUse" x1="498.394" y1="496.6774" x2="592.6341" y2="282.4474" gradientTransform="matrix(1 0 0 -1 -175.93 580.83)">
	<stop  offset="0" style="stop-color:#000000;stop-opacity:0"/>
	<stop  offset="0.99" style="stop-color:#000000"/>
</linearGradient>
<path class="st22" d="M401.6,43.8l-0.4,13c0,0-103.4,98.1-144.2,94.4c-8.1-0.7,7.3-5.5,6.4-6.6c-0.1-0.1,13.3-3.2,13.3-3.2
	c6.1-3.9,13.3-7.1,18.4-10.4c25.6-16.8,49.5-36.1,71.2-57.7C377.2,62.4,388.3,50.6,401.6,43.8z"/>
<path class="st15" d="M206.5,148.8c0,0,13.6,12,28.8,9.8s5.6-1.2,5.6-1.2s-20.7-9.3-20.7-17.9S206.5,148.8,206.5,148.8z"/>
<path class="st2" d="M263.5,144.7c0,0,2.8,8.8-11.2,14.8s-5.4,1.8-5.4,1.8s11.4-20.6,6.9-28S263.5,144.7,263.5,144.7z"/>
<linearGradient id="SVGID_18_" gradientUnits="userSpaceOnUse" x1="429.333" y1="445.8105" x2="440.323" y2="374.5105" gradientTransform="matrix(1 0 0 -1 -175.93 580.83)">
	<stop  offset="0" style="stop-color:#000000;stop-opacity:0"/>
	<stop  offset="0.99" style="stop-color:#000000"/>
</linearGradient>
<path class="st23" d="M263.5,144.7c0,0,0.3,2.7-9.7,9.5l-5.5,2.9c0,0,10-16.3,5.5-23.6S263.5,144.7,263.5,144.7z"/>
<path class="st2" d="M206.5,148.8c0,0,13.6,11.6,28.8,9.8c5.1-0.6,6-1.9,6-1.9s-21.1-8.6-21.1-17.2S206.5,148.8,206.5,148.8z"/>
<linearGradient id="SVGID_19_" gradientUnits="userSpaceOnUse" x1="563.5319" y1="189.9759" x2="82.3418" y2="-28.4041" gradientTransform="matrix(1 0 0 -1 -175.93 580.83)">
	<stop  offset="0" style="stop-color:#000000;stop-opacity:0"/>
	<stop  offset="0.99" style="stop-color:#000000"/>
</linearGradient>
<path class="st24" d="M364.2,401.7c-0.9,13-7.4,75.9-7.4,75.9l-9.8-0.2c-0.3-0.6-0.4-1.1-0.5-1.7c-2.3-12.7,4.6-67.9,4.6-67.9
	s-58.7-40.3-84-33.4c0,0,14.9-11.5,26.9-9.6s63.9,24.1,63.9,24.1S365.1,388.7,364.2,401.7z"/>
<linearGradient id="SVGID_20_" gradientUnits="userSpaceOnUse" x1="470.1536" y1="224.1421" x2="-768.0564" y2="-337.8178" gradientTransform="matrix(1 0 0 -1 -175.93 580.83)">
	<stop  offset="0" style="stop-color:#000000;stop-opacity:0"/>
	<stop  offset="0.99" style="stop-color:#000000"/>
</linearGradient>
<path class="st25" d="M223.6,345.3c-9.2,3.7-37,36.1-60.1,63.8c-21.7,26-80.6,97.7-88,106.7c-0.2-1.1-0.4-2.3-0.4-3.4
	c0-3.3,1-6.6,2.9-9.3l109.1-157.6C201.6,346.9,223.6,345.3,223.6,345.3z"/>
<linearGradient id="SVGID_21_" gradientUnits="userSpaceOnUse" x1="228.1408" y1="25.4208" x2="273.6409" y2="-23.4692" gradientTransform="matrix(1 0 0 -1 -175.93 580.83)">
	<stop  offset="0" style="stop-color:#000000;stop-opacity:0"/>
	<stop  offset="0.99" style="stop-color:#000000"/>
</linearGradient>
<path class="st26" d="M90.8,542.9c-1.1,1.9-2.4,3.6-3.9,5.2c-6.1,6.8-12.3,13.7-18.4,20.5c-2.3,2.5-4.6,5.2-7.8,6.2
	c-2.7,1-5.7,0.8-8.6,0.5c-11.2-0.8-22.5-1.7-33.8-2.5c-0.2-0.9-0.2-1.8-0.1-2.7c0-1.2,0.4-2.3,1.1-3.3c0.6-0.7,1.3-1.2,2.2-1.5
	c2.9-1.3,6.1-1.3,9.2-1.4l21.4-0.3c2.7,0,5.6-0.1,8-1.3c1.2-0.6,2.3-1.4,3.3-2.3c2.7-2.2,5.3-4.4,8-6.6c4.6-3.8,9.2-7.6,14.7-10
	C87.5,542.7,89.2,542.5,90.8,542.9z"/>
<linearGradient id="SVGID_22_" gradientUnits="userSpaceOnUse" x1="535.6285" y1="85.1699" x2="541.4885" y2="-22.1701" gradientTransform="matrix(1 0 0 -1 -175.93 580.83)">
	<stop  offset="0" style="stop-color:#000000;stop-opacity:0"/>
	<stop  offset="0.86" style="stop-color:#000000;stop-opacity:0.66"/>
	<stop  offset="0.99" style="stop-color:#000000"/>
</linearGradient>
<path class="st27" d="M341.1,506.9c0.4-1.3,1.8-2.1,3.2-1.9c2.3-0.1,4.5,0.3,6.7,1c5,1.9,8,7.2,10,12.1c1.7,4.1,3.3,8.5,6.7,11.3
	c2.1,1.5,4.3,2.8,6.7,3.7c5,2.2,9.8,4.9,14.4,7.9c0.3,0.2,0.7,0.5,0.6,0.9s-0.4,0.5-0.7,0.6c-2,0.6-4.1,0.9-6.3,0.8
	c-4.2-0.1-8.3-0.3-12.5-0.8c-7.1-0.8-14.2-1.7-21.3-2.8c-3.4-0.4-6.7-1.2-9.9-2.2c-0.9-0.3-1.8-0.8-2.5-1.4
	c-0.9-0.9-1.4-2.1-1.5-3.4c-0.2-2.3,0-4.7,0.6-6.9c0.7-3.4,1.3-6.9,2-10.3C337.9,512.9,339.2,508.8,341.1,506.9z"/>
<linearGradient id="SVGID_23_" gradientUnits="userSpaceOnUse" x1="546.3458" y1="58.5774" x2="541.1058" y2="6.4474" gradientTransform="matrix(1 0 0 -1 -175.93 580.83)">
	<stop  offset="0" style="stop-color:#000000;stop-opacity:0"/>
	<stop  offset="0.86" style="stop-color:#000000;stop-opacity:0.66"/>
	<stop  offset="0.99" style="stop-color:#000000"/>
</linearGradient>
<path class="st28" d="M343,541.3c-1.6-0.5-3.2-0.8-4.9-0.7c-1.7,0.1-3.2,1-4.1,2.4c-1,1.9,0,4.5,1.8,5.7c1.9,1.2,4,1.7,6.2,1.6
	c2.2-0.2,4.4-0.1,6.5,0c2.3,0.4,4.4,1.4,6.6,2c2.5,0.6,5,0.9,7.5,1c12.9,0.7,26.3,0.8,38.3-4.2c0.5-0.1,1-0.5,1.2-0.9
	c0.2-0.7-0.1-1.5-0.8-1.8c-0.7-0.3-1.4-0.4-2.1-0.3c-8.6,0.2-17.3,0.8-25.9,0.2C363.2,545.5,353,543.9,343,541.3z"/>
<linearGradient id="SVGID_24_" gradientUnits="userSpaceOnUse" x1="228.6098" y1="22.2058" x2="256.0598" y2="86.3658" gradientTransform="matrix(1 0 0 -1 -175.93 580.83)">
	<stop  offset="0" style="stop-color:#000000;stop-opacity:0"/>
	<stop  offset="0.99" style="stop-color:#000000"/>
</linearGradient>
<path class="st29" d="M60.2,548.4c4.9-1.5,9.2-4.3,12.7-8c0.2-0.2,0.3-0.4,0.4-0.7c-0.1-0.3-0.2-0.5-0.5-0.7
	c-3.7-2.8-8-4.7-12.5-5.5c-0.8-0.2-1.7-0.2-2.5,0.1c-0.8,0.4-1.5,1.1-1.9,1.9c-2.5,3.4-5.5,6.4-8.9,8.9c-0.6,0.4-1.2,0.9-1.1,1.6
	c0.1,0.5,0.4,0.9,0.8,1.1c3.8,2.9,8.8,3.5,13.1,1.5"/>
<g>
	<path class="st2" d="M376.1,195.1l52.4-27l-2.3,48.5c0,0-5.6,16.1-13.1,10.1s8.6-16.1,8.6-16.1l0.4-23.3l-40.2,19.5l0.8,28.2
		c0,0-6,19.1-12.4,12.8s6.8-19.1,6.8-19.1L376.1,195.1z"/>
	<path class="st2" d="M93.7,255.1l10.7-43.4c0,0,17.3,13.9,14.6,24s-12.4,12.8-12.4,12.8s5.2-8.6,4.1-11.6s-7.3-8.3-7.3-8.3
		l-8.4,35.3c0,0-11.3,17.3-16.1,4.9S93.7,255.1,93.7,255.1z"/>
</g>
</svg>
