<?xml version="1.0" encoding="utf-8"?>
<!-- Generator: Adobe Illustrator 22.0.0, SVG Export Plug-In . SVG Version: 6.00 Build 0)  -->
<svg version="1.1" id="Layer_1" xmlns="http://www.w3.org/2000/svg" xmlns:xlink="http://www.w3.org/1999/xlink" x="0px" y="0px"
	 viewBox="0 0 988.8 156.5" style="enable-background:new 0 0 988.8 156.5;" xml:space="preserve">
<style type="text/css">
	.st0{fill:#0054B2;}
	.st1{fill:#ED1C24;}
</style>
<g id="Layer_2_1_">
</g>
<g id="Layer_1_1_">
	<g>
		<g>
			<path class="st0" d="M173.7,91.1v-0.3c0-23.3,18.2-43.1,42.3-43.1c13.7,0,23,5.3,30.3,12c1,0.8,1.9,2.4,1.9,4.3
				c0,3.4-2.7,5.9-5.9,5.9c-1.6,0-3-0.6-4-1.4c-5.9-5.4-12.6-9.9-22.5-9.9c-16.7,0-29.5,14.2-29.5,31.9v0.3
				c0,17.9,13.1,32.1,30.3,32.1c9.4,0,16.9-4.3,23-10c0.8-0.8,1.9-1.6,3.5-1.6c3,0,5.6,2.7,5.6,5.6c0,1.4-0.6,2.9-1.6,3.8
				c-7.8,7.8-17.2,13.2-31.1,13.2C191.9,133.9,173.7,114.3,173.7,91.1z"/>
			<path class="st0" d="M254.5,91.1v-0.3c0-23.3,18.2-43.1,43.1-43.1c24.7,0,42.9,19.5,42.9,42.8v0.3c0,23.3-18.3,43.1-43.2,43.1
				C272.5,133.9,254.5,114.4,254.5,91.1z M327.8,91.1v-0.3c0-17.7-13.2-32.2-30.6-32.2c-17.9,0-30.2,14.5-30.2,31.9v0.3
				c0,17.7,13.1,32.1,30.5,32.1C315.4,122.9,327.8,108.5,327.8,91.1z"/>
			<path class="st0" d="M349.5,91.1v-0.3c0-23.3,18.2-43.1,43.1-43.1c24.7,0,42.9,19.5,42.9,42.8v0.3c0,23.3-18.3,43.1-43.2,43.1
				C367.6,133.9,349.5,114.4,349.5,91.1z M422.9,91.1v-0.3c0-17.7-13.2-32.2-30.6-32.2c-17.9,0-30.2,14.5-30.2,31.9v0.3
				c0,17.7,13.1,32.1,30.5,32.1C410.5,122.9,422.9,108.5,422.9,91.1z"/>
			<path class="st0" d="M450.8,20.9c0-3.4,2.7-6.2,6.1-6.2c3.5,0,6.2,2.9,6.2,6.2v105.6c0,3.5-2.6,6.2-6.1,6.2
				c-3.5,0-6.2-2.7-6.2-6.2V20.9z"/>
			<path class="st0" d="M581.2,54.9c0-3.3,2.7-6.2,6.1-6.2c3.5,0,6.2,2.7,6.2,6.2v71.6c0,3.5-2.6,6.2-6.1,6.2
				c-3.5,0-6.2-2.7-6.2-6.2V54.9z"/>
			<path class="st0" d="M608.9,91.1v-0.3c0-23.3,18.2-43.1,42.3-43.1c13.7,0,23,5.3,30.3,12c1,0.8,1.9,2.4,1.9,4.3
				c0,3.4-2.7,5.9-5.9,5.9c-1.6,0-3-0.6-4-1.4c-5.9-5.4-12.6-9.9-22.5-9.9c-16.8,0-29.5,14.2-29.5,31.9v0.3
				c0,17.9,13.1,32.1,30.3,32.1c9.4,0,16.9-4.3,23-10c0.8-0.8,1.9-1.6,3.5-1.6c3,0,5.6,2.7,5.6,5.6c0,1.4-0.6,2.9-1.6,3.8
				c-7.8,7.8-17.2,13.2-31.1,13.2C627.1,133.9,608.9,114.3,608.9,91.1z"/>
			<path class="st0" d="M697.1,20.9c0-3.4,2.7-6.2,6.1-6.2c3.5,0,6.2,2.9,6.2,6.2v75.6l44.7-45.5c1.4-1.6,2.9-2.4,4.8-2.4
				c3.4,0,5.6,2.7,5.6,5.7c0,1.9-0.8,3.2-2.4,4.8l-27,26.5l29.5,37.2c1.1,1.4,1.6,2.6,1.6,4.1c0,3.3-2.6,5.7-5.9,5.7
				c-2.2,0-3.7-0.8-5.3-2.9l-28.6-36.1l-17.1,16.9v15.8c0,3.5-2.6,6.2-6.1,6.2s-6.2-2.7-6.2-6.2L697.1,20.9L697.1,20.9z"/>
			<path class="st0" d="M914.9,123.2c-1.1-0.8-2.2-2.4-2.2-4.5c0-2.9,2.4-5.3,5.4-5.3c1.1,0,2.2,0.3,3,1c8.5,5.7,17.2,8.8,26.2,8.8
				c9.9,0,17.1-5.1,17.1-13.1v-0.3c0-8.3-9.7-11.5-20.6-14.5c-12.9-3.7-27.3-8.1-27.3-23.3v-0.3c0-14.2,11.8-23.6,28.1-23.6
				c8.8,0,18.3,2.7,26.3,7c1.6,1,3,2.7,3,5.1c0,2.9-2.4,5.3-5.4,5.3c-1.1,0-2.1-0.3-2.7-0.6c-7-4-14.5-6.4-21.5-6.4
				c-9.7,0-16,5.1-16,12v0.3c0,7.8,10.2,10.8,21.2,14.2c12.8,3.8,26.5,8.8,26.5,23.6v0.3c0,15.6-12.9,24.7-29.4,24.7
				C935.8,133.6,923.8,129.6,914.9,123.2z"/>
			<path class="st0" d="M561.5,121.1c-1,0-3.5,1.1-7.8,1.1c-8.3,0-14.2-3.7-14.2-13.7V59.9h22c3,0,5.6-2,5.6-5c0-2.9-2.6-5-5.6-5
				h-22V30c0-3.4-2.6-6.2-5.9-6.2c-3.5,0-5.8,2.9-5.8,6.2v2.4l0,0V76l0,0v34.1c0,16.8,10.1,23.3,23.3,23.3c4.8,0,8.6-0.8,12.1-2.2
				c2.1-0.8,3.5-2.6,3.5-4.8C566.8,123.5,564.4,121.1,561.5,121.1z"/>
			<path class="st0" d="M900.9,121.1c-1,0-3.2,1.1-7.5,1.1c-8.3,0-13.9-3.7-13.9-13.7V59.9h21.4c3,0,5.6-2,5.6-5c0-2.9-2.6-5-5.6-5
				h-21.4V30c0-3.4-2.6-6.2-5.9-6.2c-3.5,0-5.8,2.9-5.8,6.2v5.3l0,0v34.8l0,0v39.9c0,16.8,9.8,23.3,23,23.3c4.8,0,8.5-0.8,12-2.2
				c2.1-0.8,3.4-2.6,3.4-4.8C906.2,123.5,903.7,121.1,900.9,121.1z"/>
			<path class="st0" d="M823.5,121.5c-5.7,0.9-6.7,1.6-10.7,1.6c-14.7,0-27.3-9.6-29-28h59.7c3,0,5.7-2.3,5.7-5.6
				c0-21.9-13.4-41.8-37.8-41.8c-22.8,0-39.1,19.2-39.1,43V91c0,25.5,18,42.9,40.7,42.9c5.1,0,8.4,0.1,13.4-1.9
				C835.6,127.1,825.3,121.4,823.5,121.5z M810.6,57c16.4,0,25,14.7,26.3,28.1h-53.1C785.4,70,796.2,57,810.6,57z"/>
		</g>
		<g>
			<path class="st1" d="M104.2,62.2c-1.5,4.2-3,8.6-6.5,7.2c-3.2-1.3-2.3-5.2-1.5-9.5c-5.7-2.4-8.7,0.9-10.2,3.5
				c-0.3,0.8-0.3,1.3-1.6,5.4l0,0c-2.2,18.6-7,43.8-20.1,53.3c4.1,5.1,9.9,9.3,17.9,12c8.1-1.5,18.3-31.1,24.6-53.4
				C111.3,65.3,112.2,64.6,104.2,62.2z"/>
			<path class="st0" d="M53.3,86.8c-0.7-11.9-0.6-23.1,2.9-46.2l-0.4-0.1c0,0,0,0.1,0,0.1c0.5-2.9,1.2-5.9,1.7-9.2
				c0.1-0.7,0.3-1.3,0.5-2c0-0.1,0.1-0.1,0.1-0.2c0.3-5.5-0.3-11.8-3.9-14.5c-0.8-0.6-1.6-1.1-2.4-1.3c-0.1,0-0.1,0-0.2,0
				c-3.9,12.4-6.4,13.1-11.8,11.3c-3.8-1.3-3.6-7.4-2.9-11.9C27.1,10.1,25.2,28.3,25,29.5c-4.4,29.2-4.7,35.3-3.2,59.8
				C23.7,121,58,135.4,81.9,135C56.7,125.9,54.2,103.4,53.3,86.8z"/>
		</g>
	</g>
</g>
</svg>
