<?xml version="1.0" encoding="utf-8"?>
<!-- Generator: Adobe Illustrator 23.0.1, SVG Export Plug-In . SVG Version: 6.00 Build 0)  -->
<svg version="1.1" id="Layer_1" xmlns="http://www.w3.org/2000/svg" xmlns:xlink="http://www.w3.org/1999/xlink" x="0px" y="0px"
	 viewBox="0 0 358.1 393.3" style="enable-background:new 0 0 358.1 393.3;" xml:space="preserve">
<style type="text/css">
	.st0{opacity:0.18;fill:#E80016;enable-background:new    ;}
	.st1{fill:#E80016;}
	.st2{fill:url(#SVGID_1_);}
	.st3{fill:#F3C091;}
	.st4{fill:#FFCD90;}
	.st5{fill:#2E2E3F;}
	.st6{fill:url(#SVGID_2_);}
	.st7{fill:url(#SVGID_3_);}
	.st8{fill:url(#SVGID_4_);}
	.st9{fill:#452D21;}
	.st10{fill:url(#SVGID_5_);}
	.st11{fill:#FFFFFF;}
	.st12{fill:none;stroke:#FFFFFF;stroke-width:2;stroke-miterlimit:10;}
</style>
<title>Travel-Planning</title>
<ellipse class="st0" cx="194.9" cy="374.5" rx="104.4" ry="18.8"/>
<path class="st0" d="M324.4,174.7c0.6-21.2-8.7-41.3-17.9-60.4c-10.6-22.2-22-45.2-41.3-60.6c-23.4-18.7-55.6-23.5-85.1-18.9
	S122.9,52.2,96.4,66c-15.7,8.1-31.3,16.6-45.2,27.5c-8.7,6.8-16.9,14.8-21,25c-3.6,8.9-3.8,18.7-3.9,28.3l-1.5,100.4
	c-0.1,5.5-0.1,11.1,1.8,16.2c2.6,6.9,8.4,12,13.9,16.7c11.3,9.7,23.4,19.8,38.2,22c15.5,2.3,30.9-4.6,46.6-5
	c18.9-0.5,36.5,8.5,54.5,13.9c22.6,6.8,46.5,8.2,69.8,4.2c16.6-2.9,33.3-9,45.1-21.1c6.8-7,11.6-15.6,15.4-24.5
	c5.2-12.3,8.8-25.3,10.4-38.5c1.2-9.2,5.8-19,6.1-28.1C326.8,193.7,324.2,184.3,324.4,174.7z"/>
<path class="st1" d="M156.5,206.3c-3.6-3.8-7.8-7-12.3-9.6c-1.7-1.1-3.5-1.8-5.5-2.2c-4.7-0.6-9.1,2.7-9.7,7.4
	c-0.2,1.5,0,3.1,0.6,4.5c1.1,2.2,2.7,4.1,4.8,5.6c6.5,5.4,13.9,9.9,21.7,13.1c1.4,0.7,2.9,1,4.5,1.1c2.3,0,4.4-1.4,6.3-2.9
	c5.2-4.3,9-10,12.4-15.7c2.6-4.3,5.2-8.8,6.6-13.7c0.8-2.8,1.2-5.6,1.7-8.5s1.1-5.4,1.8-8.1c0.6-2.3,2.6-6.1,2.4-8.4
	c-0.4-5.3-7.6,0.4-9.6,1.8c-7.6,5.6-14,12.7-18.6,20.9C160.8,196.3,158.4,201.2,156.5,206.3z"/>
<linearGradient id="SVGID_1_" gradientUnits="userSpaceOnUse" x1="219.993" y1="179.8341" x2="188.313" y2="202.8141" gradientTransform="matrix(1 0 0 -1 -30.05 389.23)">
	<stop  offset="1.000000e-02" style="stop-color:#000000"/>
	<stop  offset="0.13" style="stop-color:#000000;stop-opacity:0.69"/>
	<stop  offset="1" style="stop-color:#000000;stop-opacity:0"/>
</linearGradient>
<path class="st2" d="M156.5,206.3c-3.6-3.8-7.8-7-12.3-9.6c-1.7-1.1-3.5-1.8-5.5-2.2c-4.7-0.6-9.1,2.7-9.7,7.4
	c-0.2,1.5,0,3.1,0.6,4.5c1.1,2.2,2.7,4.1,4.8,5.6c6.5,5.4,13.9,9.9,21.7,13.1c1.4,0.7,2.9,1,4.5,1.1c2.3,0,4.4-1.4,6.3-2.9
	c5.2-4.3,9-10,12.4-15.7c2.6-4.3,5.2-8.8,6.6-13.7c0.8-2.8,1.2-5.6,1.7-8.5s1.1-5.4,1.8-8.1c0.6-2.3,2.6-6.1,2.4-8.4
	c-0.4-5.3-7.6,0.4-9.6,1.8c-7.6,5.6-14,12.7-18.6,20.9C160.8,196.3,158.4,201.2,156.5,206.3z"/>
<path class="st3" d="M132.9,193.7c-1.1-1.8-2.4-3.6-3.8-5.3c-0.2-0.2-0.4-0.5-0.8-0.4s-0.5,0.5-0.6,0.8c-0.7,1.2-2.6,0.8-3.7-0.1
	s-2.1-2.1-3.5-2.2c-1.6,0.1-2.8,1.3-3,2.8c-0.1,1.5,0.2,3,0.9,4.4c0.5,1.3,1.2,2.5,1.9,3.7c0.9,1.6,2,3,3.4,4.2
	c1.4,1.1,2.9,1.8,4.6,2.3c1.6,0.5,3.3,0.6,5,0.3c1.7-0.3,3.1-1.4,3.8-3C138.5,197.7,134.4,196.1,132.9,193.7z"/>
<path class="st4" d="M171.8,353.9c0,0.6,0,1.1,0.2,1.6c0.6,1.3,2.3,1.6,3.6,1.2c1.3-0.4,2.4-1.4,2.9-2.7c0.4-1.2,0.6-2.5,0.4-3.8
	c-0.1-1.2-0.2-2.4-0.5-3.6c-0.1-0.9-0.5-1.7-1.2-2.2c-1.6-0.9-4.6,1.1-5.2,2.6C171.3,349,171.8,351.9,171.8,353.9z"/>
<path class="st5" d="M177.4,353.8c-0.5,0.4-1,0.8-1.6,1.1c-0.8,0.3-1.6,0.4-2.4,0.3c-0.7-0.2-1.3-0.2-2,0c-0.4,0.2-0.7,0.5-1,0.8
	c-0.7,0.6-1.5,1.1-2.2,1.5l-3.3,1.8c-1,0.5-1.9,1.1-2.8,1.9c-0.5,0.5-0.9,1-1.5,1.5c-0.2,0.2-0.5,0.4-0.6,0.7
	c-0.2,0.5,0,1.1,0.4,1.5c0.4,0.4,1,0.6,1.5,0.7c0.7,0.2,1.3,0.2,2,0.2c1-0.1,1.9-0.2,2.9-0.4c2.1-0.3,4.2-0.7,6.3-1.2
	c2.1-0.6,4.1-1.4,6.1-2.2c0.7-0.2,1.4-0.6,1.9-1.1c0.7-1.1,0.8-2.4,0.4-3.6c-0.2-0.8-0.5-1.7-0.8-2.5c-0.3-0.8-0.8-1.7-1.6-1.8
	c-0.6-0.1-1.2,0.1-1.6,0.5L177.4,353.8z"/>
<path class="st5" d="M158.6,291.7c1.6,16.1,4.3,32,8.1,47.6c0.6,2.4,1.3,4.9,2.8,6.9s4.3,3.2,6.6,2.3c1.9-0.9,3.2-2.8,3.5-4.9
	c0.2-2.1,0.1-4.2-0.3-6.2c-2.4-16.9-1.1-34,1.2-50.9c0.6-5.5,1.7-10.9,3.3-16.2c1.1-3.5,2.6-6.9,2.9-10.6
	c0.7-10.7-9.9-18.6-20.1-16.3c-9.4,2.1-8.7,17.8-8.9,25.2C157.4,276.3,157.7,284,158.6,291.7z"/>
<linearGradient id="SVGID_2_" gradientUnits="userSpaceOnUse" x1="213.8859" y1="92.3088" x2="187.7759" y2="94.6588" gradientTransform="matrix(1 0 0 -1 -30.05 389.23)">
	<stop  offset="1.000000e-02" style="stop-color:#000000"/>
	<stop  offset="0.13" style="stop-color:#000000;stop-opacity:0.69"/>
	<stop  offset="1" style="stop-color:#000000;stop-opacity:0"/>
</linearGradient>
<path class="st6" d="M158.6,291.7c1.6,16.1,4.3,32,8.1,47.6c0.6,2.4,1.3,4.9,2.8,6.9s4.3,3.2,6.6,2.3c1.9-0.9,3.2-2.8,3.5-4.9
	c0.2-2.1,0.1-4.2-0.3-6.2c-2.4-16.9-1.1-34,1.2-50.9c0.6-5.5,1.7-10.9,3.3-16.2c1.1-3.5,2.6-6.9,2.9-10.6
	c0.7-10.7-9.9-18.6-20.1-16.3c-9.4,2.1-8.7,17.8-8.9,25.2C157.4,276.3,157.7,284,158.6,291.7z"/>
<path class="st4" d="M216.9,362.5c0.2,0.5,0.5,1,0.9,1.4c1,0.9,2.7,0.5,3.7-0.5c1-1,1.5-2.3,1.5-3.7c-0.1-1.3-0.5-2.5-1.2-3.6
	c-0.6-1.1-1.3-2.1-2-3.1c-0.4-0.8-1.2-1.3-2-1.5c-1.8-0.1-3.7,2.9-3.6,4.5C214.3,358.2,216.1,360.6,216.9,362.5z"/>
<path class="st5" d="M223.5,360.5c-0.4-0.2-1-0.2-1.7,0.4c-0.5,0.5-1,1-1.6,1.5c-0.9,0.6-2.2,0.6-3.2,1c-0.6,0.3-1.2,0.7-1.7,1.2
	c-1.9,1.5-3.7,3.3-5.2,5.3c-1,1.4-3.3,3.7-1.7,5.5c0.8,0.9,2.2,0.8,3.3,0.5c1.2-0.3,2.3-0.8,3.4-1.3c2.6-1.1,5.2-2.2,7.7-3.5
	c1-0.4,1.9-1,2.6-1.8c1.2-1.4,1.5-3.3,0.9-5c-0.3-0.5-0.7-1-1.1-1.4C224.7,362.1,224.2,360.9,223.5,360.5z"/>
<path class="st5" d="M177.1,251.1c-1.4,5-0.2,10.3,0.9,15.4c2.9,13.4,4.8,27,5.7,40.6c0.1,2.1,0.3,4.3,0.8,6.4
	c0.6,2,1.5,3.8,2.5,5.6c6.4,11.7,13.2,23.1,20.4,34.3c1.7,2.6,3.9,5.6,7.1,5.6c4,0.1,6.5-4.8,5.8-8.7s-3.3-7.2-5.3-10.7
	c-3-5.2-4.5-11.2-6-17s-3-11.9-3.4-17.9c-0.9-14,4.1-27.5,7.1-41.2c0.7-2.5,0.9-5.1,0.7-7.7c-0.7-5.3-4.8-9.7-9.7-11.7
	C195.8,240.9,180.1,241,177.1,251.1z"/>
<linearGradient id="SVGID_3_" gradientUnits="userSpaceOnUse" x1="241.0803" y1="89.3872" x2="206.6203" y2="85.7272" gradientTransform="matrix(1 0 0 -1 -30.05 389.23)">
	<stop  offset="1.000000e-02" style="stop-color:#000000"/>
	<stop  offset="0.13" style="stop-color:#000000;stop-opacity:0.69"/>
	<stop  offset="1" style="stop-color:#000000;stop-opacity:0"/>
</linearGradient>
<path class="st7" d="M177.1,251.1c-1.4,5-0.2,10.3,0.9,15.4c2.9,13.4,4.8,27,5.7,40.6c0.1,2.1,0.3,4.3,0.8,6.4
	c0.6,2,1.5,3.8,2.5,5.6c6.4,11.7,13.2,23.1,20.4,34.3c1.7,2.6,3.9,5.6,7.1,5.6c4,0.1,6.5-4.8,5.8-8.7s-3.3-7.2-5.3-10.7
	c-3-5.2-4.5-11.2-6-17s-3-11.9-3.4-17.9c-0.9-14,4.1-27.5,7.1-41.2c0.7-2.5,0.9-5.1,0.7-7.7c-0.7-5.3-4.8-9.7-9.7-11.7
	C195.8,240.9,180.1,241,177.1,251.1z"/>
<path class="st1" d="M181.2,175c-3.1,4.9-4.9,10.5-6.7,16.1c-1.4,4.2-2.8,8.5-3.8,12.9c-1.8,7.9-2.4,16.1-4.7,23.9
	c-2.1,7.2-5.5,14.6-3.4,21.8c0.9,2.7,2.3,5.2,4.2,7.3c8.4,9.5,21.5,13.3,33.7,9.7c2.3-0.7,4.5-1.7,6.5-3.1c5.3-3.7,8.2-10,9.5-16.3
	s1.3-12.8,1.9-19.2c1-10.9,3.8-21.7,4-32.6s-3-22.7-11.5-29.6C200,157.3,187.4,164.9,181.2,175z"/>
<linearGradient id="SVGID_4_" gradientUnits="userSpaceOnUse" x1="257.8109" y1="170.9893" x2="204.0209" y2="176.2094" gradientTransform="matrix(1 0 0 -1 -30.05 389.23)">
	<stop  offset="1.000000e-02" style="stop-color:#000000"/>
	<stop  offset="0.13" style="stop-color:#000000;stop-opacity:0.69"/>
	<stop  offset="1" style="stop-color:#000000;stop-opacity:0"/>
</linearGradient>
<path class="st8" d="M181.2,175c-3.1,4.9-4.9,10.5-6.7,16.1c-1.4,4.2-2.8,8.5-3.8,12.9c-1.8,7.9-2.4,16.1-4.7,23.9
	c-2.1,7.2-5.5,14.6-3.4,21.8c0.9,2.7,2.3,5.2,4.2,7.3c8.4,9.5,21.5,13.3,33.7,9.7c2.3-0.7,4.5-1.7,6.5-3.1c5.3-3.7,8.2-10,9.5-16.3
	s1.3-12.8,1.9-19.2c1-10.9,3.8-21.7,4-32.6s-3-22.7-11.5-29.6C200,157.3,187.4,164.9,181.2,175z"/>
<path class="st3" d="M184.3,138.2c-0.9,3.3-1.7,6.8-1.1,10.2s2.6,6.8,5.8,8c1.3,0.5,2.9,0.8,3.8,1.8c0.8,1.1,1.1,2.5,0.8,3.9
	c-0.1,1.4-0.2,2.7-0.4,4.1c-0.2,0.8-0.2,1.5-0.1,2.3c0.3,1.3,1.4,2.4,2.8,2.7c1.3,0.3,2.7,0.1,3.9-0.5c3.7-1.6,6-5.4,7-9.3
	s0.9-8,1.2-12c0.3-2.3,0.4-4.5,0.3-6.8c-0.4-5-2.9-9.6-7-12.5c-2.9-2.1-9.1-4.7-12.5-2.5c-1.2,0.8-1.6,2.2-2.1,3.5
	C185.8,133.3,185,135.8,184.3,138.2z"/>
<path class="st9" d="M190.8,114.8c-1.6,0.4-2.9,1.7-3.4,3.3c-0.5,1.6-0.6,3.3-0.2,4.9c0.7,3.6,2.5,6.8,5.1,9.3
	c1.6,1.6,3.6,2.8,4.7,4.7c0.7,1.2,1.1,2.6,1.2,4c0.1,0.4,0.1,0.9,0.5,1.1s1-0.2,1.4-0.5c0.8-0.8,1.8-1.5,2.8-1.3s1.6,1.7,1.6,2.9
	c0.1,1.4-0.5,2.8-1.7,3.7c-0.4,0.2-0.8,0.4-0.9,0.8c-0.2,0.6,0.5,1,0.8,1.5c0.4,0.7,0.5,1.5,0.4,2.3c-0.1,0.8,0.3,1.5,1,1.9
	c0.6,0.2,1.2,0,1.7-0.4c2-1.2,3.1-3.5,4.8-5.1c1.1-1,2.4-1.8,3.6-2.8c2.5-2.1,3.8-5.2,3.7-8.5c-0.2-3.3-2.2-6.2-5.1-7.6
	c-1.6-0.7-3.4-0.9-4.9-1.8c-2.1-1.2-3.1-3.5-4.4-5.6c-1.2-2.3-3.3-3.9-5.7-4.5C195.4,116.7,193.6,114.2,190.8,114.8z"/>
<path class="st1" d="M215.5,170.9c0,0,13.8,17.9,18.2,55s-0.8,49.2-0.8,49.2s-9.5,4.9-11.7-0.5s-2.7-54.1-11-64.7
	S207.9,173.2,215.5,170.9z"/>
<linearGradient id="SVGID_5_" gradientUnits="userSpaceOnUse" x1="270.7191" y1="168.5255" x2="231.0291" y2="161.7355" gradientTransform="matrix(1 0 0 -1 -30.05 389.23)">
	<stop  offset="1.000000e-02" style="stop-color:#000000"/>
	<stop  offset="0.13" style="stop-color:#000000;stop-opacity:0.69"/>
	<stop  offset="1" style="stop-color:#000000;stop-opacity:0"/>
</linearGradient>
<path class="st10" d="M215.5,170.9c0,0,13.8,17.9,18.2,55s-0.8,49.2-0.8,49.2s-9.5,4.9-11.7-0.5s-2.7-54.1-11-64.7
	S207.9,173.2,215.5,170.9z"/>
<path class="st3" d="M220.1,284.8c-0.3,0.8-0.3,1.9,0.5,2s1.4-0.6,1.9-0.1c0.1,0.2,0.2,0.4,0.2,0.6c0.1,2.1-0.3,4.3-1.2,6.2
	c-0.3,0.5-0.5,1.1-0.4,1.7c0.3,1,1.7,1.1,2.7,0.8c3.7-1.1,6.3-4.5,7.4-8.1s1-7.6,0.5-11.4c0-1.2-0.5-2.4-1.2-3.3
	c-1.8-1.8-5.1-0.8-6.2,1.1C222.4,277.4,221.3,281.3,220.1,284.8z"/>
<circle class="st1" cx="48.1" cy="75.5" r="40"/>
<circle class="st1" cx="178.3" cy="40" r="40"/>
<circle class="st1" cx="318.2" cy="120.6" r="40"/>
<circle class="st1" cx="40" cy="245.7" r="40"/>
<circle class="st1" cx="314" cy="263" r="40"/>
<path class="st11" d="M41.5,273.6c-14.9-0.1-27-12.3-26.9-27.2c0-3.7,0.8-7.4,2.3-10.8c0.1-0.4,0.3-0.8,0.5-1.1
	c1.4-1.9,2-4.2,1.7-6.5c-0.6-6,6-10,11.5-7.3c0.9,0.4,1.9,0.5,2.9,0.3c14.2-4.3,29.2,3.7,33.6,17.9c0.5,1.7,0.9,3.4,1,5.1
	c1.5,14.1-8.2,26.9-22.2,29.2C44.5,273.3,43,273.4,41.5,273.6z M43.5,260.1c-0.3,3.1-1,5.9-4.3,7.3c-0.6,0.3-0.8,2.1-0.6,3.2
	c0.1,0.5,1.4,1.1,2.2,1.1c1.7,0.1,3.5-0.1,5.2-0.4c7.3-1.3,13.6-5.7,17.2-12.1l-3-1.3c-1.7,2.5-3.3,4.9-4.8,7.3
	c-0.9,1.4-1.8,1.4-2.7,0s-2-3-3.2-4.6c-0.7,0.8-1.2,1.5-1.7,2.1c-1.3,1.5-2.7,1.4-3.7-0.4C43.8,261.6,43.6,260.9,43.5,260.1
	c-0.3-1.6-0.5-3.2-0.6-4.9c0-1.6-0.7-2.6-2.2-2.8c-2-0.2-4-0.3-6-0.2c-2.9,0.2-4.8-0.7-5.6-3.2s0.2-3.7,3.2-5.2
	c2.7-1.2,5.3-2.8,7.6-4.7c2.4-2.1,2.3-3.8,0.4-6.2c-2.6-3.2-3.1-6.6-1.3-10.4c0.1-0.3,0.1-0.7,0.2-1l-5.5,1.2
	c2.1,2.6,2.3,6.3,0.5,9.1c-1.7,3-3.5,5.9-5.3,8.8c-1.2,1.9-1.8,1.8-3,0c-1.7-2.5-3.3-5.1-5.2-7.8c-0.6,1.1-1.4,2-1.5,3
	c-0.6,5.5-0.6,11.1,2.1,16c3.3,6.2,6.3,6.7,11.5,4.4c0.5-0.2,1-0.4,1.6-0.6c3.8-1.6,6.4-0.6,8.4,3C42.7,259.2,43,259.6,43.5,260.1
	L43.5,260.1z M64,257.5c1.8-3.4,2.7-7.2,2.7-11c-0.1-3.5-1.5-5.7-4.9-6.8c-1.5-0.5-3.3-0.1-5-0.4c-2.3-0.2-4.6-0.7-6.8-1.4
	c-2.4-1-3.4-3.9-2.9-6.6c0.6-2.9,1.9-3.9,5.1-4.3c1.2-0.3,2.3-0.7,3.4-1.2c-3.9-2.8-8.6-4.3-13.4-4.3c-0.4,0-1.1,0.6-1.3,1
	c-1.8,2.9-1.6,6.6,0.7,9.2c2.6,3.3,2.5,6.1-0.7,8.9c-2.4,2-5.3,3.4-8.2,4.9c-1.2,0.6-2.4,1-2,2.7c0.2,1.5,1.6,2.5,3.1,2.3
	c0.1,0,0.1,0,0.2,0c2-0.2,4-0.2,6.1,0c3.8,0.6,4.6,1.8,4.7,5.7c0.2,2,0.5,3.9,0.9,5.9c3.1-2.8,3.1-2.8,1.7-5.8
	c-0.3-0.6-0.5-1.2-0.7-1.7c-1.4-3.9,0.5-8.3,4.4-9.9c3.9-1.6,8.5,0,10.4,3.9c1.3,2.6,0.9,5.1-0.2,7.7L64,257.5z M36.5,271.1
	c-0.2-2.5,0.2-4.6,2.5-5.9s2.9-3.4,1.7-5.8s-3.3-3.3-5.7-2.2c-1,0.4-2,0.9-3.1,1.3c-4.6,1.7-8.1,0.8-10.9-3.2c-1.3-2-2.3-4.1-3-6.4
	c-0.5-1.9-0.9-3.9-1.2-5.9C14.3,254.3,22.6,268.6,36.5,271.1z M57.2,227.1c-1.7,0.7-3.2,1.7-4.8,1.8c-2.2,0.2-3.4,1.1-3.7,3.2
	c-0.4,2.1,0.8,4.1,2.8,4.8c1.4,0.5,2.8,0.8,4.3,0.8c3.3-0.3,6.5-0.4,9.4,1.7C64,234.5,61.2,230.2,57.2,227.1L57.2,227.1z
	 M53.6,263.7l0.8,0.1c1.8-3.4,3.7-6.8,5.5-10.3c0.3-0.8,0.4-1.8,0.2-2.7c-0.4-2.4-2.2-4.4-4.6-4.9c-2.2-0.7-4.6,0-6.1,1.8
	c-1.8,1.7-2.2,4.4-1,6.6C50,257.6,51.8,260.6,53.6,263.7L53.6,263.7z M26.7,239.5h0.8c1.8-3.2,3.7-6.3,5.2-9.5
	c1.3-2.6,0.4-5.7-2-7.3c-2.3-1.7-5.4-1.6-7.6,0.2c-2.3,1.7-3.1,4.8-1.7,7.4C23,233.3,25,236.4,26.7,239.5z"/>
<path class="st11" d="M50.4,251c0.1-2,1.8-3.5,3.8-3.4c1.9,0.1,3.4,1.7,3.3,3.6c0,1.9-1.6,3.4-3.5,3.4c-0.1,0-0.2,0-0.2,0
	C51.9,254.5,50.4,252.9,50.4,251z M54.1,248.6c-0.8,1.2-1.7,1.9-1.6,2.5s1,1.2,1.6,1.8c0.6-0.6,1.6-1.1,1.7-1.7
	S54.9,249.8,54.1,248.6z"/>
<path class="st11" d="M27.1,230.4c-1.9-0.1-3.5-1.5-3.6-3.4c0-2,1.5-3.6,3.5-3.6c0,0,0,0,0,0c1.9-0.1,3.5,1.4,3.5,3.3c0,0,0,0,0,0
	C30.6,228.7,29.1,230.3,27.1,230.4C27.1,230.4,27.1,230.4,27.1,230.4z M27.1,224.3c-0.8,1.1-1.7,1.8-1.7,2.4s1,1.7,1.5,1.7
	c0.8-0.2,1.4-0.8,1.7-1.5C28.8,226.3,28,225.5,27.1,224.3L27.1,224.3z"/>
<path class="st11" d="M48.4,44.7C32,44.7,18.7,58,18.7,74.4s13.4,29.8,29.8,29.8s29.8-13.4,29.8-29.8S64.8,44.7,48.4,44.7z
	 M48.4,101.6c-14.9,0-27.1-12.2-27.1-27.1s12.2-27.1,27.1-27.1s27.1,12.2,27.1,27.1S63.4,101.6,48.4,101.6z M64.4,58.8
	c-0.3-0.3-0.7-0.3-1.1-0.2l-21.2,6c-0.6,0.1-1,0.7-1,1.3v13.6c-0.9-0.7-2.1-1-3.3-1c-3.3,0-6,2.6-6,6c0,3.3,2.6,6,6,6s6-2.6,6-6
	V73.4l18.5-5.2v5.2c-0.9-0.7-2.1-1-3.3-1c-3.3,0-6,2.6-6,6c0,3.3,2.6,6,6,6s6-2.6,6-6V59.9C65,59.5,64.8,59.1,64.4,58.8z M37.9,87.7
	c-1.9,0-3.3-1.5-3.3-3.3c0-1.9,1.5-3.3,3.3-3.3c1.9,0,3.3,1.5,3.3,3.3C41.2,86.2,39.7,87.7,37.9,87.7z M43.8,70.7v-3.8l18.5-5.2v3.8
	L43.8,70.7z M59,81.7c-1.9,0-3.3-1.5-3.3-3.3s1.5-3.3,3.3-3.3c1.9,0,3.3,1.5,3.3,3.3S60.9,81.7,59,81.7z M36.8,70.2
	c0.3,0.3,0.4,0.6,0.4,0.9c0,0.1,0,0.2,0,0.3s-0.1,0.1-0.1,0.3c0,0.1-0.1,0.1-0.1,0.3c-0.1,0.1-0.1,0.1-0.1,0.2
	c-0.1,0.1-0.1,0.1-0.2,0.1c-0.1,0.1-0.1,0.1-0.2,0.1c-0.1,0.1-0.1,0.1-0.3,0.1c-0.1,0-0.2,0-0.3,0c-0.1,0-0.2,0-0.3,0
	s-0.1-0.1-0.3-0.1c-0.1,0-0.1-0.1-0.2-0.1c-0.1-0.1-0.1-0.1-0.2-0.1c-0.1-0.1-0.1-0.1-0.1-0.2c-0.1-0.1-0.1-0.1-0.1-0.3
	c-0.1-0.1-0.1-0.1-0.1-0.3c0-0.1,0-0.2,0-0.3c0-0.3,0.1-0.7,0.4-0.9C35.4,69.7,36.3,69.7,36.8,70.2z M39.6,60.2
	c-0.3-0.3-0.4-0.6-0.4-0.9c0-0.1,0-0.2,0-0.3s0.1-0.2,0.1-0.3c0-0.1,0.1-0.1,0.1-0.2c0.1-0.1,0.1-0.1,0.1-0.2c0.5-0.5,1.4-0.5,1.9,0
	c0.3,0.3,0.5,0.6,0.5,0.9c0,0.1,0,0.2,0,0.3c0,0.1-0.1,0.1-0.1,0.3c0,0.1-0.1,0.1-0.1,0.3c-0.1,0.1-0.1,0.1-0.1,0.2
	c-0.3,0.2-0.7,0.3-1,0.3C40.2,60.6,39.8,60.4,39.6,60.2z M33.6,66.1c-0.3-0.3-0.4-0.6-0.4-0.9c0-0.1,0-0.2,0-0.3
	c0-0.1,0.1-0.1,0.1-0.3c0-0.1,0.1-0.1,0.1-0.3c0.1-0.1,0.1-0.1,0.1-0.2c0.5-0.5,1.4-0.5,1.9,0c0.1,0.1,0.1,0.1,0.1,0.2
	c0.1,0.1,0.1,0.1,0.1,0.3c0.1,0.1,0.1,0.1,0.1,0.3c0,0.1,0,0.2,0,0.3c0,0.3-0.1,0.7-0.4,0.9c-0.1,0.3-0.5,0.4-0.8,0.4
	C34.2,66.5,33.9,66.4,33.6,66.1z"/>
<path class="st11" d="M333.6,107.2l-28.6,0l23.6-13.4l-0.8-1.5l-26.4,15l0.1,0.1c-2.5,0.6-4.5,2.9-4.5,5.7v21c0,3.3,2.7,5.9,5.9,5.9
	h30.8c3.3,0,5.9-2.7,5.9-5.9v-21C339.5,109.9,336.8,107.2,333.6,107.2z M337.8,134.1c0,2.3-1.9,4.2-4.2,4.2l-30.8,0
	c-2.3,0-4.2-1.9-4.2-4.2v-21c0-2.3,1.9-4.2,4.2-4.2l30.8,0c2.3,0,4.2,1.9,4.2,4.2L337.8,134.1L337.8,134.1z"/>
<path class="st11" d="M313.2,115c-4.7,0-8.6,3.9-8.6,8.6s3.9,8.6,8.6,8.6s8.6-3.9,8.6-8.6S317.9,115,313.2,115z M313.2,130.5
	c-3.8,0-6.9-3.1-6.9-6.9c0-3.8,3.1-6.9,6.9-6.9c3.8,0,6.9,3.1,6.9,6.9S317,130.5,313.2,130.5z"/>
<rect x="328.1" y="115.8" class="st11" width="5" height="1.7"/>
<rect x="328.1" y="119.2" class="st11" width="5" height="1.7"/>
<g>
	<path class="st11" d="M199.3,22.7h-3.6c-0.3-1.4-1.2-2.5-2.5-3l7.6-8.5c0.3-0.3,0.3-0.8,0-1.1c-0.3-0.3-0.8-0.3-1.1,0c0,0,0,0,0,0
		l-8,8.9l-8.7-7.7c-0.3-0.3-0.8-0.2-1.1,0.1c-0.3,0.3-0.2,0.8,0.1,1.1c0,0,0,0,0,0l8.2,7.2c-1.2,0.5-2.1,1.6-2.3,2.9h-33.1
		c-1.8,0-3.2,1.4-3.2,3.2v28.6c0,1.8,1.4,3.2,3.2,3.2h1.2V61c0,0.4,0.3,0.7,0.7,0.7h5.2c0.4,0,0.7-0.3,0.7-0.7v-3.2h28.8V61
		c0,0.4,0.3,0.7,0.7,0.7h5.2c0.4,0,0.7-0.3,0.7-0.7v-3.2h1.2c1.8,0,3.2-1.4,3.2-3.2V26C202.5,24.2,201.1,22.7,199.3,22.7z M191.8,21
		c1.1,0,2.1,0.7,2.4,1.8h-4.8C189.7,21.7,190.7,21,191.8,21z M161.1,60.2h-3.7v-2.5h3.7V60.2z M196.6,60.2h-3.7v-2.5h3.7V60.2z
		 M201,54.5c0,1-0.8,1.7-1.7,1.7h-44.6c-1,0-1.7-0.8-1.7-1.7V26c0-1,0.8-1.7,1.7-1.7h44.6c1,0,1.7,0.8,1.7,1.7V54.5z"/>
	<path class="st11" d="M184.9,28h-26.1c-1.1,0-2,0.9-2,2v20.6c0,1.1,0.9,2,2,2h26.1c1.1,0,2-0.9,2-2V30C186.9,28.9,186,28,184.9,28z
		 M185.4,50.5c0,0.3-0.2,0.5-0.5,0.5h-26.1c-0.3,0-0.5-0.2-0.5-0.5V30c0-0.3,0.2-0.5,0.5-0.5h26.1c0.3,0,0.5,0.2,0.5,0.5V50.5z"/>
	<path class="st11" d="M192.2,42.9c-0.4,0-0.7,0.3-0.7,0.7v2c0,0.4,0.3,0.7,0.7,0.7c0.4,0,0.7-0.3,0.7-0.7v-2
		C193,43.2,192.6,42.9,192.2,42.9z"/>
	<path class="st11" d="M195,42.9c-0.4,0-0.7,0.3-0.7,0.7v2c0,0.4,0.3,0.7,0.7,0.7s0.7-0.3,0.7-0.7v-2
		C195.7,43.2,195.4,42.9,195,42.9z"/>
	<path class="st11" d="M189.5,42.9c-0.4,0-0.7,0.3-0.7,0.7v2c0,0.4,0.3,0.7,0.7,0.7s0.7-0.3,0.7-0.7v-2
		C190.2,43.2,189.9,42.9,189.5,42.9z"/>
	<path class="st11" d="M197.7,42.9c-0.4,0-0.7,0.3-0.7,0.7v2c0,0.4,0.3,0.7,0.7,0.7s0.7-0.3,0.7-0.7v-2
		C198.4,43.2,198.1,42.9,197.7,42.9z"/>
	<path class="st11" d="M192.2,36.7c-0.4,0-0.7,0.3-0.7,0.7v2c0,0.4,0.3,0.7,0.7,0.7c0.4,0,0.7-0.3,0.7-0.7v-2
		C193,37,192.6,36.7,192.2,36.7z"/>
	<path class="st11" d="M195,36.7c-0.4,0-0.7,0.3-0.7,0.7v2c0,0.4,0.3,0.7,0.7,0.7s0.7-0.3,0.7-0.7v-2C195.7,37,195.4,36.7,195,36.7z
		"/>
	<path class="st11" d="M189.5,36.7c-0.4,0-0.7,0.3-0.7,0.7v2c0,0.4,0.3,0.7,0.7,0.7s0.7-0.3,0.7-0.7v-2
		C190.2,37,189.9,36.7,189.5,36.7z"/>
	<path class="st11" d="M197.7,36.7c-0.4,0-0.7,0.3-0.7,0.7v2c0,0.4,0.3,0.7,0.7,0.7s0.7-0.3,0.7-0.7v-2
		C198.4,37,198.1,36.7,197.7,36.7z"/>
	<path class="st11" d="M176.9,36.2c0-0.8-0.6-1.4-1.4-1.4c-0.1,0-0.2,0-0.3,0l-4.6,0.9c-0.7,0.1-1.1,0.7-1.1,1.4v2.7
		c-1.1-0.3-2.3,0.3-2.6,1.4c-0.3,1.1,0.3,2.3,1.4,2.6c0.2,0.1,0.4,0.1,0.6,0.1l0,0c1.1,0,2.1-0.9,2.1-2c0,0,0,0,0-0.1v-2.1l4.4-0.9
		v2.7c-1.1-0.3-2.3,0.3-2.6,1.4s0.3,2.3,1.4,2.6c1.1,0.3,2.3-0.3,2.6-1.4c0.1-0.3,0.1-0.6,0.1-0.9L176.9,36.2L176.9,36.2z
		 M168.8,42.5c-0.3,0-0.6-0.3-0.6-0.6l0,0c0-0.3,0.3-0.6,0.6-0.6s0.6,0.3,0.6,0.6C169.5,42.2,169.2,42.5,168.8,42.5z M171,38.2v-1
		l4.4-0.9v1L171,38.2z M174.8,44.2c-0.3,0-0.6-0.3-0.6-0.6s0.3-0.6,0.6-0.6c0.3,0,0.6,0.2,0.6,0.5v0.1c0,0,0,0.1,0,0.1
		C175.4,43.9,175.1,44.2,174.8,44.2z"/>
</g>
<path class="st12" d="M334.1,261.2c0,11.1-9,20.2-20.2,20.2c-11.1,0-20.2-9-20.2-20.2c0-10.6,8.2-19.4,18.8-20.2v20.1H334.1z"/>
<path class="st12" d="M339.2,256.8h-21.5v-20.2c0.4,0,0.9,0,1.3,0C330.2,236.6,339.2,245.7,339.2,256.8L339.2,256.8z"/>
</svg>
