<?xml version="1.0" encoding="utf-8"?>
<!-- Generator: Adobe Illustrator 23.0.1, SVG Export Plug-In . SVG Version: 6.00 Build 0)  -->
<svg version="1.1" id="Layer_1" xmlns="http://www.w3.org/2000/svg" xmlns:xlink="http://www.w3.org/1999/xlink" x="0px" y="0px"
	 viewBox="0 0 561 577.6" style="enable-background:new 0 0 561 577.6;" xml:space="preserve">
<style type="text/css">
	.st0{opacity:0.18;fill:#FB704A;enable-background:new    ;}
	.st1{fill:url(#SVGID_1_);}
	.st2{fill:#FB704A;}
	.st3{opacity:0.69;fill:url(#SVGID_2_);enable-background:new    ;}
	.st4{fill:url(#SVGID_3_);}
	.st5{fill:url(#SVGID_4_);}
	.st6{fill:url(#SVGID_5_);}
	.st7{fill:url(#SVGID_6_);}
	.st8{fill:#FFFFFF;}
	.st9{fill:url(#SVGID_7_);}
	.st10{fill:url(#SVGID_8_);}
	.st11{fill:#3F3D56;}
	.st12{fill:url(#SVGID_9_);}
	.st13{fill:url(#SVGID_10_);}
	.st14{fill:url(#SVGID_11_);}
	.st15{fill:none;stroke:#FFFFFF;stroke-width:4.13;stroke-linecap:round;stroke-miterlimit:10;}
	.st16{fill:url(#SVGID_12_);}
	.st17{fill:url(#SVGID_13_);}
	.st18{fill-rule:evenodd;clip-rule:evenodd;fill:url(#SVGID_14_);}
	.st19{fill-rule:evenodd;clip-rule:evenodd;fill:url(#SVGID_15_);}
	.st20{fill-rule:evenodd;clip-rule:evenodd;fill:url(#SVGID_16_);}
	.st21{fill-rule:evenodd;clip-rule:evenodd;fill:url(#SVGID_17_);}
	.st22{fill-rule:evenodd;clip-rule:evenodd;fill:url(#SVGID_18_);}
</style>
<title>Marketing</title>
<path class="st0" d="M193.8,42.1c-23.2,33.7-29.3,80.9-60.2,110.5c-15.6,15-35.7,24.1-53.8,35.8c-37.5,24.1-67.8,61.3-77,104.8
	c-8.2,37.9,1.5,86.1,32.1,112.5c15.7,13.5,29.1,20.8,40.4,39.6c12.2,20.4,18.8,39,37.4,54.3c18,14.8,38.4,26.6,58.5,38.3
	c21,12.2,42.3,24.6,65.6,31.4c24.3,7.2,49.9,8.2,75.3,8.2c36.2,0.1,74.7-2.2,104.3-23c26.1-18.3,38.5-46.2,52.6-73.4
	s30.8-51,48.2-76.5c16.5-24.1,33.3-48.9,39.5-77.4c3.7-17.8,3.2-36.3-1.6-53.8c-3.9-14.6-2.7-30.8-10.6-43.8
	c-11.1-18.2-25.8-34-43.2-46.3c-17.4-12.2-37.2-20.8-54.7-32.8s-33.4-29-36.9-50c-1.4-7.9-0.9-16-1.9-24
	C404.8,53.2,389,32.7,369,20.1S325.4,2.2,301.8,0.5c-25.1-1.8-51,0.6-73.7,11.4C213.1,19.2,202.3,29.8,193.8,42.1z"/>
<linearGradient id="SVGID_1_" gradientUnits="userSpaceOnUse" x1="112.5717" y1="372.1271" x2="146.4935" y2="372.1271" gradientTransform="matrix(1 0 0 -1 -2.16 577.6)">
	<stop  offset="0" style="stop-color:#ECC4D7"/>
	<stop  offset="0.42" style="stop-color:#EFD4D1"/>
	<stop  offset="1" style="stop-color:#F2EAC9"/>
</linearGradient>
<path class="st1" d="M137.6,208.2c-2.3-3.5-2.8-7.9-4.3-11.9s-4.3-8-8.5-8.4s-7.9,2.8-10.5,6.2c-1.5,1.8-2.7,3.8-3.4,6
	c-1.9,6.1,1.5,12.7,7.7,14.6c0.4,0.1,0.7,0.2,1.1,0.3c2.1,0.4,4.4,0.3,6.3,1.3c1.3,0.8,2.5,1.7,3.5,2.9c2.4,2.3,5.5,4.2,8.9,3.9
	c2.9-0.2,6.8-3.2,5.9-6.5C143.4,213.4,139.3,210.9,137.6,208.2z"/>
<path class="st2" d="M105,278.9v217.9c0,0,0,14.7,14.7,16.3c14.7,1.6,308.7,0,308.7,0s10.9,0.8,16.3-14c5.4-14.8,0-220.3,0-220.3
	L105,278.9z"/>
<linearGradient id="SVGID_2_" gradientUnits="userSpaceOnUse" x1="222.234" y1="45.0823" x2="289.704" y2="221.9023" gradientTransform="matrix(1 0 0 -1 -2.16 577.6)">
	<stop  offset="2.000000e-02" style="stop-color:#FFFFFF;stop-opacity:0"/>
	<stop  offset="0.58" style="stop-color:#FFFFFF;stop-opacity:0.39"/>
	<stop  offset="0.68" style="stop-color:#FFFFFF;stop-opacity:0.68"/>
	<stop  offset="1" style="stop-color:#FFFFFF"/>
</linearGradient>
<path class="st3" d="M105,278.9v217.9c0,0,0,14.7,14.7,16.3c14.7,1.6,308.7,0,308.7,0s10.9,0.8,16.3-14c5.4-14.8,0-220.3,0-220.3
	L105,278.9z"/>
<path class="st2" d="M279.5,130L105,278.9l116.7,100.4c7.3,6.3,16.6,9.7,26.2,9.7h58.6c6.6,0,13.1-2.4,18.1-6.7l120.2-103.4
	L279.5,130z"/>
<linearGradient id="SVGID_3_" gradientUnits="userSpaceOnUse" x1="279.9791" y1="390.1" x2="269.1391" y2="59.63" gradientTransform="matrix(1 0 0 -1 -2.16 577.6)">
	<stop  offset="0" style="stop-color:#000000;stop-opacity:0"/>
	<stop  offset="0.99" style="stop-color:#000000"/>
</linearGradient>
<path class="st4" d="M279.5,130L105,278.9l115,99c8.3,7.2,19,11.1,30,11.1h53.9c8.3,0,16.4-3,22.7-8.4l118.1-101.7L279.5,130z"/>
<path class="st2" d="M355.1,245.7c0,0.3-0.1,0.6-0.1,0.8c-2.3,13.2-9.4,25.1-19.9,33.4c-5.7,4.5-12.6,8.2-16.1,14.6
	c-2.2,4-2.7,8.7-3.2,13.3c-2.6,26.8-3.7,52.9-0.8,79.6l-8,1.6h-32.9c-3.2,0-13.1,0.9-21.9,0.8h-0.1c-7,0-13.4-0.6-15.1-2.7
	c-0.1-0.1-0.1-0.1-0.2-0.2c-0.1-0.1-0.2-0.2-0.2-0.3c-0.1-0.1-0.2-0.3-0.2-0.4s-0.2-0.4-0.3-0.5l-0.1-0.2
	c-2.3-5.3-2.1-14.5-2.7-19.6c-0.8-7.3-1.2-14.7-2.1-22.1c-1.7-14.9-5.1-30.1-14.2-42c-1.3-1.7-3.7-4.4-6.8-7.6
	c-10.8-11.4-29.8-29.7-37-36.1c-1.2-1-42.2-32.7-42.6-34.2c-1-4.3,11.1-10.2,13-14.2c13.5,7.8,66.8,46.1,80.3,53.9
	c6.5,3.8,13.2,7.6,20.5,9.4c15.4,3.8,31.4-1.7,46.4-7.1c10.2-3.7,23.9-9.4,34.7-16c4.6-2.9,11.7-8.4,5.1-8.2
	c-11.1,0.4-22.9-0.4-32.1,0.1c-1,0.2-2,0-2.7-0.6c-0.5-0.7-0.7-1.5-0.5-2.4c0.4-8.1-0.9-8.3,1.6-15.9c9.7,2.4,21.4,0.3,31.4,0.4
	c10.7,0.1,15.2-1.4,22,5.9c1.8,1.8,3.2,4,4.2,6.4C355.8,238.7,355.6,242.3,355.1,245.7z"/>
<linearGradient id="SVGID_4_" gradientUnits="userSpaceOnUse" x1="177.9382" y1="1050.5933" x2="209.2897" y2="1050.5933" gradientTransform="matrix(0.9565 0.2919 0.2919 -0.9565 -232.3065 1215.5815)">
	<stop  offset="0" style="stop-color:#ECC4D7"/>
	<stop  offset="0.42" style="stop-color:#EFD4D1"/>
	<stop  offset="1" style="stop-color:#F2EAC9"/>
</linearGradient>
<path class="st5" d="M250.8,274.1c2.6,4.2,1.9,7,5.8,10.1c1.8,1.5,9.7,3,12.7,0.7c3.8-2.9,3.4-11.3,3.4-11.9c0-0.9-0.2-1.9-0.6-2.7
	c-1.3-2.8-2.4-5.6-3.3-8.4c-1-2.9-1.1-6-0.4-9c-1.7-1.7-4-2.6-6.4-2.5c-2.2,0.3-4.4,1.1-6.2,2.4c-1.4,1-5.9-6.2-6.8-4.7
	C248.2,249.4,250.7,270.6,250.8,274.1z"/>
<linearGradient id="SVGID_5_" gradientUnits="userSpaceOnUse" x1="267.9449" y1="411.3848" x2="214.1749" y2="377.3948" gradientTransform="matrix(0.9994 3.594604e-02 3.594604e-02 -0.9994 -17.0287 656.4723)">
	<stop  offset="0" style="stop-color:#ECC4D7"/>
	<stop  offset="0.42" style="stop-color:#EFD4D1"/>
	<stop  offset="1" style="stop-color:#F2EAC9"/>
</linearGradient>
<path class="st6" d="M248.7,244.3c0,0,4.2,20.6,12.3,25.3c8.1,4.7,11.6,1.8,11.6,1.8l-6.2-15.6L248.7,244.3z"/>
<linearGradient id="SVGID_6_" gradientUnits="userSpaceOnUse" x1="-106.4833" y1="-787.0182" x2="-66.4465" y2="-787.0182" gradientTransform="matrix(0.8921 -0.4518 -0.4518 -0.8921 -30.4672 -500.5186)">
	<stop  offset="0" style="stop-color:#ECC4D7"/>
	<stop  offset="0.42" style="stop-color:#EFD4D1"/>
	<stop  offset="1" style="stop-color:#F2EAC9"/>
</linearGradient>
<path class="st7" d="M263.5,262c1.7,0.2,3.3,0.1,4.9-0.3c4-1.3,5.9-6.2,5.4-11s-2.9-9.4-5.6-13.5c-3.3-5.2-7.2-10.1-11.5-14.6
	c-2.3-2.6-5-4.8-8-6.5c-4-2.1-8.7-2.3-12.9-0.7c-4,1.7-7.2,4.7-9.1,8.6c-2.1,3.9-2.8,8.4-2.2,12.8C227.3,253.7,250.9,261,263.5,262z
	"/>
<path class="st8" d="M276.5,234.4c-1.4,0.9-3.3,0.5-4.7-0.3c-2.2-1.1-3.8-3.1-4.6-5.4c-0.8-2.3-0.5-4.9,0.8-7c1-1.5,2.5-2.8,2.8-4.6
	c0,0,11.7-9.3,13.8-22.5s15.5-1,15.5-1S315,206.8,308,215c-1.4,1.5-3.6,2.2-5.6,1.7c-3-0.6-8.9-0.1-17.4,7.9L276.5,234.4z"/>
<linearGradient id="SVGID_7_" gradientUnits="userSpaceOnUse" x1="277.6982" y1="344.8573" x2="299.4907" y2="344.8573" gradientTransform="matrix(1 0 0 -1 -2.16 577.6)">
	<stop  offset="0" style="stop-color:#ECC4D7"/>
	<stop  offset="0.42" style="stop-color:#EFD4D1"/>
	<stop  offset="1" style="stop-color:#F2EAC9"/>
</linearGradient>
<path class="st9" d="M285,224.6c-1.5-0.2-3.1-0.1-4.5,0.5c-1.6,0.9-2.8,2.2-3.6,3.8c-0.7,1.1-1.2,2.4-1.3,3.8c0,1.8,0.9,3.4,1.9,4.9
	c0.5,1,1.3,1.9,2.2,2.6c1,0.5,2.1,0.8,3.2,0.8c1.8,0.2,3.8,0.3,5.3-0.6c0.6-0.5,1.2-0.9,1.9-1.3c1.9-0.8,4.4,0.7,5.9-0.7
	c0.6-0.8,0.9-1.7,0.9-2.7l0.4-5.8c0.1-1.6,0.8-3.4-0.9-3.9C293,224.7,288.4,224.6,285,224.6z"/>
<path class="st8" d="M287.7,236.3c0,0,11.6,11.9,15,11.9s-4.7,11.4-8.5,9.3s-11.5-16.6-11.5-16.6s2.1-4.5,3.2-4.9
	C286.6,235.8,287.3,235.9,287.7,236.3z"/>
<ellipse transform="matrix(0.769 -0.6393 0.6393 0.769 -60.0132 237.0421)" class="st2" cx="297.9" cy="201.5" rx="6.2" ry="15.1"/>
<linearGradient id="SVGID_8_" gradientUnits="userSpaceOnUse" x1="302.6638" y1="377.8189" x2="286.3838" y2="366.4489" gradientTransform="matrix(1 0 0 -1 -2.1826 577.5937)">
	<stop  offset="0" style="stop-color:#000000;stop-opacity:0"/>
	<stop  offset="0.99" style="stop-color:#000000"/>
</linearGradient>
<path class="st10" d="M288.3,190c2.6-2.2,9.1,1.2,14.4,7.6c5.3,6.4,7.5,13.4,4.9,15.5c-2.6,2.2-9.1-1.2-14.4-7.6
	C287.9,199.1,285.7,192.2,288.3,190z"/>
<path class="st11" d="M249.3,212.6c-0.9,3.6-3,6.9-5.9,9.2c-1.7,1.4-3.6,2.6-5.2,4.1c-1.7,1.4-3,3.3-3.7,5.4c-0.5,2.7,0,5.5,1.5,7.8
	c1.5,2.3,3.1,4.5,4.9,6.5c0.5,0.5,0.7,1.1,0.6,1.8c-0.2,0.7-1.1,0.9-1.9,0.9c-0.9-0.1-1.8-0.3-2.6-0.8c-0.4-0.3-0.9-0.5-1.4-0.6
	c-0.9,0-1.6,0.8-1.6,1.7c0,0.9,0.3,1.7,0.9,2.4c1.8,2.5,4.5,4,7.5,4.2c0.2,0.6-0.2,1.3-0.8,1.4c0,0,0,0,0,0
	c-0.6,0.1-1.2,0.1-1.8-0.1c-1.6-0.4-3.1-1-4.6-1.6l-5.8-2.2c-2.3-0.9-4.6-1.7-6.9-2.7c-1.8-0.6-3.4-1.6-4.7-2.9
	c-1.4-1.6-2-3.9-2.3-6c-0.5-2.1-0.5-4.3,0.1-6.3c0.6-1.9,2.1-3.6,2.2-5.6s-1.1-4-2.1-5.8c-1.1-2.2-1.9-4.7-1.1-7
	c0.7-1.8,2-3.3,3.6-4.2c1.7-0.9,3.5-1.5,5.4-1.8c1.6-0.3,3.4-0.5,4.7-1.6c2.9-2.5,1.4-8,4.4-10.3c3.2-2.5,8.4,0.7,11.4,2.3
	C248.2,203,250.5,207.9,249.3,212.6z"/>
<path class="st2" d="M119.7,513.1L212,412c13.3-14.6,32.2-23,52.1-23h21.3c20,0,39,8.5,52.4,23.3l90.7,100.8L119.7,513.1z"/>
<linearGradient id="SVGID_9_" gradientUnits="userSpaceOnUse" x1="280.8745" y1="73.4429" x2="468.5645" y2="433.7528" gradientTransform="matrix(1 0 0 -1 -2.16 577.6)">
	<stop  offset="0" style="stop-color:#000000;stop-opacity:0"/>
	<stop  offset="0.99" style="stop-color:#000000"/>
</linearGradient>
<path class="st12" d="M119.7,513.1l91.8-100.7c13.6-14.9,32.9-23.4,53.1-23.4h20c20.4,0,39.8,8.7,53.4,23.8l90.2,100.3H119.7z"/>
<path class="st2" d="M485,178.1c0,25.7-20.8,46.5-46.5,46.6c-25.7,0-46.5-20.8-46.6-46.5c0-24.5,19-44.8,43.4-46.5v46.4H485z"/>
<path class="st2" d="M490,172.7h-49.6v-46.5c1-0.1,2.1-0.1,3.1-0.1C469.2,126.1,490,147,490,172.7C490,172.7,490,172.7,490,172.7z"
	/>
<linearGradient id="SVGID_10_" gradientUnits="userSpaceOnUse" x1="500.8443" y1="441.099" x2="330.2243" y2="374.919" gradientTransform="matrix(1 0 0 -1 -2.16 577.6)">
	<stop  offset="0" style="stop-color:#000000;stop-opacity:0"/>
	<stop  offset="0.99" style="stop-color:#000000"/>
</linearGradient>
<path class="st13" d="M490,172.7h-49.6v-46.5c1-0.1,2.1-0.1,3.1-0.1C469.2,126.1,490,147,490,172.7C490,172.7,490,172.7,490,172.7z"
	/>
<path class="st2" d="M495.7,255.7h52.5c7.1,0,12.8,5.7,12.8,12.8v29.2c0,7.1-5.7,12.8-12.8,12.8h-52.5c-7.1,0-12.8-5.7-12.8-12.8
	v-29.2C482.9,261.4,488.6,255.7,495.7,255.7z"/>
<linearGradient id="SVGID_11_" gradientUnits="userSpaceOnUse" x1="533.4498" y1="328.4601" x2="474.5098" y2="180.5301" gradientTransform="matrix(1 0 0 -1 0 577.89)">
	<stop  offset="0" style="stop-color:#000000;stop-opacity:0"/>
	<stop  offset="0.99" style="stop-color:#000000"/>
</linearGradient>
<polygon class="st14" points="509,271.7 509,296 535.9,282.3 "/>
<polygon class="st2" points="524.7,189.2 524,201 513.3,207.2 524.9,213 526.1,225.8 536.8,214 548.6,215.1 543,206.4 545.1,193.8 
	534,198.3 "/>
<rect x="11.9" y="171.5" class="st2" width="10.9" height="34.9"/>
<rect x="27.2" y="185.4" class="st2" width="10.9" height="21"/>
<rect x="42.5" y="177.7" class="st2" width="10.9" height="28.7"/>
<line class="st15" x1="310.9" y1="167.6" x2="304.7" y2="178.9"/>
<line class="st15" x1="323.9" y1="178.1" x2="312.4" y2="186.3"/>
<line class="st15" x1="332.4" y1="192.5" x2="318" y2="196.3"/>
<linearGradient id="SVGID_12_" gradientUnits="userSpaceOnUse" x1="285.9207" y1="250.0577" x2="-16.5093" y2="177.4977" gradientTransform="matrix(1 0 0 -1 -2.16 577.6)">
	<stop  offset="0" style="stop-color:#000000;stop-opacity:0"/>
	<stop  offset="0.99" style="stop-color:#000000"/>
</linearGradient>
<path class="st16" d="M260.1,388.5c-2.6,0.6-5.2,1-7.9,1.4h-0.1c-5.6,0.6-12.7,0.6-15.1-2.7c-0.1-0.1-0.1-0.1-0.2-0.2
	c-0.1-0.1-0.2-0.2-0.2-0.3c-0.1-0.1-0.2-0.3-0.2-0.4s-0.2-0.4-0.3-0.5l-0.1-0.2c-2.3-5.3-2.1-14.5-2.7-19.6
	c-0.8-7.3-1.2-14.7-2.1-22.1c-1.7-14.9-5.1-30.1-14.2-42c-1.3-1.7-6.8-8-9.9-11.2l4.3,1.8c0,0,33.6,14.5,36.7,27.9
	S260.1,388.5,260.1,388.5z"/>
<linearGradient id="SVGID_13_" gradientUnits="userSpaceOnUse" x1="338.2627" y1="322.7799" x2="335.3927" y2="235.1499" gradientTransform="matrix(1 0 0 -1 -2.16 577.6)">
	<stop  offset="0" style="stop-color:#000000;stop-opacity:0"/>
	<stop  offset="0.99" style="stop-color:#000000"/>
</linearGradient>
<path class="st17" d="M354.9,246.5c-2.3,13.2-9.4,25.1-19.9,33.4c-5.7,4.5-12.6,8.2-16.1,14.6c-2.2,4-2.7,8.7-3.2,13.3
	c0,0,1.1-21.9,8.9-29.1s28-28.8,29.5-38.6C354.6,242.3,354.9,244.4,354.9,246.5z"/>
<g>
	<linearGradient id="SVGID_14_" gradientUnits="userSpaceOnUse" x1="186.2076" y1="124.9925" x2="114.81" y2="97.2988">
		<stop  offset="0" style="stop-color:#FB704A"/>
		<stop  offset="0.99" style="stop-color:#BD5437"/>
	</linearGradient>
	<path class="st18" d="M187.4,90c3.2,5.6,5,11.8,5.2,18.5l-11.1,6.4c0.7-0.2,1.3,0.3,1.9,1.4c0.4,0.7,0.3,1.3-0.5,1.8l-9.9,5.7
		c-0.7,0.4-1.5,0-2.2-1.3c-0.3-0.6-0.2-1.1,0.2-1.6l-26.5,15.3c0.7-0.2,1.3,0.3,1.9,1.4c0.4,0.7,0.3,1.3-0.5,1.8l-9.9,5.7
		c-0.7,0.4-1.5,0-2.2-1.3c-0.3-0.6-0.3-1.1,0.2-1.6l-9.3,5.4c-6.2-3.9-10.8-8.6-13.9-14c-3-5.2-4.3-10.7-3.7-16.5
		c9.2-7.1,19.3-13.8,30.3-20.1c5.3-3.1,10.8-6.1,16.4-9.1l-3-18.7c-0.8,0-1.4-0.4-1.8-1c-0.7-1.2-0.5-2.2,0.7-2.9
		c1.2-0.7,2.2-0.4,2.9,0.8c0.7,1.3,0.5,2.2-0.7,2.9l-0.1,0l3.5,18.1c4-2.1,10.6-5.2,19.7-9.2C180.1,80.5,184.3,84.6,187.4,90z
		 M147.2,129.7l-3.3,1.9l-0.5,3.2l3.8-2.2L147.2,129.7z M171,119l-2.8-1.3l-3.2,1.9l2.5,1.5L171,119z M166.2,121.7l-2.3-1.6
		l-3.6,2.1l2,1.8L166.2,121.7z M161.2,124.6l-1.9-1.9l-3.5,2l1.3,2.2L161.2,124.6z M155.2,125.1l-3.3,1.9l0.7,2.5l3.8-2.2
		L155.2,125.1z M151.2,127.4l-3.2,1.9l0.3,2.8l3.6-2.1L151.2,127.4z M167.3,114l-8.8-15.3c-0.5-0.9-1.3-1-2.4-0.3l-23.5,13.6
		c-0.9,0.5-1,1.2-0.5,2.1l8.8,15.3c0.5,0.9,1.2,1.1,2.1,0.6l23.9-13.8C167.6,115.6,167.8,114.9,167.3,114z M156,97l-3.5-6.1
		l-24.9,14.3l3.5,6.1L156,97z M115.9,113.6c-2.6,1.5-4.2,3.7-4.8,6.7c-0.6,3-0.2,5.7,1.3,8.3c1.5,2.6,3.6,4.3,6.5,5.3
		c2.9,1,5.7,0.7,8.2-0.8c2.6-1.5,4.1-3.7,4.8-6.7c0.6-2.9,0.1-5.6-1.4-8.2c-1.5-2.6-3.6-4.4-6.4-5.3
		C121.2,111.9,118.5,112.1,115.9,113.6z M166.6,84.3c-2.6,1.5-4.2,3.7-4.7,6.7c-0.6,3-0.2,5.7,1.3,8.3c1.5,2.6,3.6,4.3,6.4,5.3
		c2.9,1,5.7,0.7,8.2-0.8c2.6-1.5,4.2-3.7,4.8-6.8c0.6-2.9,0.2-5.6-1.3-8.2c-1.5-2.6-3.6-4.3-6.4-5.3
		C171.9,82.6,169.2,82.9,166.6,84.3z"/>
	<linearGradient id="SVGID_15_" gradientUnits="userSpaceOnUse" x1="130.4826" y1="126.8584" x2="112.6018" y2="119.9228">
		<stop  offset="0" style="stop-color:#FB704A"/>
		<stop  offset="0.99" style="stop-color:#BD5437"/>
	</linearGradient>
	<path class="st19" d="M126.5,131.9c-2.3,1.3-4.6,1.5-7.1,0.7c-2.5-0.8-4.4-2.4-5.7-4.7c-1.3-2.3-1.7-4.7-1.2-7.3
		c0.5-2.6,1.9-4.5,4.1-5.8c2.2-1.3,4.6-1.5,7.1-0.6c2.5,0.8,4.4,2.4,5.7,4.7c1.3,2.3,1.7,4.7,1.2,7.2
		C130.1,128.7,128.7,130.7,126.5,131.9z"/>
	<linearGradient id="SVGID_16_" gradientUnits="userSpaceOnUse" x1="181.1891" y1="97.5878" x2="163.3177" y2="90.6559">
		<stop  offset="0" style="stop-color:#FB704A"/>
		<stop  offset="0.99" style="stop-color:#BD5437"/>
	</linearGradient>
	<path class="st20" d="M177.2,102.7c-2.2,1.3-4.6,1.5-7.2,0.7c-2.4-0.9-4.3-2.4-5.6-4.7c-1.3-2.3-1.7-4.7-1.2-7.2
		c0.5-2.7,1.9-4.6,4.1-5.9c2.2-1.3,4.6-1.5,7.1-0.6c2.5,0.8,4.4,2.4,5.7,4.7c1.3,2.3,1.7,4.7,1.2,7.2
		C180.8,99.4,179.4,101.4,177.2,102.7z"/>
	<linearGradient id="SVGID_17_" gradientUnits="userSpaceOnUse" x1="164.8517" y1="119.9265" x2="134.3778" y2="108.1063">
		<stop  offset="0" style="stop-color:#FB704A"/>
		<stop  offset="0.99" style="stop-color:#BD5437"/>
	</linearGradient>
	<path class="st21" d="M166.6,114.2c0.4,0.6,0.2,1.1-0.3,1.4l-23.5,13.6c-0.6,0.3-1.1,0.2-1.4-0.4l-8.6-15c-0.4-0.6-0.2-1.1,0.3-1.4
		L156.1,99c0.8-0.5,1.4-0.4,1.8,0.2L166.6,114.2z M157.7,108.6L155,104l-16.2,9.4l2.7,4.6L157.7,108.6z"/>
	<linearGradient id="SVGID_18_" gradientUnits="userSpaceOnUse" x1="150.6296" y1="105.4429" x2="134.1119" y2="99.0361">
		<stop  offset="0" style="stop-color:#FB704A"/>
		<stop  offset="0.99" style="stop-color:#BD5437"/>
	</linearGradient>
	<polygon class="st22" points="154,96.7 138.7,105.5 139.1,106.3 138.4,106.7 138,105.9 131.7,109.6 130.7,107.8 131.1,107.6 
		131.9,108.9 135.5,106.8 134.7,105.5 135.1,105.3 135.9,106.6 137.8,105.5 135.6,101.8 136.3,101.3 138.5,105.1 139.5,104.5 
		138.7,103.2 139.1,103 139.9,104.3 143.1,102.4 142.3,101.1 142.7,100.9 143.5,102.2 146.4,100.5 145.6,99.2 146,99 146.8,100.3 
		149.6,98.7 148.8,97.4 149.2,97.2 150,98.5 153.4,96.5 152.6,95.2 153,94.9 	"/>
</g>
</svg>
