<?xml version="1.0" encoding="utf-8"?>
<!-- Generator: Adobe Illustrator 23.0.1, SVG Export Plug-In . SVG Version: 6.00 Build 0)  -->
<svg version="1.1" id="Layer_1" xmlns="http://www.w3.org/2000/svg" xmlns:xlink="http://www.w3.org/1999/xlink" x="0px" y="0px"
	 viewBox="0 0 566.9 597" style="enable-background:new 0 0 566.9 597;" xml:space="preserve">
<style type="text/css">
	.st0{opacity:0.18;fill:#E80016;enable-background:new    ;}
	.st1{fill:#E80016;}
	.st2{fill:url(#SVGID_1_);}
	.st3{fill:url(#SVGID_2_);}
	.st4{fill:url(#SVGID_3_);}
	.st5{fill:url(#SVGID_4_);}
	.st6{fill:url(#SVGID_5_);}
	.st7{fill:url(#SVGID_6_);}
	.st8{fill:url(#SVGID_7_);}
	.st9{fill:url(#SVGID_8_);}
	.st10{fill:url(#SVGID_9_);}
	.st11{fill:url(#SVGID_10_);}
	.st12{fill:url(#SVGID_11_);}
	.st13{fill:url(#SVGID_12_);}
	.st14{fill:url(#SVGID_13_);}
	.st15{fill:url(#SVGID_14_);}
	.st16{fill:url(#SVGID_15_);}
	.st17{fill:url(#SVGID_16_);}
	.st18{fill:url(#SVGID_17_);}
	.st19{fill:url(#SVGID_18_);}
	.st20{fill:url(#SVGID_19_);}
	.st21{fill:url(#SVGID_20_);}
	.st22{fill:url(#SVGID_21_);}
	.st23{opacity:0.19;fill:url(#SVGID_22_);enable-background:new    ;}
	.st24{fill:url(#SVGID_23_);}
	.st25{fill:url(#SVGID_24_);}
	.st26{fill:url(#SVGID_25_);}
	.st27{fill:url(#SVGID_26_);}
	.st28{fill:url(#SVGID_27_);}
	.st29{fill:url(#SVGID_28_);}
	.st30{fill:url(#SVGID_29_);}
	.st31{fill:url(#SVGID_30_);}
	.st32{fill:url(#SVGID_31_);}
	.st33{fill:url(#SVGID_32_);}
	.st34{fill:url(#SVGID_33_);}
	.st35{fill:url(#SVGID_34_);}
	.st36{fill:url(#SVGID_35_);}
	.st37{fill:url(#SVGID_36_);}
	.st38{fill:url(#SVGID_37_);}
	.st39{fill:#25233A;}
	.st40{fill:url(#SVGID_38_);}
	.st41{fill:url(#SVGID_39_);}
	.st42{fill:url(#SVGID_40_);}
	.st43{fill:url(#SVGID_41_);}
	.st44{fill:url(#SVGID_42_);}
	.st45{fill:url(#SVGID_43_);}
	.st46{fill:url(#SVGID_44_);}
	.st47{fill:url(#SVGID_45_);}
	.st48{fill:url(#SVGID_46_);}
</style>
<title>6. savings</title>
<path class="st0" d="M86.2,153.2c-10,37.7-49.9,74.1-57.3,112.4c-6.9,35.5,16.4,70.3,44.8,92.8s62.3,36.9,90.3,59.8
	c27.6,22.6,48.2,52.5,73.8,77.4c25.6,24.9,59.4,45.4,94.9,41.6c61.2-6.6,90.9-75.9,135.1-118.6c37.2-36,93.8-62.9,98.7-114.5
	c3-31.2-15.3-60.1-33.1-85.9c-34.8-50.2-102-52.8-157.8-79.4C318.9,111.8,125.7,4.2,86.2,153.2z"/>
<path class="st1" d="M506.7,487.7c0,16.9-44.7,30.5-99.8,30.5s-99.8-13.7-99.8-30.5c0-1.6-0.8-16.8,0-18.3
	c7.5-14.6,50-12.2,99.8-12.2c48.2,0,90.5-1.7,99.8,12.2C508.1,471.4,506.7,485.6,506.7,487.7z"/>
<linearGradient id="SVGID_1_" gradientUnits="userSpaceOnUse" x1="435.97" y1="-59.7423" x2="636.5722" y2="-59.7423" gradientTransform="matrix(1 0 0 -1 -109.39 427.89)">
	<stop  offset="0" style="stop-color:#000000"/>
	<stop  offset="1" style="stop-color:#000000;stop-opacity:0"/>
</linearGradient>
<path class="st2" d="M506.7,487.7c0,16.9-44.7,30.5-99.8,30.5s-99.8-13.7-99.8-30.5c0-1.6-0.8-16.8,0-18.3
	c7.5-14.6,50-12.2,99.8-12.2c48.2,0,90.5-1.7,99.8,12.2C508.1,471.4,506.7,485.6,506.7,487.7z"/>
<ellipse class="st1" cx="406.9" cy="469.4" rx="99.8" ry="30.5"/>
<linearGradient id="SVGID_2_" gradientUnits="userSpaceOnUse" x1="516.6929" y1="2.1799" x2="516.3629" y2="-27.98" gradientTransform="matrix(1 0 0 -1 -109.39 427.89)">
	<stop  offset="0" style="stop-color:#68E1FD"/>
	<stop  offset="1" style="stop-color:#69B9EB"/>
</linearGradient>
<path class="st3" d="M486.4,464.4c0,1.3-0.4,2.6-1,3.7c-6,11.1-38.9,19.6-78.5,19.6s-72.5-8.5-78.5-19.6c-0.6-1.1-1-2.4-1-3.7
	c0-12.9,35.6-23.3,79.5-23.3S486.4,451.5,486.4,464.4z"/>
<path class="st1" d="M485.4,468.1c-6,11.1-38.9,19.6-78.5,19.6s-72.5-8.5-78.5-19.6c6-11.1,38.9-19.6,78.5-19.6
	S479.4,456.9,485.4,468.1z"/>
<linearGradient id="SVGID_3_" gradientUnits="userSpaceOnUse" x1="526.2139" y1="-74.5689" x2="519.5939" y2="-51.6289" gradientTransform="matrix(1 0 0 -1 -109.39 427.89)">
	<stop  offset="0" style="stop-color:#000000"/>
	<stop  offset="0.84" style="stop-color:#000000;stop-opacity:0"/>
</linearGradient>
<path class="st4" d="M485.4,468.1c-6,11.1-38.9,19.6-78.5,19.6s-72.5-8.5-78.5-19.6c6-11.1,38.9-19.6,78.5-19.6
	S479.4,456.9,485.4,468.1z"/>
<path class="st1" d="M524.5,443.1c0,16.9-44.7,30.5-99.8,30.5s-99.8-13.7-99.8-30.5c0-1.6-0.8-16.8,0-18.3
	c7.5-14.6,50-12.2,99.8-12.2c48.2,0,90.5-1.7,99.8,12.2C525.8,426.7,524.5,441,524.5,443.1z"/>
<linearGradient id="SVGID_4_" gradientUnits="userSpaceOnUse" x1="453.47" y1="-15.0965" x2="654.0723" y2="-15.0965" gradientTransform="matrix(1 0 0 -1 -109.39 427.89)">
	<stop  offset="0" style="stop-color:#000000"/>
	<stop  offset="1" style="stop-color:#000000;stop-opacity:0"/>
</linearGradient>
<path class="st5" d="M524.5,443.1c0,16.9-44.7,30.5-99.8,30.5s-99.8-13.7-99.8-30.5c0-1.6-0.8-16.8,0-18.3
	c7.5-14.6,50-12.2,99.8-12.2c48.2,0,90.5-1.7,99.8,12.2C525.8,426.7,524.5,441,524.5,443.1z"/>
<ellipse class="st1" cx="424.6" cy="424.7" rx="99.8" ry="30.5"/>
<linearGradient id="SVGID_5_" gradientUnits="userSpaceOnUse" x1="446.8694" y1="-27.0705" x2="467.8593" y2="-55.5804" gradientTransform="matrix(1 0 0 -1 0 427.89)">
	<stop  offset="0.32" style="stop-color:#FFFFFF;stop-opacity:0"/>
	<stop  offset="1" style="stop-color:#FFFFFF"/>
</linearGradient>
<ellipse class="st6" cx="424.6" cy="424.7" rx="99.8" ry="30.5"/>
<linearGradient id="SVGID_6_" gradientUnits="userSpaceOnUse" x1="576.042" y1="64.7685" x2="553.102" y2="33.8885" gradientTransform="matrix(1 0 0 -1 -109.39 427.89)">
	<stop  offset="0" style="stop-color:#000000"/>
	<stop  offset="1" style="stop-color:#000000;stop-opacity:0"/>
</linearGradient>
<path class="st7" d="M504.1,419.7c0,1.3-0.4,2.6-1,3.7c-6,11.1-38.9,19.6-78.5,19.6s-72.5-8.5-78.5-19.6c-0.6-1.1-1-2.4-1-3.7
	c0-12.9,35.6-23.3,79.5-23.3S504.1,406.9,504.1,419.7z"/>
<linearGradient id="SVGID_7_" gradientUnits="userSpaceOnUse" x1="585.0017" y1="62.1585" x2="529.4918" y2="-0.6416" gradientTransform="matrix(1 0 0 -1 -109.39 427.89)">
	<stop  offset="0" style="stop-color:#000000"/>
	<stop  offset="0.84" style="stop-color:#000000;stop-opacity:0"/>
</linearGradient>
<path class="st8" d="M503.2,423.4c-6,11.1-38.9,19.6-78.6,19.6s-72.5-8.5-78.5-19.6c6-11.1,38.9-19.6,78.5-19.6
	S497.1,412.3,503.2,423.4z"/>
<path class="st1" d="M495.1,403.4c0,16.9-44.7,30.5-99.8,30.5s-99.8-13.7-99.8-30.5c0-1.6-0.8-16.8,0-18.3
	c7.5-14.6,50-12.2,99.8-12.2c48.2,0,90.5-1.7,99.8,12.2C496.4,387,495.1,401.3,495.1,403.4z"/>
<linearGradient id="SVGID_8_" gradientUnits="userSpaceOnUse" x1="568.5609" y1="10.5129" x2="595.4708" y2="2.6629" gradientTransform="matrix(1 0 0 -1 -109.39 427.89)">
	<stop  offset="0" style="stop-color:#000000"/>
	<stop  offset="1" style="stop-color:#000000;stop-opacity:0"/>
</linearGradient>
<path class="st9" d="M495.1,403.4c0,16.9-44.7,30.5-99.8,30.5s-99.8-13.7-99.8-30.5c0-1.6-0.8-16.8,0-18.3
	c7.5-14.6,50-12.2,99.8-12.2c48.2,0,90.5-1.7,99.8,12.2C496.4,387,495.1,401.3,495.1,403.4z"/>
<ellipse class="st1" cx="395.2" cy="385.1" rx="99.8" ry="30.5"/>
<linearGradient id="SVGID_9_" gradientUnits="userSpaceOnUse" x1="505.0458" y1="86.51" x2="504.7058" y2="56.3501" gradientTransform="matrix(1 0 0 -1 -109.39 427.89)">
	<stop  offset="0" style="stop-color:#68E1FD"/>
	<stop  offset="1" style="stop-color:#69B9EB"/>
</linearGradient>
<path class="st10" d="M474.8,380.1c0,1.3-0.4,2.6-1,3.7c-6,11.1-38.9,19.6-78.5,19.6s-72.5-8.5-78.5-19.6c-0.6-1.1-1-2.4-1-3.7
	c0-12.9,35.6-23.3,79.5-23.3S474.8,367.2,474.8,380.1z"/>
<linearGradient id="SVGID_10_" gradientUnits="userSpaceOnUse" x1="426.09" y1="44.15" x2="583.17" y2="44.15" gradientTransform="matrix(1 0 0 -1 -109.39 427.89)">
	<stop  offset="0" style="stop-color:#68E1FD"/>
	<stop  offset="1" style="stop-color:#69B9EB"/>
</linearGradient>
<path class="st11" d="M473.8,383.7c-6,11.1-38.9,19.6-78.6,19.6s-72.5-8.5-78.5-19.6c6-11.1,38.9-19.6,78.5-19.6
	S467.8,372.6,473.8,383.7z"/>
<path class="st1" d="M513,361.2c0,16.9-44.7,30.5-99.8,30.5s-99.8-13.7-99.8-30.5c0-1.6-0.8-16.8,0-18.3c7.5-14.6,50-12.2,99.8-12.2
	c48.2,0,90.5-1.7,99.8,12.2C514.3,344.9,513,359.1,513,361.2z"/>
<linearGradient id="SVGID_11_" gradientUnits="userSpaceOnUse" x1="446.67" y1="66.7435" x2="647.2545" y2="66.7435" gradientTransform="matrix(1 0 0 -1 -109.39 427.89)">
	<stop  offset="0" style="stop-color:#000000"/>
	<stop  offset="1" style="stop-color:#000000;stop-opacity:0"/>
</linearGradient>
<path class="st12" d="M513,361.2c0,16.9-44.7,30.5-99.8,30.5s-99.8-13.7-99.8-30.5c0-1.6-0.8-16.8,0-18.3
	c7.5-14.6,50-12.2,99.8-12.2c48.2,0,90.5-1.7,99.8,12.2C514.3,344.9,513,359.1,513,361.2z"/>
<ellipse class="st1" cx="413.1" cy="342.9" rx="99.8" ry="30.5"/>
<linearGradient id="SVGID_12_" gradientUnits="userSpaceOnUse" x1="470.8602" y1="96.3801" x2="498.1802" y2="63.9102" gradientTransform="matrix(1 0 0 -1 0 427.89)">
	<stop  offset="0.32" style="stop-color:#FFFFFF;stop-opacity:0"/>
	<stop  offset="1" style="stop-color:#FFFFFF"/>
</linearGradient>
<ellipse class="st13" cx="448.2" cy="304.6" rx="99.8" ry="30.5"/>
<linearGradient id="SVGID_13_" gradientUnits="userSpaceOnUse" x1="434.8987" y1="539.8595" x2="418.1487" y2="586.3195" gradientTransform="matrix(1 0 0 1 0 -243.89)">
	<stop  offset="0" style="stop-color:#000000"/>
	<stop  offset="1" style="stop-color:#000000;stop-opacity:0"/>
</linearGradient>
<path class="st14" d="M498.7,339.5c0,1.3-0.4,2.6-1,3.7c-6,11.1-38.9,19.6-78.5,19.6s-72.5-8.5-78.5-19.6c-0.6-1.1-1-2.4-1-3.7
	c0-12.9,35.6-23.3,79.5-23.3S498.7,326.6,498.7,339.5z"/>
<linearGradient id="SVGID_14_" gradientUnits="userSpaceOnUse" x1="554.1398" y1="132.1001" x2="533.9598" y2="94.5401" gradientTransform="matrix(1 0 0 -1 -109.39 427.89)">
	<stop  offset="0" style="stop-color:#000000"/>
	<stop  offset="1" style="stop-color:#000000;stop-opacity:0"/>
</linearGradient>
<path class="st15" d="M497.8,343.3c-6,11.1-38.9,19.6-78.5,19.6s-72.5-8.5-78.5-19.6c6-11.1,38.9-19.6,78.5-19.6
	S491.7,332.1,497.8,343.3z"/>
<path class="st1" d="M513,319.1c0,16.9-44.7,30.5-99.8,30.5s-99.8-13.7-99.8-30.5c0-1.6-0.8-16.8,0-18.3c7.5-14.6,50-12.2,99.8-12.2
	c48.2,0,90.5-1.7,99.8,12.2C514.3,302.7,513,317,513,319.1z"/>
<linearGradient id="SVGID_15_" gradientUnits="userSpaceOnUse" x1="441.41" y1="108.9035" x2="641.9945" y2="108.9035" gradientTransform="matrix(1 0 0 -1 -109.39 427.89)">
	<stop  offset="0" style="stop-color:#000000"/>
	<stop  offset="1" style="stop-color:#000000;stop-opacity:0"/>
</linearGradient>
<path class="st16" d="M513,319.1c0,16.9-44.7,30.5-99.8,30.5s-99.8-13.7-99.8-30.5c0-1.6-0.8-16.8,0-18.3
	c7.5-14.6,50-12.2,99.8-12.2c48.2,0,90.5-1.7,99.8,12.2C514.3,302.7,513,317,513,319.1z"/>
<ellipse class="st1" cx="413.1" cy="300.7" rx="99.8" ry="30.5"/>
<linearGradient id="SVGID_16_" gradientUnits="userSpaceOnUse" x1="427.131" y1="102.1405" x2="445.331" y2="69.6305" gradientTransform="matrix(1 0 0 -1 0 427.89)">
	<stop  offset="0.32" style="stop-color:#FFFFFF;stop-opacity:0"/>
	<stop  offset="1" style="stop-color:#FFFFFF"/>
</linearGradient>
<ellipse class="st17" cx="413.1" cy="300.7" rx="99.8" ry="30.5"/>
<linearGradient id="SVGID_17_" gradientUnits="userSpaceOnUse" x1="520.2385" y1="144.2397" x2="527.4785" y2="105.6397" gradientTransform="matrix(1 0 0 -1 -109.39 427.89)">
	<stop  offset="0" style="stop-color:#000000"/>
	<stop  offset="0.84" style="stop-color:#000000;stop-opacity:0"/>
</linearGradient>
<path class="st18" d="M492.6,295.7c0,1.3-0.4,2.6-1,3.7c-6,11.1-38.9,19.6-78.5,19.6s-72.5-8.5-78.5-19.6c-0.6-1.1-1-2.4-1-3.7
	c0-12.9,35.6-23.3,79.5-23.3S492.6,282.8,492.6,295.7z"/>
<linearGradient id="SVGID_18_" gradientUnits="userSpaceOnUse" x1="521.15" y1="128.29" x2="602.57" y2="139.39" gradientTransform="matrix(1 0 0 -1 -109.39 427.89)">
	<stop  offset="0" style="stop-color:#000000"/>
	<stop  offset="1" style="stop-color:#000000;stop-opacity:0"/>
</linearGradient>
<path class="st19" d="M491.7,299.4c-6,11.1-38.9,19.6-78.5,19.6s-72.5-8.5-78.5-19.6c6-11.1,38.9-19.6,78.5-19.6
	S485.6,288.3,491.7,299.4z"/>
<path class="st1" d="M486.3,274.3c0,16.9-44.7,30.5-99.8,30.5s-99.8-13.7-99.8-30.5c0-1.6-0.8-16.8,0-18.3
	c7.5-14.6,50-12.2,99.8-12.2c48.2,0,90.5-1.7,99.8,12.2C487.6,257.9,486.3,272.1,486.3,274.3z"/>
<linearGradient id="SVGID_19_" gradientUnits="userSpaceOnUse" x1="437.54" y1="153.7077" x2="638.1467" y2="153.7077" gradientTransform="matrix(1 0 0 -1 -109.39 427.89)">
	<stop  offset="0" style="stop-color:#000000"/>
	<stop  offset="1" style="stop-color:#000000;stop-opacity:0"/>
</linearGradient>
<path class="st20" d="M486.3,274.3c0,16.9-44.7,30.5-99.8,30.5s-99.8-13.7-99.8-30.5c0-1.6-0.8-16.8,0-18.3
	c7.5-14.6,50-12.2,99.8-12.2c48.2,0,90.5-1.7,99.8,12.2C487.6,257.9,486.3,272.1,486.3,274.3z"/>
<ellipse class="st1" cx="386.4" cy="255.9" rx="99.8" ry="30.5"/>
<linearGradient id="SVGID_20_" gradientUnits="userSpaceOnUse" x1="507.4696" y1="220.0701" x2="488.7696" y2="150.7101" gradientTransform="matrix(1 0 0 -1 -109.39 427.89)">
	<stop  offset="0" style="stop-color:#000000"/>
	<stop  offset="1" style="stop-color:#000000;stop-opacity:0"/>
</linearGradient>
<path class="st21" d="M466,250.9c0,1.3-0.4,2.6-1,3.7c-6,11.1-38.9,19.6-78.5,19.6s-72.5-8.5-78.5-19.6c-0.6-1.1-1-2.4-1-3.7
	c0-12.9,35.6-23.3,79.5-23.3S466,238,466,250.9z"/>
<path class="st1" d="M465,254.6c-6,11.1-38.9,19.6-78.5,19.6s-72.5-8.5-78.5-19.6c6-11.1,38.9-19.6,78.5-19.6S459,243.5,465,254.6z"
	/>
<linearGradient id="SVGID_21_" gradientUnits="userSpaceOnUse" x1="489.7348" y1="195.2814" x2="504.8148" y2="141.0013" gradientTransform="matrix(1 0 0 -1 -109.39 427.89)">
	<stop  offset="0.32" style="stop-color:#FFFFFF;stop-opacity:0"/>
	<stop  offset="1" style="stop-color:#FFFFFF"/>
</linearGradient>
<path class="st22" d="M465,254.6c-6,11.1-38.9,19.6-78.5,19.6s-72.5-8.5-78.5-19.6c6-11.1,38.9-19.6,78.5-19.6S459,243.5,465,254.6z
	"/>
<linearGradient id="SVGID_22_" gradientUnits="userSpaceOnUse" x1="186.4815" y1="-156.05" x2="186.4215" y2="-33.88" gradientTransform="matrix(1 0 0 -1 0 427.89)">
	<stop  offset="0" style="stop-color:#183866"/>
	<stop  offset="1" style="stop-color:#1A7FC1"/>
</linearGradient>
<ellipse class="st23" cx="186.5" cy="560.5" rx="183.8" ry="36.5"/>
<path class="st1" d="M323.7,557.5l-15.8,4.6c-13.9,4-28.5-4-32.5-17.9c0,0,0,0,0,0l0,0c-0.3-0.9-0.5-1.8-0.6-2.7l-12.2-66l61.3-23.4
	l16.4,77.7C342.7,542,335.6,554,323.7,557.5z"/>
<linearGradient id="SVGID_23_" gradientUnits="userSpaceOnUse" x1="469.6133" y1="-251.7893" x2="421.7333" y2="-21.6893" gradientTransform="matrix(1 0 0 -1 -109.39 427.89)">
	<stop  offset="0" style="stop-color:#000000"/>
	<stop  offset="1" style="stop-color:#000000;stop-opacity:0"/>
</linearGradient>
<path class="st24" d="M323.7,557.5l-15.5-96.8l16.1-6.2l15.9,75.3C342.7,542,335.6,554,323.7,557.5z"/>
<path class="st1" d="M139.4,547.3l-16.4,1.3c-14.5,1.1-27.1-9.9-28.2-24.4l0,0l0,0c-0.1-0.9-0.1-1.8-0.1-2.6l1.6-67.2l64.7-10.2
	l0.1,79.4C161.2,536,151.7,546.3,139.4,547.3z"/>
<linearGradient id="SVGID_24_" gradientUnits="userSpaceOnUse" x1="178.1108" y1="-39.1736" x2="147.3608" y2="108.5864" gradientTransform="matrix(1 0 0 -1 0 597.89)">
	<stop  offset="0" style="stop-color:#000000"/>
	<stop  offset="1" style="stop-color:#000000;stop-opacity:0"/>
</linearGradient>
<path class="st25" d="M144.2,496.4l-1,50.2c0,0,17.7-4.3,17.9-22.9c0.2-16.8,0.7-41.6,0.7-41.6L144.2,496.4z"/>
<path class="st1" d="M369.7,357.7c-11.4,73.3-89.5,130.1-184.1,130.1S12.9,431,1.4,357.7c11.4-73.3,89.5-130.1,184.2-130.1
	S358.3,284.4,369.7,357.7z"/>
<path class="st1" d="M369.8,357.7c-8.9,57.3-58.5,104.5-124.9,122.4C311.2,462.2,360.8,415,369.8,357.7
	c-11.5-73.3-89.5-130.1-184.1-130.1S12.9,284.4,1.4,357.7c-1,6.2-1.4,12.4-1.4,18.6C0,458.4,83.2,525,185.6,525
	s185.6-66.6,185.6-148.7C371.2,370.1,370.7,363.9,369.8,357.7z M14.6,397c-1.1-2-2.1-4.1-3.1-6.2C12.4,392.9,13.5,394.9,14.6,397
	c19.2,36.4,56.1,65.5,102,80.2C70.6,462.4,33.8,433.4,14.6,397z M122.4,479c2,0.6,4,1.1,5.9,1.6C126.4,480.1,124.4,479.5,122.4,479z
	 M232.7,483c2-0.4,4.1-0.9,6.1-1.4C236.8,482.1,234.7,482.6,232.7,483z"/>
<path class="st1" d="M373.1,277.1c0,0,8.6-32.1,42.3-29.3s29.9,50.5,0,76C415.4,323.9,382.4,283.1,373.1,277.1z"/>
<linearGradient id="SVGID_25_" gradientUnits="userSpaceOnUse" x1="407.98" y1="269.45" x2="405.73" y2="335.34" gradientTransform="matrix(1 0 0 -1 0 597.89)">
	<stop  offset="0" style="stop-color:#000000"/>
	<stop  offset="1" style="stop-color:#000000;stop-opacity:0"/>
</linearGradient>
<path class="st26" d="M373.1,277.4c0,0,8.6-32.1,42.3-29.3s29.9,50.5,0,76C415.4,324.1,382.4,283.4,373.1,277.4z"/>
<path class="st1" d="M390.2,285.6c0,0,6-22.4,29.5-20.4s20.8,35.2,0,53C419.7,318.2,396.7,289.8,390.2,285.6z"/>
<linearGradient id="SVGID_26_" gradientUnits="userSpaceOnUse" x1="499.58" y1="136.2327" x2="545.6772" y2="136.2327" gradientTransform="matrix(1 0 0 -1 -109.39 427.89)">
	<stop  offset="0" style="stop-color:#000000"/>
	<stop  offset="1" style="stop-color:#000000;stop-opacity:0"/>
</linearGradient>
<path class="st27" d="M390.2,285.6c0,0,6-22.4,29.5-20.4s20.8,35.2,0,53C419.7,318.2,396.7,289.8,390.2,285.6z"/>
<linearGradient id="SVGID_27_" gradientUnits="userSpaceOnUse" x1="158.6897" y1="-49" x2="187.0696" y2="223.94" gradientTransform="matrix(1 0 0 -1 0 597.89)">
	<stop  offset="0" style="stop-color:#000000"/>
	<stop  offset="7.000000e-02" style="stop-color:#000000;stop-opacity:0.84"/>
	<stop  offset="1" style="stop-color:#000000;stop-opacity:0"/>
</linearGradient>
<path class="st28" d="M372.4,376.7c0,82.1-83.1,148.7-185.6,148.7S1.2,458.8,1.2,376.7c0-6.2,0.5-12.4,1.4-18.6
	c11.4,73.3,89.5,130.1,184.2,130.1c22.7,0.1,45.4-3.3,67.1-10c8.5-6-2.6-36.8-2.8-37.5l16.1,8.4l15.5,17.7
	c47.5-23,81.1-62.6,88.3-108.7C371.9,364.3,372.4,370.5,372.4,376.7z"/>
<path class="st1" d="M482.1,393.8c0,16.8-3.6,33.4-10.7,48.6c-19,41-61.2,69.5-110.3,69.5c-33.1,0.1-64.9-13.2-87.9-37
	c-21.2-21.7-33-50.8-33.1-81.1c0-65.2,54.2-118,121-118S482.1,328.6,482.1,393.8z"/>
<linearGradient id="SVGID_28_" gradientUnits="userSpaceOnUse" x1="462.7574" y1="-43.5698" x2="495.0773" y2="281.0803" gradientTransform="matrix(1 0 0 -1 -109.39 427.89)">
	<stop  offset="0" style="stop-color:#FFFFFF;stop-opacity:0"/>
	<stop  offset="0.54" style="stop-color:#FFFFFF"/>
</linearGradient>
<path class="st29" d="M482.1,393.8c0,16.8-3.6,33.4-10.7,48.6c-19,41-61.2,69.5-110.3,69.5c-33.1,0.1-64.9-13.2-87.9-37
	c-21.2-21.7-33-50.8-33.1-81.1c0-65.2,54.2-118,121-118S482.1,328.6,482.1,393.8z"/>
<ellipse class="st1" cx="386.6" cy="370.7" rx="8.8" ry="8.9"/>
<ellipse class="st1" cx="443.2" cy="363.4" rx="8.8" ry="8.9"/>
<linearGradient id="SVGID_29_" gradientUnits="userSpaceOnUse" x1="379.0794" y1="73.4198" x2="407.1895" y2="12.3197" gradientTransform="matrix(1 0 0 -1 0 427.89)">
	<stop  offset="0" style="stop-color:#000000"/>
	<stop  offset="1" style="stop-color:#000000;stop-opacity:0"/>
</linearGradient>
<ellipse class="st30" cx="386.6" cy="370.7" rx="8.8" ry="8.9"/>
<linearGradient id="SVGID_30_" gradientUnits="userSpaceOnUse" x1="428.6365" y1="96.2184" x2="456.7365" y2="35.1184" gradientTransform="matrix(1 0 0 -1 0 427.89)">
	<stop  offset="0" style="stop-color:#000000"/>
	<stop  offset="1" style="stop-color:#000000;stop-opacity:0"/>
</linearGradient>
<ellipse class="st31" cx="443.2" cy="363.4" rx="8.8" ry="8.9"/>
<path class="st1" d="M455.4,385.3l9.4,50.8c-3.4,1.6-6.9,2.8-10.6,3.5c-18.4,3.4-35.5-5.8-38.2-20.6s9.9-29.6,28.3-33.1
	C447.9,385.2,451.7,385,455.4,385.3z"/>
<linearGradient id="SVGID_31_" gradientUnits="userSpaceOnUse" x1="550.2314" y1="-13.39" x2="546.5814" y2="76.2301" gradientTransform="matrix(1 0 0 -1 -109.39 427.89)">
	<stop  offset="0" style="stop-color:#FFFFFF;stop-opacity:0"/>
	<stop  offset="0.67" style="stop-color:#FFFFFF"/>
</linearGradient>
<path class="st32" d="M455.4,385.3l9.4,50.8c-3.4,1.6-6.9,2.8-10.6,3.5c-18.4,3.4-35.5-5.8-38.2-20.6s9.9-29.6,28.3-33.1
	C447.9,385.2,451.7,385,455.4,385.3z"/>
<ellipse transform="matrix(0.9835 -0.1807 0.1807 0.9835 -66.6786 89.7774)" class="st1" cx="459.4" cy="410.9" rx="13.7" ry="25.9"/>
<linearGradient id="SVGID_32_" gradientUnits="userSpaceOnUse" x1="519.0764" y1="100.5483" x2="592.3964" y2="-15.5417" gradientTransform="matrix(1 0 0 -1 -110.8532 430.3461)">
	<stop  offset="0" style="stop-color:#000000"/>
	<stop  offset="1" style="stop-color:#000000;stop-opacity:0"/>
</linearGradient>
<path class="st33" d="M454.8,385.4c7.4-1.4,15.6,8.9,18.1,23c2.6,14.1-1.4,26.6-8.8,27.9c-7.4,1.4-15.6-8.9-18.1-23
	C443.4,399.3,447.3,386.8,454.8,385.4z"/>
<linearGradient id="SVGID_33_" gradientUnits="userSpaceOnUse" x1="559.3795" y1="49.0299" x2="583.8095" y2="-63.8301" gradientTransform="matrix(1 0 0 -1 -109.39 427.89)">
	<stop  offset="0" style="stop-color:#000000"/>
	<stop  offset="1" style="stop-color:#000000;stop-opacity:0"/>
</linearGradient>
<path class="st34" d="M458.5,409.4c1.4,4.9,1.8,9.2,0.8,9.5s-2.9-3.5-4.3-8.4s-1.8-9.2-0.8-9.4S457,404.4,458.5,409.4z"/>
<linearGradient id="SVGID_34_" gradientUnits="userSpaceOnUse" x1="569.2714" y1="51.1703" x2="593.7014" y2="-61.6897" gradientTransform="matrix(1 0 0 -1 -109.39 427.89)">
	<stop  offset="0" style="stop-color:#000000"/>
	<stop  offset="1" style="stop-color:#000000;stop-opacity:0"/>
</linearGradient>
<path class="st35" d="M468.1,406.3c1.5,5,1.8,9.4,0.9,9.6s-2.9-3.6-4.4-8.6s-1.8-9.4-0.9-9.6S466.7,401.3,468.1,406.3z"/>
<linearGradient id="SVGID_35_" gradientUnits="userSpaceOnUse" x1="526.0125" y1="-242.3995" x2="478.1224" y2="-12.2995" gradientTransform="matrix(1 0 0 -1 -109.39 427.89)">
	<stop  offset="0" style="stop-color:#000000"/>
	<stop  offset="1" style="stop-color:#000000;stop-opacity:0"/>
</linearGradient>
<path class="st36" d="M471.5,440.3l-0.2,2.1c-19,41-61.2,69.5-110.3,69.5c-33.1,0.1-64.9-13.2-87.9-37c0,0,9.2-13.3,77.1-1.9
	S471.5,440.3,471.5,440.3z"/>
<path class="st1" d="M308.8,304.5c0,0-8.5-32.1-42.3-29.2s-29.9,50.5,0,76C266.5,351.3,299.5,310.5,308.8,304.5z"/>
<linearGradient id="SVGID_36_" gradientUnits="userSpaceOnUse" x1="325.1723" y1="223.5817" x2="266.0423" y2="300.7317" gradientTransform="matrix(1 0 0 -1 0 597.89)">
	<stop  offset="0" style="stop-color:#000000"/>
	<stop  offset="1" style="stop-color:#000000;stop-opacity:0"/>
</linearGradient>
<path class="st37" d="M309.9,304.5c0,0-8.5-32.1-42.3-29.2s-29.9,50.5,0,76C267.6,351.3,300.6,310.5,309.9,304.5z"/>
<path class="st1" d="M304.9,308.8c0,0-6-22.4-29.5-20.4s-20.8,35.1,0,53C275.4,341.4,298.4,313,304.9,308.8z"/>
<linearGradient id="SVGID_37_" gradientUnits="userSpaceOnUse" x1="368.1528" y1="113.0627" x2="414.25" y2="113.0627" gradientTransform="matrix(1 0 0 -1 -109.39 427.89)">
	<stop  offset="0" style="stop-color:#000000"/>
	<stop  offset="1" style="stop-color:#000000;stop-opacity:0"/>
</linearGradient>
<path class="st38" d="M304.9,308.8c0,0-6-22.4-29.5-20.4s-20.8,35.1,0,53C275.4,341.4,298.4,313,304.9,308.8z"/>
<path class="st39" d="M252.6,268.1l-8.6,3.9l-8.6,3.9c-50.3-30-95.4-29.5-119.1-26.1l0,0c-5.9,0.8-11.7,2-17.4,3.8l25.1-10
	c0,0,14.5-6,53.4-3.8C226.8,242.5,252.6,268.1,252.6,268.1z"/>
<path class="st1" d="M252.6,268.1l-8.6,3.9l-21-14.5c-33.5-20.4-94.7-11.9-94.7-11.9l-12.1,4.1l0,0c-5.9,0.8-11.7,2-17.4,3.8
	l25.1-10c0,0,14.5-6,53.4-3.8C226.8,242.5,252.6,268.1,252.6,268.1z"/>
<linearGradient id="SVGID_38_" gradientUnits="userSpaceOnUse" x1="277.286" y1="209.2993" x2="288.936" y2="146.5493" gradientTransform="matrix(1 0 0 -1 -109.39 427.89)">
	<stop  offset="0" style="stop-color:#000000"/>
	<stop  offset="1" style="stop-color:#000000;stop-opacity:0"/>
</linearGradient>
<path class="st40" d="M252.6,268.1l-8.6,3.9l-21-14.5c-33.5-20.4-94.7-11.9-94.7-11.9l-12.1,4.1l0,0c-5.9,0.8-11.7,2-17.4,3.8
	l25.1-10c0,0,14.5-6,53.4-3.8C226.8,242.5,252.6,268.1,252.6,268.1z"/>
<path class="st1" d="M230.9,579.7l-16.4,1.7c-14.5,1.4-27.3-9.2-28.7-23.7l0,0c-0.1-0.9-0.1-1.7-0.1-2.6v-67.2l64.5-11.7l2,79.4
	C252.5,567.9,243.2,578.4,230.9,579.7z"/>
<path class="st1" d="M67.2,562.2l-16.4,1.6c-14.5,1.4-27.4-9.2-28.8-23.7c0,0,0,0,0,0l0,0c-0.1-0.9-0.1-1.8-0.1-2.6V406.8l64.5,51.8
	l0.2,6.2l0,0l1.8,73.1C88.8,550.4,79.5,560.9,67.2,562.2z"/>
<linearGradient id="SVGID_39_" gradientUnits="userSpaceOnUse" x1="226.003" y1="-276.3894" x2="178.113" y2="-46.2894" gradientTransform="matrix(1 0 0 -1 -109.39 427.89)">
	<stop  offset="0" style="stop-color:#000000"/>
	<stop  offset="1" style="stop-color:#000000;stop-opacity:0"/>
</linearGradient>
<path class="st41" d="M67.2,562.2c0,0,3.8-82,9-91.1s10.4-6.2,10.4-6.2l0,0l1.8,73.1C88.8,550.4,79.5,560.9,67.2,562.2z"/>
<linearGradient id="SVGID_40_" gradientUnits="userSpaceOnUse" x1="385.9225" y1="-274.2895" x2="338.0325" y2="-44.1895" gradientTransform="matrix(1 0 0 -1 -109.39 427.89)">
	<stop  offset="0" style="stop-color:#000000"/>
	<stop  offset="1" style="stop-color:#000000;stop-opacity:0"/>
</linearGradient>
<path class="st42" d="M230.9,579.7l2.3-98l16.9-3.1l1.9,77C252.4,567.9,243.2,578.4,230.9,579.7z"/>
<linearGradient id="SVGID_41_" gradientUnits="userSpaceOnUse" x1="302.1" y1="279.6308" x2="350.1756" y2="279.6308" gradientTransform="matrix(1 0 0 -1 -109.39 427.89)">
	<stop  offset="0" style="stop-color:#ECC4D7"/>
	<stop  offset="0.42" style="stop-color:#EFD4D1"/>
	<stop  offset="1" style="stop-color:#F2EAC9"/>
</linearGradient>
<path class="st43" d="M199.1,142c-2.8,1.3-5.7,3.2-6.4,6.2c2.4,0,4.8-0.2,7.2-0.7l-6.3,6.5c-0.4,0.3-0.6,0.7-0.7,1.2
	c0,1.1,1.4,1.4,2.5,1.3c3.5-0.3,6.9-0.9,10.3-1.8c0.2,1.6-2.3,2.3-2.9,3.9c-0.5,1.4,0.8,2.9,2.3,3.1c1.5,0.1,2.9-0.1,4.3-0.6
	c4.7-1.1,9.6-0.5,14.4-0.3s10-0.4,13.7-3.5c0.9-0.7,1.5-1.5,1.9-2.6c0.3-1,0.3-2.1,0.2-3.2c-0.2-3,1.8-9.3,0.8-11.8
	c-0.9-2.4-5.2-4-7.5-4.4C219.2,133,204.1,139.6,199.1,142z"/>
<ellipse transform="matrix(0.28 -0.96 0.96 0.28 14.8948 344.1461)" class="st1" cx="236.9" cy="162.1" rx="67.6" ry="50.8"/>
<linearGradient id="SVGID_42_" gradientUnits="userSpaceOnUse" x1="321.9716" y1="272.1464" x2="455.7116" y2="238.1064" gradientTransform="matrix(1 0 0 -1 -108.4634 428.3416)">
	<stop  offset="0" style="stop-color:#000000"/>
	<stop  offset="1" style="stop-color:#000000;stop-opacity:0"/>
</linearGradient>
<path class="st44" d="M188.1,147.9c10.5-35.8,40.8-58.5,67.7-50.6s40.3,43.3,29.9,79.1c-10.5,35.8-40.8,58.5-67.7,50.6
	C191,219.2,177.6,183.7,188.1,147.9z"/>
<ellipse transform="matrix(0.2835 -0.959 0.959 0.2835 11.2896 331.7107)" class="st1" cx="227.6" cy="158.3" rx="67.6" ry="50.9"/>
<linearGradient id="SVGID_43_" gradientUnits="userSpaceOnUse" x1="423.0466" y1="311.1333" x2="110.6465" y2="171.6833" gradientTransform="matrix(1 3.665166e-03 3.665166e-03 -1 -109.5133 429.4096)">
	<stop  offset="0.32" style="stop-color:#FFFFFF;stop-opacity:0"/>
	<stop  offset="0.54" style="stop-color:#FFFFFF"/>
</linearGradient>
<path class="st45" d="M178.8,143.9c10.6-35.8,41-58.3,68-50.4s40.3,43.5,29.7,79.2c-10.6,35.8-41,58.3-68,50.4
	S168.2,179.7,178.8,143.9z"/>
<linearGradient id="SVGID_44_" gradientUnits="userSpaceOnUse" x1="324.7266" y1="266.9631" x2="464.3266" y2="332.7231" gradientTransform="matrix(1 3.665166e-03 3.665166e-03 -1 -109.5133 429.4096)">
	<stop  offset="0.32" style="stop-color:#FFFFFF;stop-opacity:0"/>
	<stop  offset="0.54" style="stop-color:#FFFFFF"/>
</linearGradient>
<path class="st46" d="M178.8,143.9c10.6-35.8,41-58.3,68-50.4s40.3,43.5,29.7,79.2c-10.6,35.8-41,58.3-68,50.4
	S168.2,179.7,178.8,143.9z"/>
<linearGradient id="SVGID_45_" gradientUnits="userSpaceOnUse" x1="323.4133" y1="278.1743" x2="284.9233" y2="307.2043" gradientTransform="matrix(1 0 0 -1 -109.39 427.89)">
	<stop  offset="0" style="stop-color:#000000"/>
	<stop  offset="1" style="stop-color:#000000;stop-opacity:0"/>
</linearGradient>
<path class="st47" d="M260.9,168.4c-9.1,30.3-33.1,49.8-53.6,43.5c-0.7-0.2-1.4-0.5-2.1-0.7l0,0c-19-7.6-27.2-36.2-18.4-65.4
	c9.1-30.3,33.1-49.8,53.6-43.5c3,0.9,5.9,2.4,8.4,4.3l0,0C263.2,117.4,268.7,142.7,260.9,168.4z"/>
<path class="st1" d="M260.9,168.4c-9.1,30.3-33.1,49.8-53.6,43.5c-0.7-0.2-1.4-0.5-2.1-0.7l0,0c-14.4-10.9-19.9-36.1-12.1-61.9
	c9.1-30.3,33.1-49.8,53.6-43.5c0.7,0.2,1.4,0.5,2.1,0.7l0,0C263.2,117.4,268.7,142.7,260.9,168.4z"/>
<linearGradient id="SVGID_46_" gradientUnits="userSpaceOnUse" x1="315.7964" y1="300.2676" x2="367.1764" y2="222.2076" gradientTransform="matrix(1 0 0 -1 -109.39 427.89)">
	<stop  offset="0.32" style="stop-color:#FFFFFF;stop-opacity:0"/>
	<stop  offset="1" style="stop-color:#FFFFFF"/>
</linearGradient>
<path class="st48" d="M260.9,168.4c-9.1,30.3-33.1,49.8-53.6,43.5c-0.7-0.2-1.4-0.5-2.1-0.7l0,0c-14.4-10.9-19.9-36.1-12.1-61.9
	c9.1-30.3,33.1-49.8,53.6-43.5c0.7,0.2,1.4,0.5,2.1,0.7l0,0C263.2,117.4,268.7,142.7,260.9,168.4z"/>
</svg>
