<svg id="Layer_1" data-name="Layer 1" xmlns="http://www.w3.org/2000/svg" xmlns:xlink="http://www.w3.org/1999/xlink" viewBox="0 0 309.1 291.64"><defs><linearGradient id="linear-gradient" x1="201.61" y1="118.92" x2="174.3" y2="130.18" gradientUnits="userSpaceOnUse"><stop offset="0" stop-color="#ecc4d7"/><stop offset="0.42" stop-color="#efd4d1"/><stop offset="1" stop-color="#f2eac9"/></linearGradient><linearGradient id="linear-gradient-2" x1="188.59" y1="219.68" x2="123.55" y2="224.75" gradientUnits="userSpaceOnUse"><stop offset="0" stop-opacity="0"/><stop offset="0.91" stop-opacity="0.8"/><stop offset="1"/></linearGradient><linearGradient id="linear-gradient-3" x1="228.11" y1="179.74" x2="-20.04" y2="302.88" xlink:href="#linear-gradient-2"/><linearGradient id="linear-gradient-4" x1="265.63" y1="228.92" x2="169.15" y2="316.39" xlink:href="#linear-gradient-2"/><linearGradient id="linear-gradient-5" x1="185.47" y1="224.72" x2="-28.89" y2="296.8" xlink:href="#linear-gradient-2"/><linearGradient id="linear-gradient-6" x1="185.58" y1="150.65" x2="191.84" y2="142.62" xlink:href="#linear-gradient"/><linearGradient id="linear-gradient-7" x1="129.97" y1="136.73" x2="131.1" y2="169.39" xlink:href="#linear-gradient-2"/><linearGradient id="linear-gradient-8" x1="146.07" y1="169.97" x2="176.48" y2="155.33" xlink:href="#linear-gradient"/><linearGradient id="linear-gradient-9" x1="186.57" y1="154.52" x2="205.24" y2="154.52" gradientUnits="userSpaceOnUse"><stop offset="0" stop-color="#fff"/><stop offset="1" stop-color="#fff" stop-opacity="0"/></linearGradient><linearGradient id="linear-gradient-10" x1="168.26" y1="186.22" x2="178.14" y2="186.22" xlink:href="#linear-gradient-9"/><linearGradient id="linear-gradient-11" x1="185.16" y1="186.16" x2="237.72" y2="204.56" xlink:href="#linear-gradient-9"/><linearGradient id="linear-gradient-12" x1="223.43" y1="218.43" x2="222.59" y2="213.08" xlink:href="#linear-gradient-9"/><linearGradient id="linear-gradient-13" x1="225.66" y1="203.22" x2="235.64" y2="203.22" xlink:href="#linear-gradient-9"/><linearGradient id="linear-gradient-14" x1="242.78" y1="211.86" x2="258.38" y2="211.86" xlink:href="#linear-gradient-9"/><linearGradient id="linear-gradient-15" x1="246.75" y1="210.78" x2="260.09" y2="210.78" xlink:href="#linear-gradient-9"/><linearGradient id="linear-gradient-16" x1="261.55" y1="207.21" x2="244.94" y2="215.09" xlink:href="#linear-gradient-9"/><linearGradient id="linear-gradient-17" x1="151.92" y1="225.07" x2="160.17" y2="360.43" xlink:href="#linear-gradient-2"/><linearGradient id="linear-gradient-18" x1="259.05" y1="286.72" x2="322.65" y2="286.72" xlink:href="#linear-gradient-2"/><linearGradient id="linear-gradient-19" x1="223.67" y1="211.04" x2="224.8" y2="233.95" xlink:href="#linear-gradient-2"/><linearGradient id="linear-gradient-20" x1="254.42" y1="190.43" x2="295" y2="190.43" xlink:href="#linear-gradient-2"/><linearGradient id="linear-gradient-21" x1="283.68" y1="148.67" x2="300.89" y2="148.67" xlink:href="#linear-gradient-2"/><linearGradient id="linear-gradient-22" x1="302.02" y1="188.11" x2="335.51" y2="188.11" xlink:href="#linear-gradient-2"/><linearGradient id="linear-gradient-23" x1="297.52" y1="177.49" x2="307.37" y2="177.49" xlink:href="#linear-gradient-2"/><linearGradient id="linear-gradient-24" x1="303.39" y1="194.47" x2="341.43" y2="194.47" xlink:href="#linear-gradient-2"/><linearGradient id="linear-gradient-25" x1="196.36" y1="69.72" x2="206.22" y2="109.19" xlink:href="#linear-gradient"/><linearGradient id="linear-gradient-26" x1="252.27" y1="96.45" x2="252.83" y2="96.45" gradientUnits="userSpaceOnUse"><stop offset="0" stop-color="#ecc4d7"/><stop offset="0.42" stop-color="#efd4d1"/></linearGradient><linearGradient id="linear-gradient-27" x1="169.69" y1="127.14" x2="202.21" y2="127.14" xlink:href="#linear-gradient-2"/></defs><title>75. Watering plant</title><path d="M261.94,75.15a49.47,49.47,0,0,1,27.19,28.35c2.6,7.09,3.63,14.94,8,21.09,2.91,4.07,7.07,7,11.05,10.1a203.63,203.63,0,0,1,20.52,18.08c8.42,8.47,16.22,17.92,20.47,29.09,10.55,27.79-2.84,59.94,5.95,88.34,1.38,4.47,3.33,8.93,3.12,13.61-.52,11.68-13.41,18.34-24.66,21.49-30.55,8.54-62.66,9.22-94.36,9.84-42.47.84-85,1.68-127.42,1.76-10.18,0-21.07-.21-29.44-6-10.36-7.16-14-21.09-13-33.64s5.57-24.5,8.31-36.78c5.55-24.86,3.32-50.69,2.56-76.15-.42-14.08-.31-28.6,5.07-41.61C95.23,98.72,120.88,85,146,78.53c21.45-5.52,42.41-5.63,64.36-5.4C227.49,73.3,245.62,68.4,261.94,75.15Z" transform="translate(-66.71 -41.73)" fill="#fb704a" opacity="0.27" style="isolation:isolate"/><path d="M199,123.81s-3.81,12-1.22,18.37-11.48,10.47-18.77,3.94-8.18-9.49-8.18-9.49L176,103.15S197.34,113.46,199,123.81Z" transform="translate(-66.71 -41.73)" fill="url(#linear-gradient)"/><path d="M198,127.56s1.37,4.06,15.42,8.23,30.56,14.12,35.25,29.6S264.7,261.94,302,278.72l-8.2,24.36s-63.15-40.67-65.66-50.74,0,44.72,0,44.72l-106.08-4.14-1.76-94.39s4.2-67.87,46.8-68.7S198,127.56,198,127.56Z" transform="translate(-66.71 -41.73)" fill="#fb704a"/><path d="M198,127.56s1.37,4.06,15.42,8.23,30.56,14.12,35.25,29.6S264.7,261.94,302,278.72l-8.2,24.36s-63.15-40.67-65.66-50.74,0,44.72,0,44.72l-106.08-4.14-1.76-94.39s4.2-67.87,46.8-68.7S198,127.56,198,127.56Z" transform="translate(-66.71 -41.73)" opacity="0.25" fill="url(#linear-gradient-2)" style="isolation:isolate"/><path d="M163.16,176.38a3.52,3.52,0,0,1,2.05-1.06c2.13-.07,2.44,3,2.24,5.13a26,26,0,0,0,2.61,14,12.2,12.2,0,0,1,1.65,4.32,11.07,11.07,0,0,1-.62,3.71c-2,7.15-2.36,15,.55,21.83s9.57,12.32,17,12.37c5.74.05,11-3,15.94-5.91a3.28,3.28,0,0,0-1-3.74c4.75,1.71,9.93-.61,15-.77,2.76-.09,5.59.47,8.25-.26s5.09-3.5,4.13-6.09a33.63,33.63,0,0,1-15.61.53,35.48,35.48,0,0,0,8.95-16.66,11,11,0,0,0,5.46,3.92,44.06,44.06,0,0,0-24.45-27c-2.81-1.19-5.8-2.13-8.12-4.1a11.59,11.59,0,0,1-2.38-14.3c-3,.6-4.76,3.52-6.41,6.06a59.59,59.59,0,0,1-11.77,13.28c-4.34-3.67.91-12.88-4-15.7a6.51,6.51,0,0,0-3-.67A16.22,16.22,0,0,0,157.37,170c-1.87,2-5.2,7.6-3.12,10.33C156.84,183.77,161,178.22,163.16,176.38Z" transform="translate(-66.71 -41.73)" fill="url(#linear-gradient-3)"/><path d="M228.16,252.34l.91-54.47s12.4,36.71,21.51,48S270.2,274,270.2,274l4.51,10.89h-7.95S232.29,260.71,228.16,252.34Z" transform="translate(-66.71 -41.73)" fill="url(#linear-gradient-4)"/><path d="M157.16,178.67s-7.91,34.88,0,58.91S164.71,292,164.71,292l-42.63,1-1.31-106.7Z" transform="translate(-66.71 -41.73)" fill="url(#linear-gradient-5)"/><path d="M179,146.12s13.44.39,16,3.32-4.35,2.3-4.35,2.3S181,149.9,179,148.15C178.17,147.47,179,146.12,179,146.12Z" transform="translate(-66.71 -41.73)" fill="url(#linear-gradient-6)"/><path d="M172.63,123.81s-79.26-6.64-95,17.77-6.39,46.2,0,51.25,37.32,14.62,59.13,1,25-20.45,25-20.45l-5.14-28.45,22.35-15.35Z" transform="translate(-66.71 -41.73)" fill="#fb704a"/><path d="M102.46,160.81l54.12-15.92,13.11-11.42s-62.54,11.29-73.39,19.86S92.85,161.94,102.46,160.81Z" transform="translate(-66.71 -41.73)" opacity="0.25" fill="url(#linear-gradient-7)" style="isolation:isolate"/><path d="M157.16,148.15s13.52-4.12,21.8-2a33.35,33.35,0,0,1,13.63,7.21s2,3.9-5.28,8.57-8.92,10-11.18,9.87-9-2.31-9-2.31l-6.44-1Z" transform="translate(-66.71 -41.73)" fill="url(#linear-gradient-8)"/><path d="M186.57,149.44s14.57.2,18.67,8.38L202,159.6a11.31,11.31,0,0,0-9.41-6.27Z" transform="translate(-66.71 -41.73)" fill="#fb704a"/><path d="M169.69,170.23s-6.57,12.39,8.45,32c0,0-10.24-21.64-4.46-30.9Z" transform="translate(-66.71 -41.73)" fill="#fb704a"/><path d="M186.57,149.44s14.57.2,18.67,8.38L202,159.6a11.31,11.31,0,0,0-9.41-6.27Z" transform="translate(-66.71 -41.73)" fill="url(#linear-gradient-9)" style="isolation:isolate"/><path d="M169.69,170.23s-6.57,12.39,8.45,32c0,0-10.24-21.64-4.46-30.9Z" transform="translate(-66.71 -41.73)" fill="url(#linear-gradient-10)" style="isolation:isolate"/><path d="M199.43,156.22s-6.51.6-9.47,5.68-17.15,38-17.93,45.54.83,15,6,19.49,22.25,6.21,26,4.07,28.48-45,28.48-45,4.57-20.75-8.79-30.45l-8,5.77S208.34,153.69,199.43,156.22Z" transform="translate(-66.71 -41.73)" fill="#fb704a"/><path d="M199.43,156.22s-6.51.6-9.47,5.68-17.15,38-17.93,45.54.83,15,6,19.49,22.25,6.21,26,4.07,28.48-45,28.48-45,4.57-20.75-8.79-30.45l-8,5.77S208.34,153.69,199.43,156.22Z" transform="translate(-66.71 -41.73)" fill="url(#linear-gradient-11)" style="isolation:isolate"/><path d="M197.48,166.21s-3.07-8.55,3.28-9.24,13.85,4.93,13.85,4.93l-12,11.09Z" transform="translate(-66.71 -41.73)" fill="#001316"/><path d="M208.34,217l34.44-5.14v3.72l-37.11,10.27S199.8,221.61,208.34,217Z" transform="translate(-66.71 -41.73)" fill="#fb704a"/><path d="M208.34,217l34.44-5.14v3.72l-37.11,10.27S199.8,221.61,208.34,217Z" transform="translate(-66.71 -41.73)" fill="url(#linear-gradient-12)" style="isolation:isolate"/><path d="M225.66,193.79l8.12,19.4,1.86-.27-8.58-19.66S225.79,193.15,225.66,193.79Z" transform="translate(-66.71 -41.73)" fill="url(#linear-gradient-13)" style="isolation:isolate"/><path d="M246.46,198.79l-3.68,13.06v3.72s11.76,10.37,12.5,10.27a14.64,14.64,0,0,0,3.1-1.83l-6.75-26.14Z" transform="translate(-66.71 -41.73)" fill="#fb704a"/><path d="M250.58,195.42s-4.17-.34-3.8,4.57,5.54,24.72,8.5,25.85a3.83,3.83,0,0,0,4.81-1.58C260.21,223.89,255.93,195.8,250.58,195.42Z" transform="translate(-66.71 -41.73)" fill="#fb704a"/><path d="M251.72,195.09s-4.17-.34-3.8,4.58,5.54,24.71,8.5,25.84a3.83,3.83,0,0,0,4.81-1.58C261.35,223.56,257.07,195.47,251.72,195.09Z" transform="translate(-66.71 -41.73)" fill="#fb704a"/><path d="M246.46,198.79l-3.68,13.06v3.72s11.76,10.37,12.5,10.27a14.64,14.64,0,0,0,3.1-1.83l-6.75-26.14Z" transform="translate(-66.71 -41.73)" fill="url(#linear-gradient-14)" style="isolation:isolate"/><path d="M250.58,195.42s-4.17-.34-3.8,4.57,5.54,24.72,8.5,25.85a3.83,3.83,0,0,0,4.81-1.58C260.21,223.89,255.93,195.8,250.58,195.42Z" transform="translate(-66.71 -41.73)" fill="url(#linear-gradient-15)" style="isolation:isolate"/><path d="M251.72,195.09s-4.17-.34-3.8,4.58,5.54,24.71,8.5,25.84a3.83,3.83,0,0,0,4.81-1.58C261.35,223.56,257.07,195.47,251.72,195.09Z" transform="translate(-66.71 -41.73)" fill="#fb704a"/><path d="M251.72,195.09s-4.17-.34-3.8,4.58,5.54,24.71,8.5,25.84a3.83,3.83,0,0,0,4.81-1.58C261.35,223.56,257.07,195.47,251.72,195.09Z" transform="translate(-66.71 -41.73)" fill="url(#linear-gradient-16)" style="isolation:isolate"/><path d="M15.3,250.22H293.4a15.71,15.71,0,0,1,15.71,15.71v6.21a19.51,19.51,0,0,1-19.51,19.51H17.79A17.79,17.79,0,0,1,0,273.85v-8.34a15.3,15.3,0,0,1,15.3-15.3Z" fill="#8c6239"/><path d="M15.31,250.22H293.19a15.91,15.91,0,0,1,15.91,15.91v4.8a0,0,0,0,1,0,0H0a0,0,0,0,1,0,0v-5.4a15.31,15.31,0,0,1,15.31-15.31Z" fill="url(#linear-gradient-17)"/><path d="M310.52,314.63H271.2c-4.2,0-7.69-2.67-8-6.15L259.08,266c-.38-3.89,3.32-7.22,8-7.22h47.51c4.7,0,8.39,3.33,8,7.22l-4.09,42.46C318.2,312,314.71,314.63,310.52,314.63Z" transform="translate(-66.71 -41.73)" fill="#8c6239"/><path d="M310.52,314.63H271.2c-4.2,0-7.69-2.67-8-6.15L259.08,266c-.38-3.89,3.32-7.22,8-7.22h47.51c4.7,0,8.39,3.33,8,7.22l-4.09,42.46C318.2,312,314.71,314.63,310.52,314.63Z" transform="translate(-66.71 -41.73)" fill="url(#linear-gradient-18)"/><rect x="186.36" y="199.3" width="74.94" height="29.72" rx="9.31" fill="#8c6239"/><rect x="186.36" y="199.3" width="74.94" height="29.72" rx="9.31" fill="url(#linear-gradient-19)"/><path d="M337.73,196c-5.92,10.59-16.71,18.35-20,19.28s-13.64,3.28-14.34,7.66a1.49,1.49,0,0,0,0,.21C303,227.71,301,242,301,242l-3.08.11-4.7.16h0l-6.81.24s0-.42.09-1.18c.44-6.28,2-35.58-6-42.52-9-7.78-25.49-27.28-25.94-36.89s-.41-21.81,9.21-23.29,9.71,19.8,9.11,21,11.21,14.74,11.21,14.74-.77-35.17,0-44.51c.61-7.44,10.3-18.8,16.86-19.2a4.47,4.47,0,0,1,4.21,2.09c5.21,7.77-.22,29.58-1.79,33.4s-4.3,19-2.35,24.59,1,36.73,1,36.73,15.37-11.16,17.59-18.18,9.25-35.55,15.9-29a16.67,16.67,0,0,1,3.58,5.74C342.46,174.45,342.36,187.75,337.73,196Z" transform="translate(-66.71 -41.73)" fill="#24a200"/><path d="M293.24,242.25h0l-6.72-.94c.44-6.28,2-35.58-6-42.52-9-7.78-25.49-27.28-25.94-36.89s-.41-21.81,9.21-23.29c0,0,1.74,15.74-.54,22.72s22.25,30.17,22.25,30.17S299.9,208.25,293.24,242.25Z" transform="translate(-66.71 -41.73)" opacity="0.25" fill="url(#linear-gradient-20)" style="isolation:isolate"/><path d="M293.18,186.34,284,174.71s-.78-35.17,0-44.5c.61-7.44,10.3-18.8,16.86-19.2C298.34,118.44,290,146.4,293.18,186.34Z" transform="translate(-66.71 -41.73)" opacity="0.25" fill="url(#linear-gradient-21)" style="isolation:isolate"/><path d="M335.51,160.31S330,181.22,325.76,194,302,216.88,302,216.88v-9.34s15.37-11.16,17.59-18.18S328.86,153.81,335.51,160.31Z" transform="translate(-66.71 -41.73)" opacity="0.25" fill="url(#linear-gradient-22)" style="isolation:isolate"/><path d="M303.37,146.12c-1.57,3.83-4.3,19-2.35,24.59s1,36.73,1,36.73L301,242l-3.09.28v-.17l1.26-23.36s-3.58-62.3-.29-72.2,6.25-33.81,6.25-33.81C310.37,120.49,304.94,142.3,303.37,146.12Z" transform="translate(-66.71 -41.73)" opacity="0.25" fill="url(#linear-gradient-23)" style="isolation:isolate"/><path d="M337.73,196c-5.92,10.59-16.71,18.35-20,19.28s-13.64,3.28-14.34,7.66c1.07-8.12,20-14.85,28.55-27.56S339.09,166,339.09,166C342.46,174.45,342.36,187.75,337.73,196Z" transform="translate(-66.71 -41.73)" opacity="0.25" fill="url(#linear-gradient-24)" style="isolation:isolate"/><path d="M228.16,80.1s-3.41,38.52-19.82,42.78S180.22,115.8,178.29,109,166.38,82,175,73.15,216.81,48.83,228.16,80.1Z" transform="translate(-66.71 -41.73)" fill="url(#linear-gradient-25)"/><path d="M237.11,76.6c-9,3.5-15.35,8.37-27.43,0S197.36,68.24,190,71.69a11.78,11.78,0,0,0-5.73,5.59c-1.57,3.09-1.88,6.23-3.27,7.36-2.33,1.9-2,9.23-2,9.23s-3.42-8.75-5.51-3.57,4.69,13.94,4.69,13.94.06-2,.15,4.76,1.74,8.82-3.52,12.25-11.45-.84-16.31,1.63-12.87,12.46-19.4,2.82-19.49-9.39-25.93-6.28a7.52,7.52,0,0,1-.95.37c-7,2.25-22.73-3.27-15.53-24.08,7.54-21.81,14-24.69,24.85-23.65s17.2,1.6,17.93-2.84,1.92-9,5-11.4c0,0,2.7-9.06,10.57-6.93s12.17,5,15.82,4,.74-7.59,13.67-5.75c0,0,2.9-8.58,26-7.32s25.82,6.51,28.93,13.8S246.06,73.11,237.11,76.6Z" transform="translate(-66.71 -41.73)" fill="#052326"/><path d="M177.5,96.17a10.48,10.48,0,0,0,0-1.37,2.51,2.51,0,0,0-1.36-1.94.54.54,0,0,0-.33-.07c-.14,0-.23.18-.34.3s-.4.28-.57.45a1.76,1.76,0,0,0-.1,1.77,12.61,12.61,0,0,0,2.7,4.52,1,1,0,0,0,.28.23.66.66,0,0,0,.74-.13,1.45,1.45,0,0,0,0-2C177.91,97.38,177.5,97.1,177.5,96.17Z" transform="translate(-66.71 -41.73)" fill="url(#linear-gradient-26)"/><path d="M298.08,114.43c.3.55-6-2.5-5.79,0s5.79,1.79,5.79,1.79-4.27,3.47-.8,4.34,2.55-3.69,2.55-3.69,2.66,3.64,4.29,1.6-2.34-3.38-2.34-3.38,2.81-2.34,1.71-3.57-3.62,1.33-3.64,1.84-.12-4.19-1.45-3.57S296.22,111.12,298.08,114.43Z" transform="translate(-66.71 -41.73)" fill="#fff"/><circle cx="232.86" cy="73.47" r="1.64" fill="#fffe73"/><path d="M287.44,143.68c.22.4-4.31-1.8-4.17,0s4.17,1.29,4.17,1.29-3.07,2.5-.57,3.13,1.83-2.66,1.83-2.66,1.92,2.62,3.1,1.15-1.69-2.43-1.69-2.43,2-1.69,1.23-2.57-2.61.95-2.62,1.32-.09-3-1.05-2.58S286.1,141.3,287.44,143.68Z" transform="translate(-66.71 -41.73)" fill="#fff"/><circle cx="221.73" cy="102.5" r="1.07" fill="#fffe73"/><path d="M258.5,146.19c.37.25-4.51.34-3.6,1.83s4.17-.71,4.17-.71-1.55,3.5.88,2.95.41-3.1.41-3.1,2.81,1.42,3.18-.37-2.52-1.36-2.52-1.36,1-2.34-.07-2.76-1.83,2-1.68,2.3-1.4-2.57-2-1.77S256.31,144.72,258.5,146.19Z" transform="translate(-66.71 -41.73)" fill="#fff"/><circle cx="192.95" cy="104.38" r="0.84" fill="#fffe73"/><path d="M294.88,167.33c.57,0-4.68,3.5-2.65,4.49s4-3.67,4-3.67.75,4.89,3,2.6-1.7-3.66-1.7-3.66,4-.4,3.2-2.6-3.69.27-3.69.27-.53-3.25-2-3-.62,3.42-.23,3.67-3.31-1.82-3.44-.51S291.46,167.26,294.88,167.33Z" transform="translate(-66.71 -41.73)" fill="#fff"/><circle cx="229.36" cy="124.71" r="1.08" fill="#fffe73"/><path d="M323.36,188.42c.37,0-3.07,2.29-1.74,2.94s2.65-2.41,2.65-2.41.49,3.22,2,1.71-1.11-2.4-1.11-2.4,2.65-.27,2.1-1.71-2.42.18-2.42.18-.35-2.14-1.31-1.94-.41,2.24-.15,2.4-2.17-1.19-2.26-.33S321.12,188.37,323.36,188.42Z" transform="translate(-66.71 -41.73)" fill="#fff"/><circle cx="257.48" cy="145.91" r="0.71" fill="#fffe73"/><path d="M333.6,169.91c.26.46-5-2.11-4.86,0s4.86,1.5,4.86,1.5-3.58,2.91-.66,3.64,2.13-3.09,2.13-3.09,2.24,3,3.62,1.33-2-2.83-2-2.83,2.36-2,1.43-3-3,1.11-3,1.54-.11-3.51-1.22-3S332.05,167.12,333.6,169.91Z" transform="translate(-66.71 -41.73)" fill="#fff"/><circle cx="268.18" cy="128.71" r="1.01" fill="#fffe73"/><path d="M169.69,122.05l5.31-3.38,8.48,7.77a11.84,11.84,0,0,0,9,3.16c2.51-.21,5-1,5.8-3.31l4,5s-2.77,3.78-9.37,4.28C178.14,136.69,169.69,122.05,169.69,122.05Z" transform="translate(-66.71 -41.73)" fill="#fb704a"/><path d="M169.69,122.05l5.31-3.38,8.48,7.77a11.84,11.84,0,0,0,9,3.16c2.51-.21,5-1,5.8-3.31l4,5s-2.77,3.78-9.37,4.28C178.14,136.69,169.69,122.05,169.69,122.05Z" transform="translate(-66.71 -41.73)" opacity="0.25" fill="url(#linear-gradient-27)" style="isolation:isolate"/><path d="M181,84.64c-2.33,1.9-2,9.23-2,9.23s-3.42-8.75-5.51-3.57,4.69,13.94,4.69,13.94.06-2,.15,4.76,1.74,8.82-3.52,12.25-11.45-.84-16.31,1.63-12.87,12.46-19.4,2.82-19.49-9.39-25.93-6.28a7.52,7.52,0,0,1-.95.37c-.72-5,3.26-10.72,8.52-11,1.63-.08,3.32.27,4.87-.25,1.84-.61,3.08-2.28,4.53-3.57,6.66-5.89,17-3.33,25.68-5.16a9.93,9.93,0,0,0,3.81-1.49c2-1.45,2.95-3.91,3.85-6.21,2-5.19,4.86-10.7,10-12.81a24.8,24.8,0,0,1,10.77-2C182.66,80.37,182.35,83.51,181,84.64Z" transform="translate(-66.71 -41.73)" fill="#001316"/><ellipse cx="250.98" cy="199.54" rx="0.35" ry="0.86" transform="matrix(0.97, -0.26, 0.26, 0.97, -109.6, 29.57)" fill="#fb704a"/><ellipse cx="250.58" cy="202.22" rx="0.35" ry="0.86" transform="matrix(0.97, -0.26, 0.26, 0.97, -110.3, 29.55)" fill="#fb704a"/><ellipse cx="250.58" cy="205.83" rx="0.35" ry="0.86" transform="matrix(0.97, -0.26, 0.26, 0.97, -111.23, 29.67)" fill="#fb704a"/><ellipse cx="251.43" cy="209.62" rx="0.35" ry="0.86" transform="matrix(0.97, -0.26, 0.26, 0.97, -112.18, 30.02)" fill="#fb704a"/><ellipse cx="252.56" cy="213.85" rx="0.35" ry="0.86" transform="matrix(0.97, -0.26, 0.26, 0.97, -113.23, 30.45)" fill="#fb704a"/><ellipse cx="253.82" cy="217.07" rx="0.35" ry="0.86" transform="matrix(0.97, -0.26, 0.26, 0.97, -114.02, 30.89)" fill="#fb704a"/><ellipse cx="255.5" cy="219.65" rx="0.35" ry="0.86" transform="matrix(0.97, -0.26, 0.26, 0.97, -114.62, 31.41)" fill="#fb704a"/><ellipse cx="251.81" cy="197.87" rx="0.35" ry="0.86" transform="translate(-109.14 29.72) rotate(-14.91)" fill="#fb704a"/><ellipse cx="252.68" cy="201.15" rx="0.35" ry="0.86" transform="translate(-109.96 30.06) rotate(-14.91)" fill="#fb704a"/><ellipse cx="253.52" cy="204.31" rx="0.35" ry="0.86" transform="translate(-110.74 30.38) rotate(-14.91)" fill="#fb704a"/><ellipse cx="254.37" cy="207.47" rx="0.35" ry="0.86" transform="translate(-111.53 30.7) rotate(-14.91)" fill="#fb704a"/><ellipse cx="252.21" cy="205.98" rx="0.35" ry="0.86" transform="translate(-111.22 30.1) rotate(-14.91)" fill="#fb704a"/><ellipse cx="255.05" cy="205.52" rx="0.35" ry="0.86" transform="translate(-111 30.81) rotate(-14.91)" fill="#fb704a"/><ellipse cx="256.13" cy="208.97" rx="0.35" ry="0.86" transform="translate(-111.85 31.21) rotate(-14.91)" fill="#fb704a"/><ellipse cx="257.15" cy="212.36" rx="0.35" ry="0.86" transform="translate(-112.69 31.59) rotate(-14.91)" fill="#fb704a"/><ellipse cx="257.99" cy="215.52" rx="0.35" ry="0.86" transform="translate(-113.48 31.91) rotate(-14.91)" fill="#fb704a"/><ellipse cx="253.17" cy="209.47" rx="0.35" ry="0.86" transform="translate(-112.08 30.46) rotate(-14.91)" fill="#fb704a"/><ellipse cx="254.28" cy="212.51" rx="0.35" ry="0.86" transform="translate(-112.83 30.85) rotate(-14.91)" fill="#fb704a"/><ellipse cx="255.5" cy="217.07" rx="0.35" ry="0.86" transform="translate(-113.96 31.32) rotate(-14.91)" fill="#fb704a"/><ellipse cx="255.21" cy="210.63" rx="0.35" ry="0.86" transform="translate(-112.31 31.03) rotate(-14.91)" fill="#fb704a"/><ellipse cx="256.05" cy="213.79" rx="0.35" ry="0.86" transform="translate(-113.1 31.35) rotate(-14.91)" fill="#fb704a"/><ellipse cx="256.89" cy="216.95" rx="0.35" ry="0.86" transform="translate(-113.88 31.67) rotate(-14.91)" fill="#fb704a"/><ellipse cx="257.73" cy="220.11" rx="0.35" ry="0.86" transform="translate(-114.67 32) rotate(-14.91)" fill="#fb704a"/><ellipse cx="253.17" cy="198.46" rx="0.35" ry="0.86" transform="matrix(0.97, -0.26, 0.26, 0.97, -109.25, 30.09)" fill="#fb704a"/><ellipse cx="254.56" cy="200.65" rx="0.35" ry="0.86" transform="matrix(0.97, -0.26, 0.26, 0.97, -109.77, 30.53)" fill="#fb704a"/><ellipse cx="255.9" cy="203.68" rx="0.35" ry="0.86" transform="matrix(0.97, -0.26, 0.26, 0.97, -110.5, 30.97)" fill="#fb704a"/><ellipse cx="256.75" cy="206.87" rx="0.35" ry="0.86" transform="matrix(0.97, -0.26, 0.26, 0.97, -111.29, 31.3)" fill="#fb704a"/><ellipse cx="257.79" cy="210.3" rx="0.35" ry="0.86" transform="matrix(0.97, -0.26, 0.26, 0.97, -112.14, 31.68)" fill="#fb704a"/><ellipse cx="258.61" cy="213.85" rx="0.35" ry="0.86" transform="matrix(0.97, -0.26, 0.26, 0.97, -113.03, 32.01)" fill="#fb704a"/><ellipse cx="259.27" cy="222.87" rx="0.35" ry="0.86" transform="matrix(0.97, -0.26, 0.26, 0.97, -115.32, 32.49)" fill="#fb704a"/><ellipse cx="259.81" cy="220.11" rx="0.35" ry="0.86" transform="matrix(0.97, -0.26, 0.26, 0.97, -114.6, 32.53)" fill="#fb704a"/><ellipse cx="259.41" cy="216.87" rx="0.35" ry="0.86" transform="matrix(0.97, -0.26, 0.26, 0.97, -113.78, 32.32)" fill="#fb704a"/><ellipse cx="257.39" cy="222.21" rx="0.35" ry="0.86" transform="matrix(0.97, -0.26, 0.26, 0.97, -115.22, 31.98)" fill="#fb704a"/><path d="M254.9,200.56a13.14,13.14,0,0,1,1.46-.33" transform="translate(-66.71 -41.73)" fill="none" stroke="#fff" stroke-miterlimit="10"/><path d="M261.23,199.83A35.55,35.55,0,0,1,280.71,206c9.47,6.19,12.62,14.19,13.67,18.88" transform="translate(-66.71 -41.73)" fill="none" stroke="#fff" stroke-miterlimit="10" stroke-dasharray="2.94 4.9"/><path d="M294.8,227.28a12.42,12.42,0,0,1,.1,1.49" transform="translate(-66.71 -41.73)" fill="none" stroke="#fff" stroke-miterlimit="10"/><path d="M253.82,205s.54,0,1.49.16" transform="translate(-66.71 -41.73)" fill="none" stroke="#fff" stroke-miterlimit="10"/><path d="M260.3,206.22a39,39,0,0,1,18.63,12,79.82,79.82,0,0,1,12.85,20.27" transform="translate(-66.71 -41.73)" fill="none" stroke="#fff" stroke-miterlimit="10" stroke-dasharray="3.07 5.11"/><path d="M292.73,240.84c.34.91.49,1.41.49,1.41" transform="translate(-66.71 -41.73)" fill="none" stroke="#fff" stroke-miterlimit="10"/><path d="M255.54,210.54s19.54,6.85,20.85,30.84" transform="translate(-66.71 -41.73)" fill="none" stroke="#fff" stroke-miterlimit="10" stroke-dasharray="3 5"/><path d="M252,198.7s15.48-8,31.65-2" transform="translate(-66.71 -41.73)" fill="none" stroke="#fff" stroke-miterlimit="10" stroke-dasharray="3 5"/><path d="M250.92,205.74s17.7,17.53,16.94,35.3" transform="translate(-66.71 -41.73)" fill="none" stroke="#fff" stroke-miterlimit="10" stroke-dasharray="3 5"/><path d="M257.05,222.3" transform="translate(-66.71 -41.73)" fill="none" stroke="#fff" stroke-miterlimit="10" stroke-dasharray="3 5"/></svg>